<?xml version="1.0" encoding="utf-8"?>
<!-- Generator: Adobe Illustrator 25.4.1, SVG Export Plug-In . SVG Version: 6.00 Build 0)  -->
<svg version="1.1" id="Layer_1" xmlns="http://www.w3.org/2000/svg" xmlns:xlink="http://www.w3.org/1999/xlink" x="0px" y="0px"
	 viewBox="0 0 1024 1024" style="enable-background:new 0 0 1024 1024;" xml:space="preserve">
<style type="text/css">
	.st0{fill:#FFFFFF;}
</style>
<g id="icomoon-ignore">
</g>
<path class="st0" d="M128,256C128,114.6,242.6,0,384,0s256,114.6,256,256S525.4,512,384,512l0,0C242.7,511.9,128.1,397.3,128,256
	L128,256z M384,597.3c-212,0.2-383.8,172-384,384v0c0,23.6,19.1,42.7,42.7,42.7l0,0h682.7c23.6,0,42.7-19.1,42.7-42.7l0,0
	C767.8,769.4,596,597.6,384,597.3L384,597.3L384,597.3z M913.7,512l97.8-97.8c7.4-7.7,12-18.1,12-29.6c0-23.6-19.1-42.7-42.7-42.7
	c-11.5,0-22,4.6-29.7,12l-97.8,97.8l-97.8-97.8c-7.7-7.4-18.1-12-29.6-12c-23.6,0-42.7,19.1-42.7,42.7c0,11.5,4.6,22,12,29.7
	L793,512l-97.8,97.8c-8,7.8-13,18.6-13,30.7c0,23.6,19.1,42.7,42.7,42.7c12,0,22.9-5,30.7-13l97.8-97.8l97.8,97.8
	c7.7,7.4,18.1,12,29.6,12c23.6,0,42.7-19.1,42.7-42.7c0-11.5-4.6-22-12-29.7l0,0L913.7,512z"/>
</svg>
