<?xml version="1.0" encoding="utf-8"?>
<!-- Generator: Adobe Illustrator 25.4.1, SVG Export Plug-In . SVG Version: 6.00 Build 0)  -->
<svg version="1.1" id="Layer_1" xmlns="http://www.w3.org/2000/svg" xmlns:xlink="http://www.w3.org/1999/xlink" x="0px" y="0px"
	 viewBox="0 0 1024 1024" style="enable-background:new 0 0 1024 1024;" xml:space="preserve">
<style type="text/css">
	.st0{fill:#FFFFFF;}
</style>
<g id="icomoon-ignore">
</g>
<path class="st0" d="M981.3,469.3H896V384c0-23.6-19.1-42.7-42.7-42.7s-42.7,19.1-42.7,42.7l0,0v85.3h-85.3
	c-23.6,0-42.7,19.1-42.7,42.7c0,23.6,19.1,42.7,42.7,42.7l0,0h85.3V640c0,23.6,19.1,42.7,42.7,42.7S896,663.6,896,640l0,0v-85.3
	h85.3c23.6,0,42.7-19.1,42.7-42.7S1004.9,469.3,981.3,469.3L981.3,469.3z"/>
<path class="st0" d="M640,256c0,141.4-114.6,256-256,256S128,397.4,128,256S242.6,0,384,0S640,114.6,640,256z"/>
<path class="st0" d="M384,597.3c-212,0.2-383.8,172-384,384v0c0,23.6,19.1,42.7,42.7,42.7l0,0h682.7c23.6,0,42.7-19.1,42.7-42.7l0,0
	C767.8,769.4,596,597.6,384,597.3L384,597.3L384,597.3z"/>
</svg>
