<?xml version="1.0" encoding="utf-8"?>
<!-- Generator: Adobe Illustrator 25.4.1, SVG Export Plug-In . SVG Version: 6.00 Build 0)  -->
<svg version="1.1" id="Layer_1" xmlns="http://www.w3.org/2000/svg" xmlns:xlink="http://www.w3.org/1999/xlink" x="0px" y="0px"
	 viewBox="0 0 24 24" style="enable-background:new 0 0 24 24;" xml:space="preserve">
<style type="text/css">
	.st0{fill:#FFFFFF;}
</style>
<path class="st0" d="M16,12.7V10c0-0.6,0.4-1,1-1h1c0.6,0,1-0.4,1-1V7c0-0.6,0.4-1,1-1h2.7c0.4,0,0.8-0.2,0.9-0.6
	C23.9,4.7,24.1,3.8,24,3c-0.2-1.7-1.7-3-3.5-3l0,0c-1.2,0-2.4,0.5-3.2,1.3L9.4,9.2c-1.3-0.3-2.6-0.3-3.9,0c-4,1.1-6.3,5.3-5.2,9.3
	C1.2,21.8,4.2,24,7.5,24c0.3,0,0.5,0,0.8,0c3-0.3,5.6-2.5,6.4-5.4c0.4-1.3,0.4-2.6,0-3.9l0.6-0.6C15.8,13.7,16,13.2,16,12.7z
	 M5.5,20C4.7,20,4,19.3,4,18.5S4.7,17,5.5,17S7,17.7,7,18.5S6.3,20,5.5,20z"/>
</svg>
