<svg xmlns="http://www.w3.org/2000/svg" width="54.799" height="40.775" viewBox="0 0 54.799 40.775"><defs><style>.a{fill:#f8f8fb;}</style></defs><g transform="translate(8.557) rotate(19)"><path class="a" d="M46.717.009a2.19,2.19,0,0,0-2.19,2.19V7.537A26.225,26.225,0,0,0,.009,23.876,2.2,2.2,0,0,0,2.2,26.284a2.15,2.15,0,0,0,2.163-1.923A21.866,21.866,0,0,1,41.779,10.957H35.768a2.19,2.19,0,0,0,0,4.379h8.759a4.379,4.379,0,0,0,4.379-4.379V2.2A2.19,2.19,0,0,0,46.717.009Z" transform="translate(0 0)"/></g></svg>