<svg xmlns="http://www.w3.org/2000/svg" width="31.841" height="31.84" viewBox="0 0 31.841 31.84"><defs><style>.a{fill:#f8f8fb;}</style></defs><path class="a" d="M29.959,12a1.3,1.3,0,0,0-1.31,1.164A13.244,13.244,0,0,1,5.986,21.284h3.64a1.326,1.326,0,1,0,0-2.652h-5.3a2.652,2.652,0,0,0-2.652,2.652v5.3a1.326,1.326,0,1,0,2.652,0V23.355a15.884,15.884,0,0,0,26.963-9.9A1.335,1.335,0,0,0,29.959,12Z" transform="translate(0.55 3.92)"/><path class="a" d="M28.291,0a1.326,1.326,0,0,0-1.326,1.326V4.561A15.884,15.884,0,0,0,0,14.457a1.336,1.336,0,0,0,1.326,1.459,1.3,1.3,0,0,0,1.31-1.164A13.244,13.244,0,0,1,25.3,6.632H21.66a1.326,1.326,0,0,0,0,2.652h5.3a2.652,2.652,0,0,0,2.652-2.652v-5.3A1.326,1.326,0,0,0,28.291,0Z" transform="translate(0.004 0.004)"/></svg>