<?xml version="1.0" encoding="utf-8"?>
<!-- Generator: Adobe Illustrator 23.0.6, SVG Export Plug-In . SVG Version: 6.00 Build 0)  -->
<svg version="1.1" id="Layer_1" xmlns="http://www.w3.org/2000/svg" xmlns:xlink="http://www.w3.org/1999/xlink" x="0px" y="0px"
	 viewBox="0 0 47.5 29.6" style="enable-background:new 0 0 47.5 29.6;" xml:space="preserve">
<style type="text/css">
	.st0{fill:#FFFFFF;}
</style>
<g transform="translate(0.5 0.5)">
	<g>
		<path class="st0" d="M12.7,23.3l-0.4,0c-0.2,0-0.4-0.1-0.5-0.2c-0.3-0.1-6.9-3.1-6.9-8.8v-3.1c0-2.1,1.3-3.9,3.3-4.5L12,5.3
			c0.5-0.2,1-0.2,1.5,0l3.8,1.3c2,0.6,3.3,2.5,3.3,4.5v3.1c0,5.7-6.6,8.7-6.9,8.8C13.4,23.2,13.1,23.3,12.7,23.3z M12.7,6.2
			c-0.1,0-0.3,0-0.4,0.1L8.5,7.5c-1.5,0.5-2.6,1.9-2.6,3.6v3.1c0,5.1,6,7.8,6.3,7.9c0.2,0.1,0.4,0.1,0.5,0.1h0.1
			c0.1,0,0.3,0,0.4-0.1c0.3-0.1,6.3-2.8,6.3-7.9v-3.1c0-1.6-1-3.1-2.6-3.6l-3.8-1.3C13,6.2,12.9,6.2,12.7,6.2z"/>
	</g>
	<g>
		<path class="st0" d="M16.7,8.2L12.9,7c-0.1,0-0.3,0-0.4,0L8.7,8.2c-1.2,0.4-2.1,1.6-2.1,2.9v3.1c0,4.6,5.6,7.2,5.8,7.3
			c0.2,0.1,0.3,0.1,0.5,0c0.2-0.1,5.8-2.7,5.8-7.3v-3.1C18.8,9.8,18,8.6,16.7,8.2z"/>
	</g>
	<g>
		<rect x="28" y="5.2" class="st0" width="7.1" height="3.8"/>
	</g>
	<g>
		<rect x="28" y="12.3" class="st0" width="14.2" height="3.8"/>
	</g>
	<g>
		<rect x="28" y="19.4" class="st0" width="14.2" height="3.8"/>
	</g>
	<g>
		<path class="st0" d="M47,29.1H-0.5V-0.5H47V29.1z M0.5,28.1H46V0.5H0.5V28.1z"/>
	</g>
</g>
</svg>
