<svg xmlns="http://www.w3.org/2000/svg" width="47.474" height="29.552" viewBox="0 0 47.474 29.552"><defs><style>.a{fill:none;stroke:#18bf93;stroke-miterlimit:10;}.b{fill:#18bf93;}</style></defs><g transform="translate(0.5 0.5)"><path class="a" d="M12.558,22.565a1.823,1.823,0,0,1-.741-.157c-.27-.12-6.572-2.977-6.572-8.375V10.916A4.253,4.253,0,0,1,8.163,6.869L11.98,5.6a1.829,1.829,0,0,1,1.156,0l3.818,1.273a4.255,4.255,0,0,1,2.917,4.048v3.117c0,5.4-6.3,8.255-6.571,8.374a1.823,1.823,0,0,1-.741.157Z" transform="translate(0.166 0.202)"/><path class="b" d="M16.419,7.875,12.6,6.6a.609.609,0,0,0-.385,0L8.4,7.875a3.043,3.043,0,0,0-2.083,2.89v3.118c0,4.609,5.606,7.154,5.846,7.26a.609.609,0,0,0,.495,0c.24-.106,5.846-2.651,5.846-7.26V10.766A3.043,3.043,0,0,0,16.419,7.875Z" transform="translate(0.316 0.352)"/><rect class="b" width="7.092" height="3.82" transform="translate(28.034 5.208)"/><rect class="b" width="14.184" height="3.82" transform="translate(28.034 12.326)"/><rect class="b" width="14.184" height="3.82" transform="translate(28.034 19.444)"/><rect class="a" width="46.474" height="28.552" transform="translate(0 0)"/></g></svg>