<svg xmlns="http://www.w3.org/2000/svg" width="33.417" height="33.417" viewBox="0 0 33.417 33.417"><defs><style>.a{fill:#fff;}</style></defs><path class="a" d="M16.708,5.569V6.962a5.569,5.569,0,0,1-5.569,5.569H9.747v2.785h2.785a1.392,1.392,0,0,1,0,2.785H4.177a1.392,1.392,0,0,1,0-2.785H6.962V12.531H5.569A5.569,5.569,0,0,1,0,6.962V5.569A5.569,5.569,0,0,1,5.569,0h5.569A5.569,5.569,0,0,1,16.708,5.569Z"/><path class="a" d="M28.708,16.569v1.392a5.569,5.569,0,0,1-5.569,5.569H21.747v2.785h2.785a1.392,1.392,0,1,1,0,2.785H16.177a1.392,1.392,0,0,1,0-2.785h2.785V23.531H17.569A5.569,5.569,0,0,1,12,17.962V16.569A5.569,5.569,0,0,1,17.569,11h5.569A5.569,5.569,0,0,1,28.708,16.569Z" transform="translate(4.708 4.316)"/><path class="a" d="M15.392,5.785h2.785a1.392,1.392,0,0,1,1.392,1.392V9.962a1.392,1.392,0,1,0,2.785,0V7.177A4.177,4.177,0,0,0,18.177,3H15.392a1.392,1.392,0,0,0,0,2.785Z" transform="translate(5.493 1.177)"/><path class="a" d="M13.354,20.57H9.177a1.392,1.392,0,0,1-1.392-1.392V16.392a1.392,1.392,0,0,0-2.785,0v2.785a4.177,4.177,0,0,0,4.177,4.177h4.177a1.392,1.392,0,1,0,0-2.785Z" transform="translate(1.962 5.886)"/></svg>