<?xml version="1.0" encoding="utf-8"?>
<!-- Generator: Adobe Illustrator 25.4.1, SVG Export Plug-In . SVG Version: 6.00 Build 0)  -->
<svg version="1.1" id="_x2018_ëîé_x5F_1" xmlns="http://www.w3.org/2000/svg" xmlns:xlink="http://www.w3.org/1999/xlink"
	 x="0px" y="0px" viewBox="0 0 5000 3200" style="enable-background:new 0 0 5000 3200;" xml:space="preserve">
<style type="text/css">
	.st0{fill:#141226;}
	.st1{fill:#2C447D;}
	.st2{fill:#191F3A;}
	.st3{fill:#C8DEF4;}
	.st4{fill:#FFFFFF;}
	.st5{fill:#0097DC;}
	.st6{fill:#008FD6;}
	.st7{fill:#009FE3;}
	.st8{fill:#0097DD;}
	.st9{fill:#0087CE;}
	.st10{fill:#006CA4;}
</style>
<path class="st0" d="M5000,0v3200H2879.64c122.11-245.15,315.66-454.76,557.78-583.47c137.87-73.29,287.61-121.7,427.77-190.52
	c140.17-68.81,274.95-162.97,350.43-299.66c75.49-136.69,77.04-322.82-29.09-437.35c-103.03-111.19-271.59-127.61-423.08-122.13
	c-151.49,5.47-310.92,24.09-448.13-40.35c-251.61-118.16-311.27-449.36-503.17-650.47c-133.06-139.44-322.7-208.29-508.23-260.52
	c-185.53-52.23-377.95-93.96-542.15-194.89C1611.82,328.47,1487.18,172.78,1476.69,0H5000z"/>
<g>
	<g>
		<g>
			<g>
				<g>
					<path class="st1" d="M-2181.05,1389.97V1332h-156.47c-19.74,0-34.55-4.47-44.42-13.4c-9.87-8.93-14.81-21.09-14.81-36.47
						c0-3.94,0.73-7.95,2.18-12c1.45-4.05,3.63-8.31,6.55-12.78c2.91-4.47,5.92-8.78,9.04-12.93c3.12-4.15,6.96-9.24,11.53-15.27
						l165.2-220.99c10.8-14.54,19.69-25.09,26.65-31.64c6.96-6.55,15.32-9.82,25.09-9.82c31.58,0,47.38,18.08,47.38,54.23v241.25
						h13.4c16,0,28.83,2.18,38.49,6.55c9.66,4.36,14.49,13.92,14.49,28.68c0,12.05-3.95,20.83-11.84,26.34
						c-7.9,5.51-19.74,8.26-35.53,8.26h-19.01v57.97c0,16-3.54,27.9-10.6,35.69c-7.07,7.79-16.52,11.69-28.36,11.69
						c-11.64,0-21.04-4-28.21-12C-2177.47,1417.35-2181.05,1405.55-2181.05,1389.97z M-2315.08,1262.18h134.03v-181.09
						L-2315.08,1262.18z"/>
					<path class="st1" d="M-2142.09,1440.35c-12.47,0-22.71-4.37-30.44-13c-7.64-8.53-11.52-21.1-11.52-37.38V1335h-153.47
						c-20.42,0-36.04-4.77-46.43-14.18c-10.48-9.48-15.79-22.5-15.79-38.69c0-4.28,0.79-8.66,2.36-13.01
						c1.52-4.24,3.83-8.75,6.85-13.4c2.91-4.47,5.99-8.88,9.15-13.1c3.12-4.16,6.97-9.25,11.54-15.29l165.18-220.97
						c10.86-14.62,19.95-25.4,27-32.03c7.5-7.05,16.63-10.63,27.15-10.63c33.43,0,50.38,19.26,50.38,57.23v238.25h10.4
						c16.35,0,29.72,2.29,39.73,6.81c10.79,4.87,16.26,15.44,16.26,31.41c0,13.04-4.42,22.73-13.13,28.8
						c-8.37,5.84-20.9,8.8-37.25,8.8h-16.01v54.97c0,16.69-3.83,29.37-11.37,37.7C-2119.13,1436.08-2129.42,1440.35-2142.09,1440.35
						z M-2150.5,969.7c-9.06,0-16.59,2.95-23.04,9c-6.79,6.39-15.64,16.9-26.3,31.24l-165.2,221c-4.58,6.04-8.42,11.13-11.54,15.28
						c-3.08,4.11-6.09,8.41-8.92,12.77c-2.77,4.26-4.87,8.35-6.24,12.15c-1.33,3.71-2.01,7.4-2.01,10.99
						c0,14.63,4.52,25.83,13.82,34.24c9.25,8.38,23.52,12.63,42.4,12.63h159.47v60.97c0,14.75,3.36,25.98,9.99,33.37
						c6.64,7.4,15.13,11,25.97,11c11.06,0,19.61-3.5,26.14-10.7c6.52-7.19,9.82-18.52,9.82-33.67V1329h22.01
						c15.09,0,26.47-2.6,33.82-7.72c7.11-4.95,10.56-12.76,10.56-23.88c0-13.59-4.16-22.07-12.73-25.94
						c-9.23-4.17-21.76-6.28-37.26-6.28h-16.4v-244.25C-2106.13,986.45-2120.64,969.7-2150.5,969.7z M-2178.05,1265.18h-142.98
						l142.98-193.19V1265.18z M-2309.12,1259.18h125.07v-169L-2309.12,1259.18z"/>
				</g>
				<g>
					<path class="st1" d="M-1676.11,1205.45c0,34.08-2.08,63.38-6.23,87.9c-4.16,24.52-11.84,46.75-23.07,66.7
						c-14.13,24.52-32.42,43.43-54.86,56.73c-22.44,13.3-47.38,19.95-74.81,19.95c-31.59,0-59.9-8.93-84.94-26.81
						c-25.04-17.87-43.9-42.59-56.57-74.18c-6.44-17.24-11.17-36.31-14.18-57.19c-3.01-20.88-4.52-43.48-4.52-67.79
						c0-31.37,1.66-59.64,4.99-84.78c3.32-25.14,8.52-46.75,15.58-64.83c12.26-29.92,30.08-52.72,53.45-68.42
						c23.38-15.69,51.27-23.53,83.69-23.53c21.4,0,40.83,3.48,58.29,10.44c17.45,6.96,32.78,17.14,45.97,30.55
						c13.19,13.4,24.36,29.98,33.51,49.71C-1684.01,1094.18-1676.11,1142.7-1676.11,1205.45z M-1761.52,1199.22
						c0-38.03-2.29-69.14-6.86-93.35c-4.57-24.2-12.26-42.49-23.07-54.86c-10.81-12.36-25.77-18.55-44.88-18.55
						c-27.43,0-46.5,13.82-57.19,41.45c-10.7,27.64-16.05,70.24-16.05,127.79c0,39.07,2.28,71.07,6.86,96
						c4.57,24.94,12.26,43.79,23.06,56.57c10.8,12.78,25.45,19.17,43.95,19.17c19.12,0,34.08-6.65,44.88-19.95
						c10.8-13.3,18.39-32.31,22.75-57.04C-1763.7,1271.74-1761.52,1239.32-1761.52,1199.22z"/>
					<path class="st1" d="M-1835.08,1439.72c-32.08,0-61.24-9.21-86.68-27.36c-25.4-18.12-44.78-43.53-57.61-75.51
						c-6.52-17.44-11.34-36.89-14.37-57.88c-3.02-20.92-4.55-43.87-4.55-68.22c0-31.37,1.69-60.03,5.01-85.17
						c3.34-25.26,8.64-47.31,15.76-65.53c12.45-30.38,30.8-53.86,54.58-69.81c23.77-15.95,52.49-24.04,85.36-24.04
						c21.68,0,41.67,3.58,59.4,10.65c17.76,7.09,33.57,17.59,47,31.23c13.37,13.58,24.84,30.59,34.09,50.56
						c15.9,34.54,23.97,83.93,23.97,146.82c0,34.08-2.11,63.82-6.28,88.4c-4.2,24.75-12.07,47.52-23.41,67.67
						c-14.35,24.89-33.16,44.34-55.94,57.84C-1781.55,1432.87-1807.23,1439.72-1835.08,1439.72z M-1837.57,972.19
						c-31.66,0-59.25,7.75-82.02,23.02c-22.77,15.28-40.38,37.85-52.35,67.06c-6.93,17.73-12.11,39.31-15.39,64.09
						c-3.29,24.89-4.96,53.28-4.96,84.39c0,24.07,1.51,46.73,4.49,67.36c2.96,20.57,7.68,39.6,14.02,56.57
						c12.37,30.83,31.05,55.34,55.5,72.79c24.4,17.42,52.39,26.25,83.19,26.25c26.75,0,51.4-6.57,73.28-19.53
						c21.88-12.96,39.98-31.69,53.79-55.64c10.98-19.52,18.62-41.64,22.71-65.71c4.11-24.24,6.19-53.65,6.19-87.4
						c0-62.02-7.88-110.57-23.41-144.3c-8.96-19.33-20.03-35.77-32.92-48.87c-12.84-13.04-27.96-23.09-44.95-29.86
						C-1797.42,975.63-1816.65,972.19-1837.57,972.19z M-1835.7,1376.45c-19.33,0-34.89-6.81-46.24-20.23
						c-11.1-13.13-19.08-32.63-23.72-57.97c-4.58-24.99-6.91-57.47-6.91-96.54c0-57.67,5.47-101.03,16.25-128.88
						c11.14-28.78,31.33-43.37,59.99-43.37c19.93,0,35.79,6.58,47.14,19.57c11.11,12.72,19.1,31.65,23.75,56.27
						c4.58,24.3,6.91,55.89,6.91,93.91c0,40.09-2.22,72.98-6.59,97.77c-4.43,25.12-12.3,44.77-23.38,58.41
						C-1799.84,1369.37-1815.72,1376.45-1835.7,1376.45z M-1836.32,1035.46c-26.3,0-44.1,12.93-54.4,39.54
						c-10.52,27.15-15.85,69.79-15.85,126.71c0,38.71,2.29,70.83,6.81,95.46c4.45,24.29,11.99,42.86,22.4,55.18
						c10.3,12.18,23.92,18.11,41.66,18.11c18.33,0,32.25-6.16,42.56-18.84c10.43-12.84,17.87-31.57,22.13-55.67
						c4.31-24.44,6.5-56.98,6.5-96.73c0-37.64-2.29-68.86-6.8-92.79c-4.45-23.56-11.98-41.54-22.38-53.44
						C-1803.86,1041.36-1818.2,1035.46-1836.32,1035.46z"/>
				</g>
				<g>
					<path class="st1" d="M-1422.4,1389.97V1332h-156.47c-19.74,0-34.55-4.47-44.42-13.4c-9.87-8.93-14.81-21.09-14.81-36.47
						c0-3.94,0.73-7.95,2.18-12c1.45-4.05,3.63-8.31,6.55-12.78c2.91-4.47,5.92-8.78,9.04-12.93c3.12-4.15,6.96-9.24,11.53-15.27
						l165.2-220.99c10.8-14.54,19.69-25.09,26.65-31.64c6.96-6.55,15.32-9.82,25.09-9.82c31.58,0,47.38,18.08,47.38,54.23v241.25
						h13.4c16,0,28.83,2.18,38.49,6.55c9.66,4.36,14.49,13.92,14.49,28.68c0,12.05-3.95,20.83-11.84,26.34
						c-7.9,5.51-19.74,8.26-35.53,8.26h-19.01v57.97c0,16-3.54,27.9-10.6,35.69c-7.07,7.79-16.52,11.69-28.36,11.69
						c-11.64,0-21.04-4-28.21-12C-1418.81,1417.35-1422.4,1405.55-1422.4,1389.97z M-1556.42,1262.18h134.03v-181.09
						L-1556.42,1262.18z"/>
					<path class="st1" d="M-1383.44,1440.35c-12.47,0-22.71-4.37-30.44-13c-7.64-8.53-11.52-21.1-11.52-37.38V1335h-153.47
						c-20.42,0-36.04-4.77-46.43-14.18c-10.48-9.48-15.79-22.5-15.79-38.69c0-4.28,0.79-8.66,2.36-13.01
						c1.52-4.24,3.83-8.75,6.85-13.4c2.91-4.47,5.99-8.88,9.15-13.1c3.12-4.16,6.97-9.25,11.54-15.29l165.18-220.97
						c10.86-14.62,19.95-25.4,27-32.03c7.5-7.05,16.63-10.63,27.15-10.63c33.43,0,50.38,19.26,50.38,57.23v238.25h10.4
						c16.35,0,29.72,2.29,39.73,6.81c10.79,4.87,16.26,15.44,16.26,31.41c0,13.04-4.42,22.73-13.13,28.8
						c-8.37,5.84-20.9,8.8-37.25,8.8h-16.01v54.97c0,16.69-3.83,29.37-11.37,37.7C-1360.48,1436.08-1370.77,1440.35-1383.44,1440.35
						z M-1391.85,969.7c-9.06,0-16.59,2.95-23.04,9c-6.79,6.39-15.64,16.9-26.3,31.24l-165.2,221c-4.58,6.04-8.42,11.13-11.54,15.28
						c-3.08,4.11-6.08,8.41-8.92,12.77c-2.77,4.26-4.87,8.35-6.24,12.15c-1.33,3.71-2.01,7.4-2.01,10.99
						c0,14.63,4.52,25.83,13.82,34.24c9.25,8.38,23.52,12.63,42.4,12.63h159.47v60.97c0,14.75,3.36,25.98,9.99,33.37
						c6.64,7.4,15.13,11,25.97,11c11.06,0,19.61-3.5,26.14-10.7c6.52-7.19,9.82-18.52,9.82-33.67V1329h22.01
						c15.09,0,26.47-2.6,33.82-7.72c7.11-4.95,10.56-12.76,10.56-23.88c0-13.59-4.16-22.07-12.73-25.94
						c-9.23-4.17-21.76-6.28-37.26-6.28h-16.4v-244.25C-1347.48,986.45-1361.99,969.7-1391.85,969.7z M-1419.4,1265.18h-142.98
						l142.98-193.19V1265.18z M-1550.47,1259.18h125.07v-169L-1550.47,1259.18z"/>
				</g>
			</g>
		</g>
		<g>
			<g>
				<g>
					<path class="st2" d="M-2508.44,1676.11h-25.85v39.45c0,5.64-1.33,9.92-3.99,12.83c-2.66,2.91-6.02,4.37-10.08,4.37
						c-4.25,0-7.67-1.44-10.27-4.32c-2.6-2.88-3.9-7.11-3.9-12.69v-107.41c0-6.21,1.43-10.65,4.28-13.31
						c2.85-2.66,7.38-3.99,13.59-3.99h36.22c10.71,0,18.95,0.82,24.71,2.47c5.7,1.59,10.63,4.22,14.78,7.89
						c4.15,3.68,7.3,8.17,9.46,13.5c2.15,5.32,3.23,11.31,3.23,17.97c0,14.2-4.37,24.95-13.12,32.27
						C-2478.12,1672.45-2491.14,1676.11-2508.44,1676.11z M-2515.28,1612.23h-19.01v42.58h19.01c6.65,0,12.21-0.7,16.68-2.09
						c4.47-1.39,7.87-3.67,10.22-6.84c2.34-3.17,3.52-7.32,3.52-12.45c0-6.15-1.81-11.15-5.42-15.02
						C-2494.34,1614.29-2502.67,1612.23-2515.28,1612.23z"/>
					<path class="st2" d="M-2548.36,1733.76c-4.52,0-8.23-1.57-11.01-4.66c-2.76-3.06-4.15-7.55-4.15-13.36v-107.41
						c0-6.47,1.55-11.19,4.6-14.04c3.03-2.83,7.83-4.26,14.27-4.26h36.22c10.75,0,19.16,0.84,24.99,2.51
						c5.82,1.62,10.92,4.34,15.17,8.1c4.25,3.76,7.52,8.43,9.72,13.87c2.19,5.42,3.31,11.59,3.31,18.34
						c0,14.44-4.53,25.55-13.48,33.04c-8.89,7.44-22.25,11.21-39.71,11.21h-24.85v38.45c0,5.87-1.43,10.42-4.25,13.51
						C-2540.4,1732.18-2544.03,1733.76-2548.36,1733.76z M-2544.65,1592.03c-5.92,0-10.26,1.25-12.91,3.72
						c-2.63,2.45-3.96,6.68-3.96,12.58v107.41c0,5.3,1.22,9.34,3.64,12.02c2.42,2.69,5.54,3.99,9.52,3.99c3.8,0,6.85-1.32,9.34-4.05
						c2.48-2.71,3.73-6.8,3.73-12.16v-40.45h26.85c16.98,0,29.91-3.62,38.43-10.75c8.47-7.09,12.76-17.68,12.76-31.5
						c0-6.49-1.06-12.41-3.16-17.59c-2.09-5.15-5.18-9.57-9.19-13.12c-4.02-3.56-8.86-6.14-14.39-7.67
						c-5.66-1.62-13.88-2.43-24.45-2.43H-2544.65z M-2515.28,1655.81h-20.01v-44.58h20.01c13.01,0,21.42,2.12,25.71,6.48
						c3.79,4.06,5.71,9.34,5.71,15.72c0,5.33-1.25,9.72-3.71,13.05c-2.46,3.33-6.07,5.75-10.72,7.2
						C-2502.84,1655.09-2508.56,1655.81-2515.28,1655.81z M-2533.29,1653.81h18.01c6.52,0,12.04-0.69,16.38-2.04
						c4.24-1.32,7.51-3.5,9.71-6.48c2.2-2.98,3.32-6.97,3.32-11.86c0-5.86-1.73-10.68-5.15-14.34c-3.82-3.88-12-5.86-24.27-5.86
						h-18.01V1653.81z"/>
				</g>
			</g>
			<g>
				<g>
					<path class="st2" d="M-2376.31,1718.12c-6.27,4.88-12.34,8.54-18.2,10.98c-5.86,2.44-12.44,3.66-19.72,3.66
						c-6.65,0-12.5-1.32-17.54-3.94c-5.04-2.63-8.92-6.19-11.64-10.69c-2.73-4.5-4.09-9.38-4.09-14.64c0-7.1,2.25-13.15,6.75-18.16
						c4.5-5,10.68-8.36,18.54-10.08c1.65-0.38,5.73-1.24,12.26-2.57c6.53-1.33,12.12-2.55,16.78-3.66
						c4.66-1.11,9.71-2.46,15.16-4.04c-0.32-6.84-1.7-11.87-4.13-15.07c-2.44-3.2-7.49-4.8-15.16-4.8c-6.59,0-11.55,0.92-14.88,2.76
						c-3.33,1.84-6.18,4.59-8.55,8.27c-2.38,3.68-4.06,6.1-5.04,7.27c-0.98,1.17-3.09,1.76-6.32,1.76c-2.92,0-5.43-0.93-7.56-2.8
						c-2.12-1.87-3.18-4.26-3.18-7.18c0-4.56,1.62-9,4.85-13.31c3.23-4.31,8.27-7.86,15.11-10.65c6.84-2.79,15.37-4.18,25.57-4.18
						c11.41,0,20.37,1.35,26.9,4.04c6.53,2.69,11.14,6.96,13.83,12.79c2.69,5.83,4.04,13.56,4.04,23.19
						c0,6.08-0.02,11.25-0.05,15.49c-0.03,4.25-0.08,8.97-0.14,14.16c0,4.88,0.81,9.97,2.42,15.26c1.62,5.29,2.42,8.7,2.42,10.22
						c0,2.66-1.25,5.09-3.75,7.27c-2.5,2.19-5.34,3.28-8.51,3.28c-2.66,0-5.29-1.25-7.89-3.75
						C-2370.64,1726.5-2373.4,1722.87-2376.31,1718.12z M-2378.02,1680.57c-3.8,1.39-9.33,2.87-16.59,4.42
						c-7.26,1.55-12.28,2.69-15.07,3.42c-2.79,0.73-5.45,2.16-7.98,4.28c-2.54,2.12-3.8,5.09-3.8,8.89c0,3.93,1.49,7.27,4.47,10.03
						c2.98,2.76,6.88,4.13,11.69,4.13c5.13,0,9.87-1.12,14.21-3.37c4.34-2.25,7.52-5.15,9.55-8.7c2.34-3.93,3.52-10.39,3.52-19.39
						V1680.57z"/>
					<path class="st2" d="M-2360.15,1733.76c-2.92,0-5.8-1.36-8.58-4.03c-2.47-2.38-5.11-5.79-7.84-10.14
						c-6.01,4.58-11.91,8.09-17.55,10.43c-5.96,2.48-12.72,3.74-20.11,3.74c-6.78,0-12.84-1.37-18-4.06
						c-5.18-2.7-9.23-6.42-12.04-11.06c-2.81-4.63-4.23-9.73-4.23-15.16c0-7.32,2.36-13.65,7.01-18.83
						c4.62-5.14,11.04-8.63,19.07-10.38c1.64-0.38,5.77-1.24,12.28-2.57c6.5-1.33,12.13-2.55,16.75-3.65
						c4.38-1.04,9.21-2.32,14.35-3.81c-0.37-6.21-1.68-10.82-3.89-13.72c-2.23-2.92-7.06-4.41-14.37-4.41
						c-6.39,0-11.23,0.89-14.39,2.63c-3.17,1.75-5.92,4.42-8.2,7.94c-2.42,3.74-4.09,6.15-5.11,7.37c-1.19,1.42-3.51,2.12-7.09,2.12
						c-3.15,0-5.92-1.03-8.22-3.05c-2.34-2.06-3.52-4.72-3.52-7.93c0-4.76,1.7-9.44,5.05-13.91c3.33-4.44,8.55-8.13,15.54-10.97
						c6.93-2.83,15.66-4.26,25.95-4.26c11.48,0,20.66,1.38,27.28,4.12c6.74,2.78,11.57,7.25,14.36,13.29
						c2.74,5.94,4.13,13.88,4.13,23.61c0,6.09-0.02,11.25-0.05,15.5c-0.03,4.25-0.08,8.97-0.14,14.17c0,4.75,0.8,9.78,2.38,14.95
						c1.66,5.44,2.47,8.88,2.47,10.51c0,2.95-1.38,5.65-4.1,8.02C-2353.67,1732.57-2356.75,1733.76-2360.15,1733.76z
						 M-2376.04,1716.64l0.58,0.95c2.86,4.66,5.59,8.25,8.11,10.69c2.39,2.31,4.81,3.47,7.2,3.47c2.95,0,5.51-0.99,7.85-3.03
						c2.3-2.01,3.41-4.14,3.41-6.52c0-0.97-0.41-3.48-2.38-9.93c-1.64-5.36-2.47-10.59-2.47-15.55c0.06-5.21,0.11-9.93,0.14-14.17
						c0.03-4.24,0.05-9.41,0.05-15.49c0-9.44-1.33-17.1-3.95-22.77c-2.57-5.57-7.05-9.7-13.3-12.28c-6.38-2.63-15.3-3.96-26.52-3.96
						c-10.02,0-18.5,1.38-25.19,4.11c-6.64,2.71-11.58,6.18-14.69,10.32c-3.08,4.11-4.65,8.39-4.65,12.71
						c0,2.64,0.93,4.74,2.85,6.43c1.95,1.72,4.21,2.55,6.9,2.55c3.62,0,5.02-0.76,5.55-1.4c0.95-1.14,2.62-3.55,4.96-7.17
						c2.46-3.8,5.45-6.69,8.91-8.6c3.46-1.91,8.63-2.88,15.36-2.88c8.07,0,13.29,1.7,15.96,5.19c2.55,3.35,4.01,8.61,4.34,15.62
						l0.04,0.79l-0.76,0.22c-5.46,1.59-10.58,2.95-15.21,4.05c-4.63,1.1-10.29,2.34-16.81,3.67c-6.49,1.32-10.61,2.18-12.24,2.56
						c-7.62,1.66-13.68,4.95-18.02,9.77c-4.31,4.79-6.49,10.68-6.49,17.49c0,5.05,1.33,9.8,3.94,14.12
						c2.61,4.32,6.4,7.79,11.25,10.33c4.87,2.54,10.62,3.83,17.08,3.83c7.12,0,13.62-1.21,19.34-3.58
						c5.75-2.39,11.8-6.04,17.97-10.84L-2376.04,1716.64z M-2405.3,1716.74c-5.05,0-9.22-1.48-12.37-4.4
						c-3.18-2.94-4.79-6.56-4.79-10.76c0-4.09,1.4-7.34,4.16-9.65c2.64-2.21,5.45-3.71,8.37-4.48c2.79-0.73,7.87-1.88,15.11-3.43
						c7.18-1.54,12.72-3.01,16.45-4.38l1.34-0.49v5.14c0,9.27-1.2,15.78-3.66,19.9c-2.11,3.69-5.46,6.75-9.95,9.07
						C-2395.1,1715.57-2400.03,1716.74-2405.3,1716.74z M-2379.02,1681.98c-3.75,1.26-8.92,2.6-15.38,3.99
						c-7.21,1.54-12.26,2.69-15.02,3.41c-2.63,0.69-5.19,2.06-7.59,4.08c-2.32,1.94-3.44,4.6-3.44,8.12c0,3.67,1.36,6.71,4.15,9.29
						c2.77,2.57,6.48,3.87,11.01,3.87c4.95,0,9.57-1.1,13.75-3.26c4.15-2.15,7.22-4.94,9.14-8.31c2.25-3.77,3.39-10.12,3.39-18.89
						V1681.98z"/>
				</g>
			</g>
			<g>
				<g>
					<path class="st2" d="M-2233.35,1646.26v75.38c0,8.62-0.92,16.03-2.76,22.24c-1.84,6.21-4.79,11.34-8.84,15.4
						c-4.06,4.05-9.36,7.07-15.92,9.03c-6.56,1.96-14.72,2.95-24.48,2.95c-8.94,0-16.92-1.25-23.95-3.75
						c-7.03-2.5-12.45-5.74-16.25-9.7c-3.8-3.96-5.7-8.03-5.7-12.21c0-3.17,1.08-5.75,3.23-7.75c2.15-2,4.75-2.99,7.79-2.99
						c3.8,0,7.13,1.68,9.98,5.04c1.39,1.71,2.84,3.44,4.33,5.18c1.49,1.74,3.14,3.23,4.94,4.47c1.81,1.24,3.98,2.15,6.51,2.76
						c2.53,0.6,5.45,0.9,8.75,0.9c6.72,0,11.93-0.94,15.64-2.8c3.71-1.87,6.3-4.48,7.79-7.84c1.49-3.36,2.36-6.96,2.61-10.79
						c0.25-3.83,0.44-10,0.57-18.49c-3.99,5.58-8.6,9.82-13.83,12.74c-5.23,2.92-11.45,4.37-18.68,4.37
						c-8.68,0-16.27-2.22-22.77-6.65c-6.5-4.43-11.49-10.65-14.97-18.63c-3.49-7.98-5.23-17.2-5.23-27.66
						c0-7.8,1.06-14.83,3.18-21.1c2.12-6.27,5.15-11.56,9.08-15.87c3.93-4.31,8.46-7.56,13.59-9.74c5.13-2.19,10.77-3.28,16.92-3.28
						c7.35,0,13.72,1.41,19.11,4.23c5.39,2.82,10.39,7.24,15.02,13.26v-3.52c0-4.5,1.11-7.98,3.33-10.46
						c2.22-2.47,5.07-3.71,8.56-3.71c5,0,8.33,1.63,9.98,4.9C-2234.17,1635.41-2233.35,1640.11-2233.35,1646.26z M-2308.54,1679.15
						c0,10.52,2.3,18.47,6.89,23.86c4.59,5.39,10.53,8.08,17.82,8.08c4.31,0,8.38-1.16,12.21-3.47c3.83-2.31,6.95-5.8,9.36-10.46
						c2.41-4.66,3.61-10.31,3.61-16.97c0-10.58-2.33-18.82-6.99-24.71c-4.66-5.89-10.79-8.84-18.39-8.84
						c-7.41,0-13.36,2.82-17.82,8.46C-2306.3,1660.74-2308.54,1668.75-2308.54,1679.15z"/>
					<path class="st2" d="M-2285.34,1772.26c-9.01,0-17.18-1.28-24.29-3.81c-7.15-2.54-12.75-5.89-16.64-9.95
						c-3.97-4.14-5.98-8.48-5.98-12.91c0-3.44,1.2-6.3,3.55-8.48c2.33-2.16,5.19-3.26,8.47-3.26c4.09,0,7.71,1.81,10.74,5.39
						c1.36,1.68,2.81,3.41,4.32,5.18c1.43,1.67,3.02,3.11,4.75,4.29c1.69,1.16,3.77,2.04,6.18,2.61c2.45,0.58,5.31,0.88,8.51,0.88
						c6.53,0,11.64-0.91,15.19-2.7c3.48-1.75,5.94-4.23,7.33-7.35c1.43-3.24,2.29-6.75,2.53-10.45c0.22-3.33,0.39-8.5,0.52-15.39
						c-3.63,4.5-7.76,8.05-12.29,10.58c-5.35,2.99-11.8,4.5-19.17,4.5c-8.85,0-16.7-2.3-23.33-6.83
						c-6.62-4.52-11.78-10.93-15.32-19.06c-3.52-8.07-5.31-17.51-5.31-28.06c0-7.87,1.09-15.08,3.24-21.42
						c2.16-6.38,5.28-11.84,9.29-16.23c4.01-4.4,8.7-7.76,13.94-9.99c5.23-2.23,11.06-3.36,17.31-3.36c7.48,0,14.06,1.46,19.57,4.34
						c4.8,2.51,9.35,6.31,13.55,11.31v-0.68c0-4.73,1.21-8.48,3.58-11.12c2.4-2.68,5.53-4.04,9.3-4.04c5.39,0,9.05,1.83,10.87,5.44
						c1.71,3.39,2.58,8.29,2.58,14.57v75.38c0,8.67-0.94,16.25-2.8,22.53c-1.88,6.34-4.94,11.67-9.09,15.82
						c-4.16,4.16-9.65,7.28-16.34,9.28C-2267.21,1771.25-2275.54,1772.26-2285.34,1772.26z M-2320.23,1735.85
						c-2.81,0-5.13,0.89-7.11,2.73c-1.96,1.82-2.91,4.11-2.91,7.01c0,3.89,1.83,7.77,5.43,11.52c3.68,3.83,9.02,7.01,15.87,9.45
						c6.89,2.45,14.84,3.7,23.62,3.7c9.61,0,17.75-0.98,24.19-2.91c6.37-1.91,11.58-4.86,15.5-8.78c3.92-3.92,6.81-8.96,8.59-14.98
						c1.8-6.09,2.72-13.48,2.72-21.96v-75.38c0-5.96-0.8-10.56-2.36-13.67c-1.48-2.92-4.45-4.35-9.09-4.35
						c-3.22,0-5.77,1.1-7.81,3.38c-2.04,2.27-3.07,5.56-3.07,9.79v6.46l-1.79-2.33c-4.52-5.88-9.46-10.24-14.69-12.98
						c-5.22-2.73-11.49-4.12-18.64-4.12c-5.98,0-11.54,1.08-16.53,3.2c-4.98,2.12-9.43,5.31-13.25,9.5
						c-3.82,4.19-6.8,9.41-8.87,15.52c-2.08,6.14-3.13,13.13-3.13,20.78c0,10.27,1.73,19.44,5.14,27.26
						c3.39,7.77,8.31,13.9,14.62,18.21c6.29,4.3,13.76,6.48,22.2,6.48c7.02,0,13.14-1.43,18.19-4.25c5.07-2.83,9.62-7.02,13.5-12.45
						l1.86-2.6l-0.05,3.2c-0.13,8.46-0.32,14.7-0.57,18.54c-0.26,3.93-1.17,7.68-2.7,11.13c-1.58,3.56-4.36,6.36-8.26,8.33
						c-3.83,1.93-9.24,2.91-16.09,2.91c-3.36,0-6.38-0.31-8.98-0.93c-2.65-0.63-4.95-1.61-6.85-2.9c-1.87-1.28-3.6-2.84-5.14-4.64
						c-1.52-1.78-2.98-3.53-4.34-5.2C-2313.69,1737.38-2316.7,1735.85-2320.23,1735.85z M-2283.82,1712.09
						c-7.56,0-13.81-2.84-18.58-8.43c-4.73-5.54-7.13-13.79-7.13-24.51c0-10.57,2.33-18.87,6.92-24.67
						c4.65-5.86,10.91-8.84,18.61-8.84c7.89,0,14.34,3.1,19.18,9.22c4.78,6.05,7.2,14.57,7.2,25.33c0,6.78-1.25,12.65-3.72,17.43
						c-2.49,4.8-5.76,8.46-9.73,10.85C-2275.07,1710.87-2279.35,1712.09-2283.82,1712.09z M-2284.01,1647.64
						c-7.16,0-12.73,2.64-17.04,8.08c-4.3,5.43-6.49,13.32-6.49,23.43c0,10.23,2.24,18.04,6.65,23.21
						c4.37,5.13,10.11,7.73,17.06,7.73c4.1,0,8.04-1.12,11.7-3.33c3.65-2.2,6.68-5.59,8.99-10.06c2.32-4.49,3.5-10.05,3.5-16.51
						c0-10.3-2.28-18.41-6.77-24.09C-2270.9,1650.41-2276.66,1647.64-2284.01,1647.64z"/>
				</g>
			</g>
			<g>
				<g>
					<path class="st2" d="M-2139.53,1686.37h-50.76c0.06,5.89,1.25,11.09,3.56,15.59c2.31,4.5,5.39,7.89,9.22,10.17
						c3.83,2.28,8.06,3.42,12.69,3.42c3.1,0,5.94-0.36,8.51-1.09c2.57-0.73,5.05-1.87,7.46-3.42c2.41-1.55,4.62-3.22,6.65-4.99
						c2.03-1.77,4.66-4.18,7.89-7.22c1.33-1.14,3.23-1.71,5.7-1.71c2.66,0,4.82,0.73,6.46,2.19c1.65,1.46,2.47,3.52,2.47,6.18
						c0,2.34-0.92,5.08-2.76,8.22c-1.84,3.14-4.61,6.15-8.32,9.03c-3.71,2.88-8.36,5.28-13.97,7.18c-5.61,1.9-12.06,2.85-19.34,2.85
						c-16.67,0-29.63-4.75-38.88-14.26c-9.25-9.51-13.88-22.4-13.88-38.69c0-7.67,1.14-14.78,3.42-21.34s5.61-12.18,9.98-16.87
						c4.37-4.69,9.76-8.29,16.16-10.79c6.4-2.5,13.5-3.76,21.29-3.76c10.14,0,18.84,2.14,26.09,6.42
						c7.26,4.28,12.69,9.81,16.3,16.59c3.61,6.78,5.42,13.69,5.42,20.72c0,6.53-1.87,10.76-5.61,12.69
						C-2127.49,1685.41-2132.75,1686.37-2139.53,1686.37z M-2190.29,1671.64h47.05c-0.63-8.87-3.03-15.51-7.18-19.91
						c-4.15-4.4-9.62-6.61-16.4-6.61c-6.46,0-11.77,2.23-15.92,6.7C-2186.88,1656.29-2189.4,1662.89-2190.29,1671.64z"/>
					<path class="st2" d="M-2164.05,1733.76c-16.87,0-30.19-4.9-39.59-14.56c-9.4-9.65-14.16-22.9-14.16-39.38
						c0-7.74,1.17-15.03,3.48-21.67c2.32-6.66,5.75-12.45,10.19-17.23c4.45-4.78,10.02-8.49,16.53-11.04
						c6.49-2.54,13.77-3.82,21.66-3.82c10.27,0,19.22,2.21,26.6,6.55c7.38,4.35,12.99,10.07,16.68,16.98
						c3.67,6.9,5.54,14.03,5.54,21.19c0,6.9-2.07,11.47-6.15,13.58c-3.86,2-9.33,3.01-16.24,3.01h-49.74
						c0.18,5.3,1.33,10.05,3.43,14.13c2.21,4.31,5.19,7.59,8.84,9.77c3.66,2.18,7.76,3.28,12.18,3.28c3,0,5.77-0.35,8.23-1.05
						c2.46-0.7,4.88-1.81,7.19-3.3c2.35-1.51,4.55-3.16,6.54-4.9c2-1.75,4.65-4.17,7.86-7.2c1.55-1.33,3.68-1.98,6.39-1.98
						c2.9,0,5.3,0.82,7.13,2.44c1.86,1.65,2.81,3.98,2.81,6.93c0,2.51-0.97,5.45-2.89,8.73c-1.9,3.23-4.78,6.37-8.57,9.31
						c-3.78,2.94-8.58,5.41-14.27,7.33C-2150.07,1732.78-2156.69,1733.76-2164.05,1733.76z M-2165.96,1628.06
						c-7.63,0-14.67,1.24-20.93,3.69c-6.23,2.44-11.54,5.98-15.79,10.54c-4.26,4.57-7.54,10.12-9.77,16.52
						c-2.23,6.42-3.37,13.49-3.37,21.01c0,15.94,4.57,28.72,13.59,37.99c9.01,9.26,21.85,13.96,38.16,13.96
						c7.15,0,13.54-0.94,19.02-2.8c5.48-1.86,10.08-4.22,13.68-7.02c3.59-2.79,6.3-5.73,8.07-8.75c1.74-2.97,2.62-5.56,2.62-7.72
						c0-2.38-0.7-4.16-2.13-5.43c-1.47-1.3-3.37-1.94-5.8-1.94c-2.21,0-3.91,0.5-5.05,1.47c-3.2,3.01-5.86,5.45-7.88,7.22
						c-2.06,1.8-4.34,3.51-6.77,5.08c-2.48,1.6-5.08,2.79-7.73,3.54c-2.64,0.75-5.59,1.13-8.78,1.13c-4.79,0-9.23-1.2-13.2-3.56
						c-3.98-2.37-7.21-5.93-9.6-10.57c-2.37-4.62-3.61-10.01-3.68-16.04l-0.01-1.01h51.77c6.59,0,11.74-0.94,15.32-2.79
						c3.36-1.74,5.07-5.71,5.07-11.8c0-6.83-1.78-13.65-5.3-20.25c-3.51-6.58-8.87-12.03-15.93-16.2
						C-2147.44,1630.17-2156.05,1628.06-2165.96,1628.06z M-2142.16,1672.64h-49.23l0.11-1.1c0.91-8.93,3.54-15.79,7.82-20.4
						c4.33-4.66,9.93-7.02,16.65-7.02c7.03,0,12.8,2.33,17.12,6.92c4.29,4.56,6.8,11.46,7.45,20.53L-2142.16,1672.64z
						 M-2189.17,1670.64h44.85c-0.73-8.06-3.02-14.19-6.82-18.23c-3.94-4.17-9.21-6.29-15.67-6.29c-6.14,0-11.25,2.15-15.19,6.38
						C-2185.81,1656.6-2188.22,1662.69-2189.17,1670.64z"/>
				</g>
				<g>
					<path class="st2" d="M-2009.02,1605.57l54.28,82.13v-82.89c0-5.38,1.16-9.42,3.47-12.12c2.31-2.69,5.43-4.04,9.36-4.04
						c4.05,0,7.26,1.35,9.6,4.04c2.34,2.69,3.52,6.73,3.52,12.12v109.6c0,12.23-5.07,18.35-15.21,18.35c-2.54,0-4.82-0.37-6.84-1.09
						c-2.03-0.73-3.93-1.88-5.7-3.47c-1.77-1.58-3.42-3.44-4.94-5.56c-1.52-2.12-3.04-4.29-4.56-6.51l-52.95-81.18v81.65
						c0,5.32-1.24,9.35-3.71,12.07c-2.47,2.72-5.64,4.09-9.51,4.09c-3.99,0-7.19-1.38-9.6-4.13c-2.41-2.76-3.61-6.76-3.61-12.02
						v-107.51c0-4.56,0.51-8.14,1.52-10.74c1.2-2.85,3.2-5.18,5.99-6.99c2.79-1.81,5.8-2.71,9.03-2.71c2.53,0,4.71,0.41,6.51,1.24
						c1.81,0.82,3.39,1.93,4.75,3.33c1.36,1.39,2.76,3.2,4.18,5.42C-2012.01,1600.85-2010.54,1603.17-2009.02,1605.57z"/>
					<path class="st2" d="M-1944,1733.76c-2.64,0-5.05-0.39-7.18-1.15c-2.14-0.77-4.17-2-6.03-3.67c-1.82-1.62-3.53-3.55-5.09-5.72
						c-1.52-2.12-3.06-4.32-4.57-6.53l-51.12-78.38v78.29c0,5.56-1.33,9.84-3.97,12.74c-2.66,2.93-6.11,4.42-10.25,4.42
						c-4.28,0-7.76-1.51-10.35-4.48c-2.56-2.93-3.86-7.2-3.86-12.68v-107.51c0-4.67,0.53-8.4,1.59-11.1
						c1.29-3.05,3.43-5.55,6.38-7.46c2.94-1.9,6.16-2.87,9.57-2.87c2.67,0,5,0.45,6.93,1.33c1.91,0.87,3.61,2.06,5.05,3.54
						c1.41,1.44,2.85,3.31,4.31,5.58c1.43,2.22,2.9,4.53,4.42,6.94l52.44,79.34v-79.56c0-5.61,1.25-9.9,3.71-12.77
						c2.5-2.91,5.91-4.39,10.12-4.39c4.34,0,7.82,1.47,10.35,4.38c2.5,2.87,3.76,7.17,3.76,12.78v109.6
						C-1927.79,1727.25-1933.25,1733.76-1944,1733.76z M-2020,1631.58l54.78,84c1.49,2.18,3.02,4.36,4.54,6.47
						c1.47,2.05,3.08,3.87,4.79,5.4c1.67,1.49,3.48,2.59,5.38,3.27c1.91,0.69,4.1,1.03,6.51,1.03c9.56,0,14.21-5.67,14.21-17.35
						v-109.6c0-5.11-1.1-8.97-3.27-11.46c-2.17-2.49-5.06-3.7-8.85-3.7c-3.66,0-6.47,1.21-8.6,3.69c-2.14,2.49-3.23,6.35-3.23,11.47
						v86.22l-56.12-84.92c-1.52-2.41-2.99-4.72-4.42-6.93c-1.38-2.15-2.75-3.92-4.06-5.26c-1.27-1.3-2.77-2.35-4.45-3.11
						c-1.67-0.76-3.72-1.15-6.1-1.15c-3.02,0-5.88,0.86-8.49,2.55c-2.6,1.69-4.49,3.89-5.61,6.54c-0.95,2.44-1.44,5.93-1.44,10.35
						v107.51c0,4.99,1.13,8.81,3.37,11.37c2.23,2.55,5.12,3.79,8.85,3.79c3.6,0,6.47-1.23,8.76-3.76c2.29-2.52,3.45-6.36,3.45-11.4
						V1631.58z"/>
				</g>
				<g>
					<path class="st2" d="M-1802.56,1680c0,7.73-1.2,14.86-3.61,21.39c-2.41,6.53-5.89,12.14-10.46,16.83
						c-4.56,4.69-10.01,8.29-16.35,10.79c-6.34,2.5-13.47,3.75-21.39,3.75c-7.86,0-14.92-1.27-21.2-3.8
						c-6.27-2.53-11.71-6.16-16.3-10.88c-4.6-4.72-8.08-10.3-10.46-16.73c-2.38-6.43-3.56-13.55-3.56-21.34
						c0-7.86,1.2-15.05,3.61-21.58c2.41-6.53,5.86-12.1,10.36-16.73c4.5-4.62,9.95-8.19,16.35-10.69c6.4-2.5,13.47-3.75,21.2-3.75
						c7.86,0,14.99,1.27,21.39,3.8c6.4,2.54,11.88,6.15,16.44,10.84c4.56,4.69,8.03,10.27,10.41,16.73
						C-1803.75,1665.08-1802.56,1672.21-1802.56,1680z M-1828.6,1680c0-10.58-2.33-18.82-6.99-24.71
						c-4.66-5.89-10.92-8.84-18.77-8.84c-5.07,0-9.54,1.32-13.4,3.94c-3.87,2.63-6.84,6.51-8.94,11.64
						c-2.09,5.13-3.14,11.12-3.14,17.97c0,6.78,1.03,12.71,3.09,17.78c2.06,5.07,5,8.95,8.84,11.64c3.83,2.69,8.35,4.04,13.55,4.04
						c7.86,0,14.12-2.96,18.77-8.89C-1830.93,1698.65-1828.6,1690.46-1828.6,1680z"/>
					<path class="st2" d="M-1854.36,1733.76c-7.95,0-15.21-1.3-21.57-3.88c-6.38-2.57-11.97-6.31-16.64-11.11
						c-4.67-4.8-8.26-10.54-10.68-17.08c-2.41-6.51-3.63-13.81-3.63-21.69c0-7.94,1.24-15.32,3.67-21.92
						c2.45-6.63,6.01-12.37,10.58-17.08c4.58-4.71,10.2-8.38,16.7-10.93c6.49-2.54,13.74-3.82,21.56-3.82
						c7.94,0,15.26,1.3,21.76,3.87c6.5,2.58,12.15,6.3,16.79,11.07c4.64,4.77,8.22,10.52,10.63,17.08
						c2.41,6.54,3.63,13.86,3.63,21.73c0,7.81-1.24,15.12-3.67,21.73c-2.45,6.63-6.04,12.41-10.68,17.18
						c-4.64,4.77-10.26,8.48-16.7,11.02C-1839.04,1732.47-1846.36,1733.76-1854.36,1733.76z M-1854.36,1628.25
						c-7.57,0-14.58,1.24-20.83,3.69c-6.24,2.44-11.62,5.96-16,10.46c-4.38,4.5-7.79,10.01-10.14,16.38
						c-2.36,6.38-3.55,13.53-3.55,21.23c0,7.64,1.18,14.7,3.5,20.99c2.32,6.27,5.76,11.78,10.23,16.38
						c4.47,4.6,9.84,8.18,15.96,10.65c6.13,2.47,13.13,3.73,20.82,3.73c7.76,0,14.83-1.24,21.02-3.68c6.18-2.44,11.56-5.99,16-10.56
						c4.44-4.57,7.89-10.11,10.23-16.47c2.36-6.39,3.55-13.46,3.55-21.04c0-7.64-1.18-14.72-3.5-21.04
						c-2.32-6.3-5.74-11.81-10.19-16.38c-4.44-4.57-9.86-8.13-16.1-10.6C-1839.6,1629.5-1846.67,1628.25-1854.36,1628.25z
						 M-1854.36,1714.46c-5.38,0-10.13-1.42-14.12-4.22c-3.98-2.79-7.07-6.86-9.19-12.09c-2.1-5.16-3.16-11.27-3.16-18.15
						c0-6.94,1.08-13.11,3.21-18.34c2.16-5.29,5.29-9.36,9.3-12.09c4.02-2.73,8.72-4.12,13.97-4.12c8.14,0,14.72,3.1,19.56,9.22
						c4.78,6.05,7.2,14.57,7.2,25.33c0,10.64-2.42,19.11-7.2,25.19C-1839.64,1711.34-1846.22,1714.46-1854.36,1714.46z
						 M-1854.36,1647.45c-4.84,0-9.16,1.27-12.84,3.77c-3.68,2.51-6.57,6.27-8.57,11.19c-2.03,4.99-3.06,10.91-3.06,17.59
						c0,6.62,1.01,12.47,3.02,17.4c1.97,4.87,4.83,8.63,8.49,11.2c3.64,2.56,8.01,3.86,12.97,3.86c7.5,0,13.55-2.86,17.99-8.51
						c4.49-5.72,6.77-13.78,6.77-23.95c0-10.3-2.28-18.41-6.77-24.09C-1840.81,1650.29-1846.86,1647.45-1854.36,1647.45z"/>
				</g>
				<g>
					<path class="st2" d="M-1780.7,1629.53h2.85v-15.59c0-4.18,0.11-7.46,0.33-9.84c0.22-2.38,0.84-4.42,1.85-6.13
						c1.01-1.77,2.47-3.22,4.37-4.33c1.9-1.11,4.02-1.66,6.37-1.66c3.29,0,6.27,1.24,8.94,3.71c1.77,1.65,2.9,3.66,3.37,6.04
						c0.48,2.38,0.71,5.75,0.71,10.12v17.68h9.51c3.67,0,6.48,0.87,8.41,2.61c1.93,1.74,2.9,3.98,2.9,6.7
						c0,3.49-1.38,5.93-4.13,7.32c-2.76,1.39-6.7,2.09-11.83,2.09h-4.85v47.72c0,4.06,0.14,7.18,0.43,9.36
						c0.29,2.19,1.05,3.96,2.28,5.32c1.24,1.36,3.25,2.04,6.04,2.04c1.52,0,3.58-0.27,6.18-0.81c2.6-0.54,4.62-0.81,6.08-0.81
						c2.09,0,3.98,0.84,5.66,2.52c1.68,1.68,2.52,3.75,2.52,6.23c0,4.18-2.28,7.38-6.84,9.6c-4.56,2.22-11.12,3.33-19.68,3.33
						c-8.11,0-14.26-1.36-18.44-4.09c-4.18-2.72-6.92-6.5-8.22-11.31c-1.3-4.82-1.95-11.25-1.95-19.3v-49.81h-3.42
						c-3.74,0-6.59-0.89-8.56-2.66c-1.96-1.77-2.95-4.02-2.95-6.75c0-2.72,1.03-4.96,3.09-6.7
						C-1787.62,1630.4-1784.63,1629.53-1780.7,1629.53z"/>
					<path class="st2" d="M-1749.23,1733.76c-8.27,0-14.66-1.43-18.99-4.25c-4.38-2.85-7.28-6.85-8.64-11.89
						c-1.32-4.88-1.98-11.45-1.98-19.56v-48.81h-2.42c-3.98,0-7.08-0.98-9.23-2.92c-2.17-1.96-3.28-4.48-3.28-7.49
						c0-3.02,1.16-5.53,3.44-7.46c2.24-1.89,5.48-2.85,9.63-2.85h1.85v-14.59c0-4.2,0.11-7.55,0.34-9.93
						c0.23-2.51,0.9-4.71,1.99-6.55c1.09-1.91,2.68-3.48,4.73-4.68c2.05-1.19,4.36-1.8,6.87-1.8c3.54,0,6.78,1.34,9.62,3.97
						c1.92,1.79,3.16,4,3.67,6.57c0.49,2.43,0.73,5.9,0.73,10.32v16.68h8.51c3.91,0,6.97,0.97,9.08,2.87
						c2.14,1.93,3.23,4.44,3.23,7.44c0,3.88-1.58,6.64-4.68,8.21c-2.88,1.46-7.02,2.2-12.29,2.2h-3.85v46.72
						c0,3.99,0.14,7.1,0.42,9.23c0.26,1.97,0.94,3.58,2.03,4.78c1.03,1.14,2.81,1.71,5.3,1.71c1.45,0,3.46-0.26,5.98-0.79
						c2.69-0.56,4.75-0.83,6.29-0.83c2.36,0,4.5,0.95,6.36,2.81c1.87,1.87,2.81,4.2,2.81,6.93c0,4.58-2.49,8.11-7.41,10.5
						C-1733.8,1732.6-1740.57,1733.76-1749.23,1733.76z M-1780.7,1630.53c-3.67,0-6.47,0.8-8.34,2.38c-1.84,1.56-2.74,3.5-2.74,5.94
						c0,2.45,0.86,4.42,2.62,6.01c1.77,1.59,4.42,2.4,7.89,2.4h4.42v50.81c0,7.93,0.64,14.33,1.91,19.04
						c1.23,4.55,3.85,8.16,7.8,10.73c4,2.6,10.02,3.92,17.9,3.92c8.36,0,14.83-1.08,19.24-3.23c4.23-2.05,6.28-4.9,6.28-8.7
						c0-2.21-0.73-4.02-2.23-5.52c-1.5-1.5-3.12-2.23-4.95-2.23c-1.38,0-3.36,0.26-5.88,0.79c-2.65,0.55-4.8,0.83-6.38,0.83
						c-3.07,0-5.35-0.8-6.78-2.37c-1.37-1.51-2.22-3.48-2.53-5.87c-0.29-2.22-0.44-5.41-0.44-9.49v-48.72h5.85
						c4.95,0,8.78-0.67,11.38-1.98c2.41-1.22,3.59-3.32,3.59-6.43c0-2.45-0.84-4.4-2.57-5.96c-1.74-1.56-4.34-2.36-7.74-2.36h-10.51
						v-18.68c0-4.29-0.23-7.63-0.69-9.93c-0.44-2.18-1.44-3.98-3.07-5.5c-2.49-2.31-5.19-3.44-8.25-3.44
						c-2.15,0-4.13,0.51-5.87,1.53c-1.74,1.01-3.09,2.35-4.01,3.96c-0.94,1.59-1.52,3.51-1.73,5.73c-0.22,2.33-0.33,5.6-0.33,9.75
						v16.59H-1780.7z"/>
				</g>
			</g>
			<g>
				<g>
					<path class="st2" d="M-1579.46,1612.8h-55.61v35.65h46.48c4.31,0,7.52,0.97,9.65,2.9c2.12,1.93,3.18,4.51,3.18,7.75
						c0,3.23-1.08,5.8-3.23,7.7c-2.16,1.9-5.36,2.85-9.6,2.85h-46.48v45.91c0,5.83-1.32,10.16-3.94,12.98
						c-2.63,2.82-6,4.23-10.12,4.23c-4.18,0-7.59-1.43-10.22-4.28c-2.63-2.85-3.94-7.16-3.94-12.93v-107.22
						c0-4.05,0.6-7.37,1.81-9.93c1.2-2.57,3.09-4.43,5.66-5.61c2.57-1.17,5.85-1.76,9.84-1.76h66.54c4.5,0,7.84,1,10.03,2.99
						c2.19,2,3.28,4.61,3.28,7.84c0,3.3-1.09,5.94-3.28,7.94C-1571.62,1611.8-1574.96,1612.8-1579.46,1612.8z"/>
					<path class="st2" d="M-1649.14,1733.76c-4.45,0-8.14-1.55-10.95-4.6c-2.79-3.03-4.21-7.61-4.21-13.61v-107.22
						c0-4.19,0.64-7.67,1.9-10.36c1.3-2.77,3.37-4.82,6.15-6.09c2.69-1.23,6.14-1.85,10.25-1.85h66.54c4.74,0,8.34,1.1,10.7,3.26
						c2.39,2.18,3.61,5.07,3.61,8.58c0,3.57-1.21,6.49-3.61,8.68c-2.37,2.16-5.97,3.26-10.7,3.26h-54.61v33.65h45.48
						c4.54,0,8.02,1.06,10.32,3.16c2.33,2.12,3.51,4.98,3.51,8.49c0,3.51-1.2,6.36-3.57,8.45c-2.33,2.06-5.79,3.1-10.26,3.1h-45.48
						v44.91c0,6.06-1.42,10.66-4.21,13.66C-1641.1,1732.23-1644.75,1733.76-1649.14,1733.76z M-1646,1592.03
						c-3.83,0-7,0.56-9.42,1.67c-2.37,1.08-4.06,2.76-5.17,5.12c-1.14,2.42-1.71,5.62-1.71,9.51v107.22c0,5.48,1.24,9.6,3.68,12.25
						c2.45,2.66,5.56,3.96,9.48,3.96c3.86,0,6.94-1.28,9.39-3.91c2.44-2.62,3.68-6.75,3.68-12.29v-46.91h47.48
						c3.97,0,6.98-0.88,8.94-2.6c1.95-1.72,2.89-3.99,2.89-6.95c0-2.96-0.94-5.26-2.86-7.01c-1.92-1.75-4.94-2.64-8.97-2.64h-47.48
						v-37.65h56.61c4.22,0,7.37-0.92,9.35-2.73c1.99-1.81,2.95-4.17,2.95-7.2c0-2.96-0.97-5.29-2.95-7.1
						c-1.99-1.81-5.13-2.73-9.35-2.73H-1646z"/>
				</g>
			</g>
			<g>
				<g>
					<path class="st2" d="M-1457.22,1680c0,7.73-1.2,14.86-3.61,21.39c-2.41,6.53-5.89,12.14-10.46,16.83
						c-4.56,4.69-10.01,8.29-16.35,10.79c-6.34,2.5-13.47,3.75-21.39,3.75c-7.86,0-14.92-1.27-21.2-3.8
						c-6.27-2.53-11.71-6.16-16.3-10.88c-4.6-4.72-8.08-10.3-10.46-16.73c-2.38-6.43-3.56-13.55-3.56-21.34
						c0-7.86,1.2-15.05,3.61-21.58c2.41-6.53,5.86-12.1,10.36-16.73c4.5-4.62,9.95-8.19,16.35-10.69c6.4-2.5,13.47-3.75,21.2-3.75
						c7.86,0,14.99,1.27,21.39,3.8c6.4,2.54,11.88,6.15,16.44,10.84c4.56,4.69,8.03,10.27,10.41,16.73
						C-1458.41,1665.08-1457.22,1672.21-1457.22,1680z M-1483.27,1680c0-10.58-2.33-18.82-6.99-24.71
						c-4.66-5.89-10.92-8.84-18.77-8.84c-5.07,0-9.54,1.32-13.4,3.94c-3.87,2.63-6.84,6.51-8.94,11.64
						c-2.09,5.13-3.14,11.12-3.14,17.97c0,6.78,1.03,12.71,3.09,17.78c2.06,5.07,5.01,8.95,8.84,11.64
						c3.83,2.69,8.35,4.04,13.55,4.04c7.86,0,14.12-2.96,18.77-8.89C-1485.6,1698.65-1483.27,1690.46-1483.27,1680z"/>
					<path class="st2" d="M-1509.03,1733.76c-7.95,0-15.21-1.3-21.57-3.88c-6.37-2.57-11.97-6.31-16.64-11.11
						c-4.67-4.8-8.26-10.54-10.68-17.08c-2.41-6.51-3.63-13.81-3.63-21.69c0-7.94,1.24-15.32,3.67-21.92
						c2.44-6.63,6-12.37,10.58-17.08c4.58-4.71,10.2-8.38,16.7-10.93c6.49-2.54,13.74-3.82,21.56-3.82c7.94,0,15.26,1.3,21.76,3.87
						c6.5,2.58,12.15,6.3,16.79,11.07c4.64,4.77,8.22,10.52,10.63,17.08c2.41,6.54,3.63,13.86,3.63,21.73
						c0,7.81-1.24,15.12-3.67,21.73c-2.45,6.63-6.04,12.41-10.68,17.18c-4.64,4.77-10.26,8.48-16.7,11.02
						C-1493.7,1732.47-1501.02,1733.76-1509.03,1733.76z M-1509.03,1628.25c-7.57,0-14.58,1.24-20.83,3.69
						c-6.24,2.44-11.62,5.96-16,10.46c-4.38,4.5-7.79,10.01-10.14,16.38c-2.36,6.38-3.55,13.53-3.55,21.23
						c0,7.64,1.18,14.7,3.5,20.99c2.32,6.27,5.76,11.78,10.23,16.38c4.48,4.6,9.85,8.18,15.96,10.65
						c6.13,2.47,13.13,3.73,20.82,3.73c7.76,0,14.83-1.24,21.02-3.68c6.18-2.44,11.56-5.99,16-10.56
						c4.44-4.57,7.89-10.11,10.23-16.47c2.36-6.38,3.55-13.46,3.55-21.04c0-7.64-1.18-14.72-3.5-21.04
						c-2.32-6.3-5.74-11.81-10.19-16.38c-4.44-4.57-9.86-8.13-16.1-10.6C-1494.27,1629.5-1501.34,1628.25-1509.03,1628.25z
						 M-1509.03,1714.46c-5.38,0-10.13-1.42-14.12-4.22c-3.98-2.79-7.07-6.86-9.19-12.09c-2.1-5.16-3.16-11.27-3.16-18.15
						c0-6.94,1.08-13.11,3.21-18.34c2.16-5.29,5.29-9.36,9.3-12.09c4.02-2.73,8.72-4.12,13.97-4.12c8.14,0,14.72,3.1,19.56,9.22
						c4.78,6.05,7.2,14.57,7.2,25.33c0,10.64-2.42,19.11-7.2,25.19C-1494.3,1711.34-1500.88,1714.46-1509.03,1714.46z
						 M-1509.03,1647.45c-4.84,0-9.16,1.27-12.84,3.77c-3.68,2.5-6.57,6.27-8.57,11.19c-2.03,4.99-3.06,10.91-3.06,17.59
						c0,6.62,1.01,12.47,3.02,17.4c1.98,4.87,4.83,8.63,8.49,11.2c3.64,2.56,8.01,3.86,12.97,3.86c7.5,0,13.55-2.86,17.99-8.51
						c4.49-5.72,6.77-13.78,6.77-23.95c0-10.3-2.28-18.41-6.77-24.09C-1495.48,1650.29-1501.53,1647.45-1509.03,1647.45z"/>
				</g>
				<g>
					<path class="st2" d="M-1369.39,1718.12v-3.33c-3.11,3.93-6.37,7.22-9.79,9.89c-3.42,2.66-7.16,4.64-11.22,5.94
						c-4.06,1.3-8.68,1.95-13.88,1.95c-6.27,0-11.9-1.3-16.87-3.9c-4.98-2.6-8.83-6.18-11.55-10.74
						c-3.23-5.51-4.85-13.43-4.85-23.76v-51.42c0-5.2,1.17-9.08,3.52-11.64c2.34-2.57,5.45-3.85,9.32-3.85c3.93,0,7.1,1.3,9.51,3.9
						c2.41,2.6,3.61,6.46,3.61,11.6v41.54c0,6.02,0.51,11.07,1.52,15.16c1.01,4.09,2.83,7.29,5.47,9.6
						c2.63,2.31,6.19,3.47,10.69,3.47c4.37,0,8.49-1.3,12.36-3.9c3.86-2.6,6.69-5.99,8.46-10.17c1.46-3.67,2.19-11.72,2.19-24.14
						v-31.56c0-5.13,1.2-9,3.61-11.6c2.41-2.6,5.54-3.9,9.41-3.9c3.86,0,6.97,1.28,9.32,3.85c2.34,2.57,3.52,6.45,3.52,11.64v75.19
						c0,4.94-1.13,8.65-3.37,11.12c-2.25,2.47-5.15,3.71-8.7,3.71c-3.55,0-6.48-1.28-8.79-3.85
						C-1368.24,1726.34-1369.39,1722.75-1369.39,1718.12z"/>
					<path class="st2" d="M-1357.13,1733.76c-3.83,0-7.04-1.41-9.54-4.18c-2.47-2.74-3.73-6.6-3.73-11.46v-0.54
						c-2.61,3.05-5.36,5.69-8.18,7.89c-3.5,2.72-7.38,4.78-11.53,6.1c-4.14,1.33-8.91,2-14.18,2c-6.41,0-12.24-1.35-17.34-4.01
						c-5.12-2.67-9.14-6.41-11.94-11.12c-3.31-5.65-4.99-13.82-4.99-24.28v-51.42c0-5.43,1.27-9.58,3.78-12.32
						c2.53-2.77,5.91-4.17,10.05-4.17c4.2,0,7.64,1.42,10.24,4.22c2.57,2.78,3.88,6.91,3.88,12.28v41.54
						c0,5.91,0.5,10.93,1.49,14.92c0.96,3.87,2.69,6.93,5.15,9.09c2.43,2.14,5.8,3.22,10.03,3.22c4.15,0,8.12-1.25,11.8-3.73
						c3.68-2.48,6.41-5.75,8.1-9.73c1.39-3.52,2.11-11.52,2.11-23.75v-31.56c0-5.37,1.31-9.5,3.88-12.28
						c2.59-2.8,6.01-4.22,10.14-4.22c4.14,0,7.52,1.4,10.05,4.17c2.51,2.75,3.78,6.89,3.78,12.32v75.19c0,5.18-1.22,9.14-3.63,11.79
						C-1350.13,1732.4-1353.3,1733.76-1357.13,1733.76z M-1368.39,1711.91v6.21c0,4.35,1.08,7.75,3.21,10.12
						c2.13,2.37,4.77,3.52,8.05,3.52c3.28,0,5.89-1.11,7.96-3.38c2.07-2.27,3.11-5.79,3.11-10.45v-75.19c0-4.91-1.1-8.6-3.26-10.97
						c-2.17-2.37-4.97-3.52-8.58-3.52c-3.61,0-6.45,1.17-8.68,3.58c-2.22,2.39-3.35,6.07-3.35,10.92v31.56
						c0,12.67-0.74,20.68-2.26,24.51c-1.85,4.37-4.82,7.94-8.83,10.63c-4.02,2.7-8.36,4.07-12.92,4.07c-4.73,0-8.55-1.25-11.35-3.72
						c-2.77-2.44-4.72-5.84-5.78-10.11c-1.03-4.14-1.55-9.33-1.55-15.4v-41.54c0-4.85-1.13-8.52-3.35-10.92
						c-2.23-2.41-5.1-3.58-8.77-3.58c-3.61,0-6.41,1.15-8.58,3.52c-2.16,2.36-3.26,6.05-3.26,10.97v51.42
						c0,10.1,1.58,17.92,4.71,23.26c2.61,4.37,6.36,7.86,11.15,10.36c4.81,2.51,10.33,3.78,16.41,3.78c5.07,0,9.63-0.64,13.57-1.9
						c3.92-1.26,7.59-3.2,10.91-5.78c3.34-2.6,6.58-5.87,9.62-9.72L-1368.39,1711.91z"/>
				</g>
				<g>
					<path class="st2" d="M-1295.63,1641.6v3.14c4.56-6.02,9.55-10.44,14.97-13.26c5.42-2.82,11.64-4.23,18.68-4.23
						c6.84,0,12.96,1.49,18.35,4.47c5.39,2.98,9.41,7.19,12.07,12.64c1.71,3.17,2.82,6.59,3.33,10.27
						c0.51,3.68,0.76,8.36,0.76,14.07v48.29c0,5.2-1.19,9.12-3.56,11.79c-2.38,2.66-5.47,3.99-9.27,3.99c-3.87,0-7-1.36-9.41-4.09
						c-2.41-2.72-3.61-6.62-3.61-11.69v-43.25c0-8.55-1.19-15.1-3.56-19.63c-2.38-4.53-7.11-6.8-14.21-6.8
						c-4.63,0-8.84,1.38-12.64,4.13c-3.8,2.76-6.59,6.54-8.36,11.36c-1.27,3.87-1.9,11.09-1.9,21.67v32.51
						c0,5.26-1.22,9.21-3.66,11.83c-2.44,2.63-5.59,3.94-9.46,3.94c-3.74,0-6.81-1.36-9.22-4.09c-2.41-2.72-3.61-6.62-3.61-11.69
						v-75c0-4.94,1.08-8.63,3.23-11.07c2.15-2.44,5.1-3.66,8.84-3.66c2.28,0,4.34,0.54,6.18,1.62c1.84,1.08,3.31,2.69,4.42,4.85
						C-1296.18,1635.87-1295.63,1638.5-1295.63,1641.6z"/>
					<path class="st2" d="M-1240.31,1733.76c-4.15,0-7.56-1.49-10.16-4.42c-2.56-2.9-3.86-7.05-3.86-12.35v-43.25
						c0-8.35-1.16-14.8-3.45-19.16c-2.21-4.21-6.57-6.26-13.32-6.26c-4.39,0-8.45,1.33-12.06,3.94c-3.62,2.63-6.32,6.29-8.01,10.9
						c-1.22,3.71-1.84,10.9-1.84,21.33v32.51c0,5.5-1.32,9.71-3.93,12.51c-2.63,2.83-6.06,4.26-10.19,4.26
						c-4.02,0-7.37-1.49-9.97-4.42c-2.56-2.9-3.86-7.05-3.86-12.35v-75c0-5.17,1.17-9.12,3.48-11.74c2.34-2.65,5.57-4,9.59-4
						c2.45,0,4.7,0.59,6.68,1.75c2,1.17,3.61,2.94,4.8,5.25c1.18,2.29,1.77,5.1,1.77,8.35v0.27c4.15-4.98,8.69-8.77,13.51-11.28
						c5.54-2.88,11.98-4.34,19.14-4.34c6.98,0,13.32,1.54,18.83,4.59c5.55,3.07,9.75,7.47,12.49,13.08
						c1.74,3.22,2.9,6.79,3.42,10.57c0.51,3.71,0.77,8.49,0.77,14.21v48.29c0,5.42-1.29,9.61-3.82,12.45
						C-1232.85,1732.3-1236.22,1733.76-1240.31,1733.76z M-1271.1,1646.3c7.46,0,12.54,2.47,15.1,7.33
						c2.44,4.66,3.68,11.42,3.68,20.09v43.25c0,4.8,1.13,8.51,3.36,11.03c2.23,2.52,5.06,3.75,8.66,3.75c3.54,0,6.32-1.2,8.52-3.66
						c2.2-2.46,3.31-6.2,3.31-11.12v-48.29c0-5.63-0.25-10.32-0.75-13.93c-0.49-3.54-1.57-6.88-3.22-9.93
						c-2.58-5.27-6.5-9.38-11.68-12.24c-5.21-2.88-11.22-4.34-17.86-4.34c-6.84,0-12.97,1.38-18.22,4.12
						c-5.26,2.74-10.18,7.1-14.64,12.98l-1.8,2.37v-6.11c0-2.93-0.52-5.43-1.55-7.43c-1.02-1.97-2.37-3.47-4.04-4.44
						c-1.68-0.98-3.58-1.48-5.67-1.48c-3.47,0-6.12,1.09-8.09,3.32c-1.98,2.24-2.98,5.74-2.98,10.41v75c0,4.8,1.13,8.51,3.36,11.03
						c2.23,2.52,5,3.75,8.47,3.75c3.61,0,6.46-1.19,8.73-3.62c2.25-2.43,3.39-6.18,3.39-11.15v-32.51c0-10.79,0.64-17.98,1.95-21.98
						c1.85-5.02,4.78-8.99,8.73-11.86C-1280.38,1647.76-1275.92,1646.3-1271.1,1646.3z"/>
				</g>
				<g>
					<path class="st2" d="M-1130.52,1717.93v-2.57c-3.49,3.99-6.92,7.24-10.31,9.74c-3.39,2.5-7.07,4.41-11.03,5.7
						c-3.96,1.3-8.29,1.95-12.98,1.95c-6.21,0-11.96-1.32-17.25-3.94c-5.29-2.63-9.87-6.38-13.74-11.26
						c-3.87-4.88-6.8-10.61-8.79-17.21c-2-6.59-2.99-13.72-2.99-21.39c0-16.22,3.96-28.86,11.88-37.93
						c7.92-9.06,18.35-13.59,31.27-13.59c7.48,0,13.78,1.28,18.92,3.85s10.14,6.51,15.02,11.83v-38.31c0-5.32,1.06-9.35,3.18-12.07
						c2.12-2.72,5.15-4.09,9.08-4.09c3.93,0,6.95,1.25,9.08,3.75c2.12,2.5,3.18,6.2,3.18,11.07v114.45c0,4.94-1.14,8.65-3.42,11.12
						c-2.28,2.47-5.23,3.71-8.84,3.71c-3.55,0-6.48-1.28-8.79-3.85C-1129.36,1726.34-1130.52,1722.68-1130.52,1717.93z
						 M-1181.56,1679.81c0,7.03,1.09,13.02,3.28,17.97c2.19,4.94,5.18,8.67,8.98,11.17c3.8,2.5,7.95,3.75,12.45,3.75
						c4.56,0,8.73-1.19,12.5-3.56c3.77-2.38,6.78-6.02,9.03-10.93c2.25-4.91,3.37-11.04,3.37-18.39c0-6.91-1.13-12.85-3.37-17.82
						c-2.25-4.97-5.29-8.78-9.12-11.41c-3.83-2.63-8.03-3.94-12.6-3.94c-4.75,0-9,1.35-12.74,4.04c-3.74,2.69-6.64,6.56-8.7,11.6
						C-1180.53,1667.31-1181.56,1673.16-1181.56,1679.81z"/>
					<path class="st2" d="M-1118.26,1733.76c-3.83,0-7.04-1.41-9.54-4.18c-2.47-2.73-3.72-6.64-3.73-11.61
						c-2.93,3.16-5.86,5.83-8.72,7.94c-3.46,2.56-7.27,4.52-11.31,5.85c-4.05,1.33-8.52,2-13.29,2c-6.34,0-12.29-1.36-17.7-4.05
						c-5.4-2.68-10.14-6.56-14.07-11.54c-3.93-4.96-6.94-10.86-8.97-17.54c-2.02-6.65-3.04-13.95-3.04-21.68
						c0-16.4,4.08-29.38,12.13-38.58c8.08-9.25,18.86-13.93,32.03-13.93c7.6,0,14.11,1.33,19.36,3.96
						c4.61,2.3,9.17,5.74,13.57,10.22v-35.8c0-5.53,1.14-9.8,3.4-12.69c2.31-2.97,5.63-4.47,9.87-4.47c4.22,0,7.53,1.38,9.84,4.11
						c2.27,2.68,3.42,6.62,3.42,11.72v114.45c0,5.18-1.24,9.15-3.69,11.8C-1111.15,1732.4-1114.37,1733.76-1118.26,1733.76z
						 M-1129.52,1712.7v5.23c0,4.48,1.08,7.94,3.21,10.31c2.13,2.37,4.77,3.52,8.05,3.52c3.35,0,6-1.11,8.11-3.39
						c2.09-2.27,3.16-5.78,3.16-10.44v-114.45c0-4.61-0.99-8.12-2.95-10.43c-1.94-2.29-4.66-3.4-8.31-3.4
						c-3.64,0-6.35,1.21-8.29,3.7c-1.97,2.53-2.97,6.39-2.97,11.46v40.88l-1.74-1.89c-4.77-5.21-9.73-9.12-14.73-11.62
						c-4.97-2.48-11.18-3.74-18.47-3.74c-12.57,0-22.83,4.46-30.52,13.25c-7.72,8.83-11.64,21.37-11.64,37.27
						c0,7.53,0.99,14.63,2.95,21.1c1.95,6.44,4.85,12.12,8.62,16.87c3.76,4.74,8.26,8.44,13.4,10.99
						c5.13,2.55,10.78,3.84,16.81,3.84c4.56,0,8.82-0.64,12.66-1.9c3.84-1.26,7.46-3.13,10.74-5.56c3.32-2.45,6.73-5.68,10.15-9.6
						L-1129.52,1712.7z M-1156.85,1713.7c-4.68,0-9.05-1.32-13-3.92c-3.95-2.6-7.09-6.5-9.35-11.6c-2.23-5.05-3.36-11.23-3.36-18.37
						c0-6.75,1.06-12.78,3.16-17.92c2.12-5.19,5.16-9.24,9.04-12.03c3.9-2.8,8.38-4.23,13.32-4.23c4.75,0,9.17,1.39,13.16,4.12
						c3.97,2.72,7.15,6.7,9.47,11.82c2.3,5.08,3.46,11.22,3.46,18.24c0,7.46-1.17,13.79-3.47,18.81c-2.32,5.07-5.49,8.89-9.41,11.36
						C-1147.73,1712.45-1152.11,1713.7-1156.85,1713.7z M-1157.04,1647.64c-4.52,0-8.61,1.3-12.15,3.85
						c-3.57,2.57-6.38,6.33-8.36,11.16c-2,4.89-3.02,10.67-3.02,17.16c0,6.86,1.07,12.77,3.19,17.56c2.1,4.74,5,8.35,8.62,10.74
						c3.62,2.38,7.62,3.59,11.9,3.59c4.35,0,8.38-1.15,11.97-3.41c3.59-2.26,6.5-5.79,8.65-10.5c2.18-4.76,3.28-10.8,3.28-17.98
						c0-6.73-1.11-12.59-3.29-17.41c-2.16-4.78-5.12-8.48-8.78-10.99C-1148.66,1648.91-1152.7,1647.64-1157.04,1647.64z"/>
				</g>
			</g>
		</g>
		<g>
			<g>
				<path class="st3" d="M-2843.68,1922.94l-15.16-59.74h8.15l7.09,30.23c1.77,7.45,3.37,14.89,4.43,20.65h0.18
					c0.98-5.94,2.84-13.03,4.88-20.74l7.98-30.14h8.07l7.27,30.31c1.68,7.09,3.28,14.18,4.17,20.48h0.18
					c1.24-6.56,2.92-13.21,4.79-20.65l7.89-30.14h7.89l-16.93,59.74h-8.07l-7.53-31.11c-1.86-7.62-3.1-13.47-3.9-19.5h-0.18
					c-1.06,5.94-2.39,11.79-4.61,19.5l-8.51,31.11H-2843.68z"/>
			</g>
			<g>
				<path class="st3" d="M-2777.29,1902.91c0.18,10.55,6.91,14.89,14.71,14.89c5.58,0,8.95-0.98,11.88-2.22l1.33,5.58
					c-2.75,1.24-7.45,2.66-14.27,2.66c-13.21,0-21.1-8.69-21.1-21.63s7.62-23.13,20.12-23.13c14,0,17.73,12.32,17.73,20.21
					c0,1.59-0.18,2.84-0.27,3.63H-2777.29z M-2754.42,1897.33c0.09-4.96-2.04-12.68-10.81-12.68c-7.89,0-11.35,7.27-11.97,12.68
					H-2754.42z"/>
				<path class="st3" d="M-2731.46,1862.22l-1.51,21.27h-4.79l-1.42-21.27H-2731.46z"/>
			</g>
			<g>
				<path class="st3" d="M-2720.56,1893.42c0-5.05-0.09-9.4-0.35-13.38h6.83l0.27,8.42h0.35c1.95-5.76,6.65-9.4,11.88-9.4
					c0.89,0,1.51,0.09,2.22,0.27v7.36c-0.8-0.18-1.6-0.27-2.66-0.27c-5.5,0-9.4,4.17-10.46,10.02c-0.18,1.06-0.35,2.3-0.35,3.63
					v22.87h-7.71V1893.42z"/>
			</g>
			<g>
				<path class="st3" d="M-2688.11,1902.91c0.18,10.55,6.91,14.89,14.71,14.89c5.58,0,8.95-0.98,11.88-2.22l1.33,5.58
					c-2.75,1.24-7.45,2.66-14.27,2.66c-13.21,0-21.1-8.69-21.1-21.63s7.62-23.13,20.12-23.13c14,0,17.73,12.32,17.73,20.21
					c0,1.59-0.18,2.84-0.27,3.63H-2688.11z M-2665.24,1897.33c0.09-4.96-2.04-12.68-10.81-12.68c-7.89,0-11.35,7.27-11.97,12.68
					H-2665.24z"/>
				<path class="st3" d="M-2630.32,1914.96c2.3,1.51,6.38,3.1,10.28,3.1c5.67,0,8.33-2.84,8.33-6.38c0-3.72-2.22-5.76-7.98-7.89
					c-7.71-2.75-11.35-7-11.35-12.14c0-6.91,5.58-12.59,14.8-12.59c4.34,0,8.15,1.24,10.55,2.66l-1.95,5.67
					c-1.68-1.06-4.79-2.48-8.78-2.48c-4.61,0-7.18,2.66-7.18,5.85c0,3.55,2.57,5.14,8.15,7.27c7.45,2.84,11.26,6.56,11.26,12.94
					c0,7.53-5.85,12.85-16.04,12.85c-4.7,0-9.04-1.15-12.05-2.93L-2630.32,1914.96z"/>
				<path class="st3" d="M-2555.33,1901.14c0,15.87-10.99,22.78-21.36,22.78c-11.61,0-20.56-8.51-20.56-22.07
					c0-14.36,9.4-22.78,21.27-22.78C-2563.66,1879.07-2555.33,1888.02-2555.33,1901.14z M-2589.36,1901.58
					c0,9.4,5.41,16.49,13.03,16.49c7.45,0,13.03-7,13.03-16.66c0-7.27-3.63-16.49-12.85-16.49
					C-2585.38,1884.92-2589.36,1893.42-2589.36,1901.58z"/>
			</g>
			<g>
				<path class="st3" d="M-2545.48,1893.42c0-5.05-0.09-9.4-0.35-13.38h6.83l0.27,8.42h0.35c1.95-5.76,6.65-9.4,11.88-9.4
					c0.89,0,1.51,0.09,2.22,0.27v7.36c-0.8-0.18-1.6-0.27-2.66-0.27c-5.5,0-9.4,4.17-10.46,10.02c-0.18,1.06-0.35,2.3-0.35,3.63
					v22.87h-7.71V1893.42z"/>
			</g>
			<g>
				<path class="st3" d="M-2516.14,1893.42c0-5.05-0.09-9.4-0.35-13.38h6.83l0.27,8.42h0.35c1.95-5.76,6.65-9.4,11.88-9.4
					c0.89,0,1.51,0.09,2.22,0.27v7.36c-0.8-0.18-1.6-0.27-2.66-0.27c-5.5,0-9.4,4.17-10.46,10.02c-0.18,1.06-0.35,2.3-0.35,3.63
					v22.87h-7.71V1893.42z"/>
			</g>
			<g>
				<path class="st3" d="M-2482.11,1880.04l9.4,25.35c0.98,2.84,2.04,6.21,2.75,8.78h0.18c0.8-2.57,1.68-5.85,2.75-8.95l8.51-25.17
					h8.24l-11.7,30.58c-5.58,14.71-9.4,22.25-14.71,26.86c-3.81,3.37-7.62,4.7-9.57,5.05l-1.95-6.56c1.95-0.62,4.52-1.86,6.83-3.81
					c2.13-1.68,4.79-4.7,6.56-8.69c0.35-0.8,0.62-1.42,0.62-1.86c0-0.44-0.18-1.06-0.53-2.04l-15.87-39.53H-2482.11z"/>
			</g>
			<g>
				<path class="st3" d="M-2451.7,1933.84c1.95-5.23,4.34-14.71,5.32-21.18l8.69-0.89c-2.04,7.53-5.94,17.37-8.42,21.54
					L-2451.7,1933.84z"/>
				<path class="st3" d="M-2400.11,1867.72v12.32h11.17v5.94h-11.17v23.13c0,5.32,1.51,8.33,5.85,8.33c2.04,0,3.55-0.27,4.52-0.53
					l0.35,5.85c-1.51,0.62-3.9,1.06-6.91,1.06c-3.63,0-6.56-1.15-8.42-3.28c-2.22-2.3-3.01-6.12-3.01-11.17v-23.4h-6.65v-5.94h6.65
					v-10.28L-2400.11,1867.72z"/>
				<path class="st3" d="M-2380.17,1860.01h7.8v26.77h0.18c1.24-2.22,3.19-4.17,5.58-5.5c2.3-1.33,5.05-2.22,7.98-2.22
					c5.76,0,14.98,3.55,14.98,18.35v25.53h-7.8v-24.64c0-6.91-2.57-12.76-9.93-12.76c-5.05,0-9.04,3.55-10.46,7.8
					c-0.44,1.06-0.53,2.22-0.53,3.72v25.88h-7.8V1860.01z"/>
				<path class="st3" d="M-2326.63,1902.91c0.18,10.55,6.91,14.89,14.71,14.89c5.58,0,8.95-0.98,11.88-2.22l1.33,5.58
					c-2.75,1.24-7.45,2.66-14.27,2.66c-13.21,0-21.1-8.69-21.1-21.63s7.62-23.13,20.12-23.13c14,0,17.73,12.32,17.73,20.21
					c0,1.59-0.18,2.84-0.27,3.63H-2326.63z M-2303.76,1897.33c0.09-4.96-2.04-12.68-10.81-12.68c-7.89,0-11.35,7.27-11.97,12.68
					H-2303.76z"/>
				<path class="st3" d="M-2267.77,1894.05c0-5.5-0.18-9.93-0.35-14.01h7l0.35,7.36h0.18c3.19-5.23,8.24-8.33,15.25-8.33
					c10.37,0,18.17,8.78,18.17,21.8c0,15.42-9.4,23.05-19.5,23.05c-5.67,0-10.64-2.48-13.21-6.74h-0.18v23.31h-7.71V1894.05z
					 M-2260.06,1905.48c0,1.15,0.18,2.22,0.35,3.19c1.42,5.41,6.12,9.13,11.7,9.13c8.24,0,13.03-6.74,13.03-16.58
					c0-8.6-4.52-15.95-12.76-15.95c-5.32,0-10.28,3.81-11.79,9.66c-0.27,0.97-0.53,2.13-0.53,3.19V1905.48z"/>
				<path class="st3" d="M-2193.58,1922.94l-0.62-5.41h-0.27c-2.39,3.37-7,6.38-13.12,6.38c-8.69,0-13.12-6.12-13.12-12.32
					c0-10.37,9.22-16.04,25.79-15.96v-0.89c0-3.55-0.98-9.93-9.75-9.93c-3.99,0-8.15,1.24-11.17,3.19l-1.77-5.14
					c3.55-2.3,8.69-3.81,14.09-3.81c13.12,0,16.31,8.95,16.31,17.55v16.04c0,3.72,0.18,7.36,0.71,10.28H-2193.58z M-2194.73,1901.05
					c-8.51-0.18-18.17,1.33-18.17,9.66c0,5.05,3.37,7.45,7.36,7.45c5.58,0,9.13-3.55,10.37-7.18c0.27-0.8,0.44-1.68,0.44-2.48
					V1901.05z"/>
				<path class="st3" d="M-2137.64,1880.04c-0.18,3.1-0.35,6.56-0.35,11.79v24.91c0,9.84-1.95,15.87-6.12,19.59
					c-4.17,3.9-10.19,5.14-15.6,5.14c-5.14,0-10.81-1.24-14.27-3.55l1.95-5.94c2.84,1.77,7.27,3.37,12.59,3.37
					c7.98,0,13.83-4.17,13.83-14.98v-4.79h-0.18c-2.39,3.99-7,7.18-13.65,7.18c-10.64,0-18.26-9.04-18.26-20.92
					c0-14.54,9.48-22.78,19.32-22.78c7.45,0,11.52,3.9,13.38,7.45h0.18l0.35-6.47H-2137.64z M-2145.71,1896.97
					c0-1.33-0.09-2.48-0.44-3.55c-1.42-4.52-5.23-8.24-10.9-8.24c-7.45,0-12.76,6.29-12.76,16.22c0,8.42,4.25,15.42,12.68,15.42
					c4.79,0,9.13-3.01,10.81-7.98c0.44-1.33,0.62-2.84,0.62-4.17V1896.97z"/>
				<path class="st3" d="M-2120.71,1902.91c0.18,10.55,6.91,14.89,14.71,14.89c5.58,0,8.95-0.98,11.88-2.22l1.33,5.58
					c-2.75,1.24-7.45,2.66-14.27,2.66c-13.21,0-21.1-8.69-21.1-21.63s7.62-23.13,20.12-23.13c14,0,17.73,12.32,17.73,20.21
					c0,1.59-0.18,2.84-0.27,3.63H-2120.71z M-2097.84,1897.33c0.09-4.96-2.04-12.68-10.81-12.68c-7.89,0-11.35,7.27-11.97,12.68
					H-2097.84z"/>
			</g>
			<g>
				<path class="st3" d="M-2059.01,1880.04l9.4,25.35c0.98,2.84,2.04,6.21,2.75,8.78h0.18c0.8-2.57,1.68-5.85,2.75-8.95l8.51-25.17
					h8.24l-11.7,30.58c-5.58,14.71-9.4,22.25-14.71,26.86c-3.81,3.37-7.62,4.7-9.57,5.05l-1.95-6.56c1.95-0.62,4.52-1.86,6.83-3.81
					c2.13-1.68,4.79-4.7,6.56-8.69c0.35-0.8,0.62-1.42,0.62-1.86c0-0.44-0.18-1.06-0.53-2.04l-15.87-39.53H-2059.01z"/>
			</g>
			<g>
				<path class="st3" d="M-1982.16,1901.14c0,15.87-10.99,22.78-21.36,22.78c-11.61,0-20.56-8.51-20.56-22.07
					c0-14.36,9.4-22.78,21.27-22.78C-1990.49,1879.07-1982.16,1888.02-1982.16,1901.14z M-2016.2,1901.58
					c0,9.4,5.41,16.49,13.03,16.49c7.45,0,13.03-7,13.03-16.66c0-7.27-3.63-16.49-12.85-16.49
					C-2012.21,1884.92-2016.2,1893.42-2016.2,1901.58z"/>
				<path class="st3" d="M-1936.42,1911.24c0,4.43,0.09,8.33,0.35,11.7h-6.91l-0.44-7h-0.18c-2.04,3.46-6.56,7.98-14.18,7.98
					c-6.74,0-14.8-3.72-14.8-18.79v-25.08h7.8v23.76c0,8.15,2.48,13.65,9.57,13.65c5.23,0,8.86-3.63,10.28-7.09
					c0.44-1.15,0.71-2.57,0.71-3.99v-26.33h7.8V1911.24z"/>
			</g>
			<g>
				<path class="st3" d="M-1904.69,1893.42c0-5.05-0.09-9.4-0.35-13.38h6.83l0.27,8.42h0.35c1.95-5.76,6.65-9.4,11.88-9.4
					c0.89,0,1.51,0.09,2.22,0.27v7.36c-0.8-0.18-1.6-0.27-2.66-0.27c-5.5,0-9.4,4.17-10.46,10.02c-0.18,1.06-0.35,2.3-0.35,3.63
					v22.87h-7.71V1893.42z"/>
			</g>
			<g>
				<path class="st3" d="M-1872.24,1902.91c0.18,10.55,6.91,14.89,14.71,14.89c5.58,0,8.95-0.98,11.88-2.22l1.33,5.58
					c-2.75,1.24-7.45,2.66-14.27,2.66c-13.21,0-21.1-8.69-21.1-21.63s7.62-23.13,20.12-23.13c14,0,17.73,12.32,17.73,20.21
					c0,1.59-0.18,2.84-0.27,3.63H-1872.24z M-1849.37,1897.33c0.09-4.96-2.04-12.68-10.81-12.68c-7.89,0-11.35,7.27-11.97,12.68
					H-1849.37z"/>
				<path class="st3" d="M-1802.92,1916.29h-0.18c-2.3,4.25-7.09,7.62-14,7.62c-10.02,0-18.17-8.69-18.17-21.72
					c0-16.04,10.37-23.13,19.41-23.13c6.65,0,11.08,3.28,13.21,7.45h0.18l0.27-6.47h7.36c-0.18,3.63-0.27,7.36-0.27,11.79v48.66
					h-7.8V1916.29z M-1802.92,1897.41c0-1.06-0.09-2.3-0.35-3.28c-1.15-4.79-5.32-8.86-11.17-8.86c-8.07,0-12.94,6.83-12.94,16.49
					c0,8.51,4.08,15.96,12.68,15.96c5.05,0,9.4-3.1,11.17-8.51c0.35-1.06,0.62-2.57,0.62-3.72V1897.41z"/>
				<path class="st3" d="M-1746.37,1911.24c0,4.43,0.09,8.33,0.35,11.7h-6.91l-0.44-7h-0.18c-2.04,3.46-6.56,7.98-14.18,7.98
					c-6.74,0-14.8-3.72-14.8-18.79v-25.08h7.8v23.76c0,8.15,2.48,13.65,9.57,13.65c5.23,0,8.86-3.63,10.28-7.09
					c0.44-1.15,0.71-2.57,0.71-3.99v-26.33h7.8V1911.24z"/>
				<path class="st3" d="M-1729.08,1902.91c0.18,10.55,6.91,14.89,14.71,14.89c5.58,0,8.95-0.98,11.88-2.22l1.33,5.58
					c-2.75,1.24-7.45,2.66-14.27,2.66c-13.21,0-21.1-8.69-21.1-21.63s7.62-23.13,20.12-23.13c14,0,17.73,12.32,17.73,20.21
					c0,1.59-0.18,2.84-0.27,3.63H-1729.08z M-1706.22,1897.33c0.09-4.96-2.04-12.68-10.81-12.68c-7.89,0-11.35,7.27-11.97,12.68
					H-1706.22z"/>
				<path class="st3" d="M-1690.08,1914.96c2.3,1.51,6.38,3.1,10.28,3.1c5.67,0,8.33-2.84,8.33-6.38c0-3.72-2.22-5.76-7.98-7.89
					c-7.71-2.75-11.35-7-11.35-12.14c0-6.91,5.58-12.59,14.8-12.59c4.34,0,8.15,1.24,10.55,2.66l-1.95,5.67
					c-1.68-1.06-4.79-2.48-8.78-2.48c-4.61,0-7.18,2.66-7.18,5.85c0,3.55,2.57,5.14,8.15,7.27c7.45,2.84,11.26,6.56,11.26,12.94
					c0,7.53-5.85,12.85-16.04,12.85c-4.7,0-9.04-1.15-12.06-2.93L-1690.08,1914.96z"/>
			</g>
			<g>
				<path class="st3" d="M-1644.52,1867.72v12.32h11.17v5.94h-11.17v23.13c0,5.32,1.51,8.33,5.85,8.33c2.04,0,3.55-0.27,4.52-0.53
					l0.35,5.85c-1.51,0.62-3.9,1.06-6.91,1.06c-3.63,0-6.56-1.15-8.42-3.28c-2.22-2.3-3.01-6.12-3.01-11.17v-23.4h-6.65v-5.94h6.65
					v-10.28L-1644.52,1867.72z"/>
			</g>
			<g>
				<path class="st3" d="M-1620.76,1902.91c0.18,10.55,6.91,14.89,14.71,14.89c5.58,0,8.95-0.98,11.88-2.22l1.33,5.58
					c-2.75,1.24-7.45,2.66-14.27,2.66c-13.21,0-21.1-8.69-21.1-21.63s7.62-23.13,20.12-23.13c14,0,17.73,12.32,17.73,20.21
					c0,1.59-0.18,2.84-0.27,3.63H-1620.76z M-1597.89,1897.33c0.09-4.96-2.04-12.68-10.81-12.68c-7.89,0-11.35,7.27-11.97,12.68
					H-1597.89z"/>
				<path class="st3" d="M-1543.64,1860.01v51.85c0,3.81,0.09,8.16,0.35,11.08h-7l-0.35-7.45h-0.18c-2.39,4.79-7.62,8.42-14.63,8.42
					c-10.37,0-18.35-8.77-18.35-21.8c-0.09-14.27,8.78-23.05,19.23-23.05c6.56,0,10.99,3.1,12.94,6.56h0.18v-25.62H-1543.64z
					 M-1551.44,1897.5c0-0.97-0.09-2.3-0.35-3.28c-1.15-4.96-5.41-9.04-11.26-9.04c-8.07,0-12.85,7.09-12.85,16.58
					c0,8.69,4.25,15.87,12.68,15.87c5.23,0,10.02-3.46,11.43-9.31c0.27-1.06,0.35-2.13,0.35-3.37V1897.5z"/>
			</g>
			<g>
				<path class="st3" d="M-1481.33,1921.35c-2.04,1.06-6.56,2.48-12.32,2.48c-12.94,0-21.36-8.78-21.36-21.89
					c0-13.21,9.04-22.78,23.05-22.78c4.61,0,8.69,1.15,10.81,2.22l-1.77,6.03c-1.86-1.06-4.79-2.04-9.04-2.04
					c-9.84,0-15.16,7.27-15.16,16.22c0,9.93,6.38,16.04,14.89,16.04c4.43,0,7.36-1.15,9.57-2.13L-1481.33,1921.35z"/>
			</g>
			<g>
				<path class="st3" d="M-1433.9,1901.14c0,15.87-10.99,22.78-21.36,22.78c-11.61,0-20.56-8.51-20.56-22.07
					c0-14.36,9.4-22.78,21.27-22.78C-1442.23,1879.07-1433.9,1888.02-1433.9,1901.14z M-1467.94,1901.58
					c0,9.4,5.41,16.49,13.03,16.49c7.45,0,13.03-7,13.03-16.66c0-7.27-3.63-16.49-12.85-16.49
					C-1463.95,1884.92-1467.94,1893.42-1467.94,1901.58z"/>
				<path class="st3" d="M-1388.16,1911.24c0,4.43,0.09,8.33,0.35,11.7h-6.91l-0.44-7h-0.18c-2.04,3.46-6.56,7.98-14.18,7.98
					c-6.74,0-14.8-3.72-14.8-18.79v-25.08h7.8v23.76c0,8.15,2.48,13.65,9.57,13.65c5.23,0,8.86-3.63,10.28-7.09
					c0.44-1.15,0.71-2.57,0.71-3.99v-26.33h7.8V1911.24z"/>
				<path class="st3" d="M-1375.22,1860.01h7.8v62.93h-7.8V1860.01z"/>
				<path class="st3" d="M-1317.25,1860.01v51.85c0,3.81,0.09,8.16,0.35,11.08h-7l-0.35-7.45h-0.18c-2.39,4.79-7.62,8.42-14.62,8.42
					c-10.37,0-18.35-8.77-18.35-21.8c-0.09-14.27,8.77-23.05,19.23-23.05c6.56,0,10.99,3.1,12.94,6.56h0.18v-25.62H-1317.25z
					 M-1325.05,1897.5c0-0.97-0.09-2.3-0.35-3.28c-1.15-4.96-5.41-9.04-11.26-9.04c-8.07,0-12.85,7.09-12.85,16.58
					c0,8.69,4.25,15.87,12.68,15.87c5.23,0,10.02-3.46,11.43-9.31c0.27-1.06,0.35-2.13,0.35-3.37V1897.5z"/>
				<path class="st3" d="M-1285.51,1891.65c0-4.43-0.09-8.07-0.35-11.61h6.91l0.44,7.09h0.18c2.13-4.08,7.09-8.07,14.18-8.07
					c5.94,0,15.16,3.55,15.16,18.26v25.62h-7.8v-24.73c0-6.91-2.57-12.67-9.93-12.67c-5.14,0-9.13,3.63-10.46,7.98
					c-0.35,0.97-0.53,2.3-0.53,3.63v25.79h-7.8V1891.65z"/>
				<path class="st3" d="M-1197.49,1901.14c0,15.87-10.99,22.78-21.36,22.78c-11.61,0-20.56-8.51-20.56-22.07
					c0-14.36,9.4-22.78,21.27-22.78C-1205.82,1879.07-1197.49,1888.02-1197.49,1901.14z M-1231.53,1901.58
					c0,9.4,5.41,16.49,13.03,16.49c7.45,0,13.03-7,13.03-16.66c0-7.27-3.63-16.49-12.85-16.49
					C-1227.54,1884.92-1231.53,1893.42-1231.53,1901.58z"/>
				<path class="st3" d="M-1178.25,1867.72v12.32h11.17v5.94h-11.17v23.13c0,5.32,1.51,8.33,5.85,8.33c2.04,0,3.55-0.27,4.52-0.53
					l0.35,5.85c-1.51,0.62-3.9,1.06-6.91,1.06c-3.63,0-6.56-1.15-8.42-3.28c-2.22-2.3-3.01-6.12-3.01-11.17v-23.4h-6.65v-5.94h6.65
					v-10.28L-1178.25,1867.72z"/>
				<path class="st3" d="M-1139.87,1922.94c0.18-2.92,0.35-7.27,0.35-11.08v-51.85h7.71v26.95h0.18c2.75-4.79,7.71-7.89,14.63-7.89
					c10.64,0,18.17,8.86,18.08,21.89c0,15.33-9.66,22.96-19.23,22.96c-6.2,0-11.17-2.39-14.36-8.07h-0.27l-0.35,7.09H-1139.87z
					 M-1131.81,1905.75c0,0.98,0.18,1.95,0.35,2.84c1.51,5.41,6.03,9.13,11.7,9.13c8.15,0,13.03-6.65,13.03-16.49
					c0-8.6-4.43-15.95-12.76-15.95c-5.32,0-10.28,3.63-11.88,9.57c-0.18,0.89-0.44,1.95-0.44,3.19V1905.75z"/>
				<path class="st3" d="M-1084.74,1902.91c0.18,10.55,6.91,14.89,14.71,14.89c5.58,0,8.95-0.98,11.88-2.22l1.33,5.58
					c-2.75,1.24-7.45,2.66-14.27,2.66c-13.21,0-21.1-8.69-21.1-21.63s7.62-23.13,20.12-23.13c14.01,0,17.73,12.32,17.73,20.21
					c0,1.59-0.18,2.84-0.27,3.63H-1084.74z M-1061.87,1897.33c0.09-4.96-2.04-12.68-10.81-12.68c-7.89,0-11.35,7.27-11.97,12.68
					H-1061.87z"/>
			</g>
			<g>
				<path class="st3" d="M-1025.08,1922.94v-36.96h-6.03v-5.94h6.03V1878c0-6.03,1.33-11.52,4.96-14.98
					c2.93-2.84,6.83-3.99,10.46-3.99c2.75,0,5.14,0.62,6.65,1.24l-1.06,6.03c-1.15-0.53-2.75-0.98-4.96-0.98
					c-6.65,0-8.33,5.85-8.33,12.41v2.3h10.37v5.94h-10.37v36.96H-1025.08z"/>
			</g>
			<g>
				<path class="st3" d="M-962.32,1901.14c0,15.87-10.99,22.78-21.36,22.78c-11.61,0-20.56-8.51-20.56-22.07
					c0-14.36,9.4-22.78,21.27-22.78C-970.65,1879.07-962.32,1888.02-962.32,1901.14z M-996.36,1901.58c0,9.4,5.41,16.49,13.03,16.49
					c7.45,0,13.03-7,13.03-16.66c0-7.27-3.63-16.49-12.85-16.49C-992.37,1884.92-996.36,1893.42-996.36,1901.58z"/>
				<path class="st3" d="M-916.58,1911.24c0,4.43,0.09,8.33,0.35,11.7h-6.91l-0.44-7h-0.18c-2.04,3.46-6.56,7.98-14.18,7.98
					c-6.74,0-14.8-3.72-14.8-18.79v-25.08h7.8v23.76c0,8.15,2.48,13.65,9.57,13.65c5.23,0,8.86-3.63,10.28-7.09
					c0.44-1.15,0.71-2.57,0.71-3.99v-26.33h7.8V1911.24z"/>
				<path class="st3" d="M-903.64,1891.65c0-4.43-0.09-8.07-0.35-11.61h6.91l0.44,7.09h0.18c2.13-4.08,7.09-8.07,14.18-8.07
					c5.94,0,15.16,3.55,15.16,18.26v25.62h-7.8v-24.73c0-6.91-2.57-12.67-9.93-12.67c-5.14,0-9.13,3.63-10.46,7.98
					c-0.35,0.97-0.53,2.3-0.53,3.63v25.79h-7.8V1891.65z"/>
				<path class="st3" d="M-817.39,1860.01v51.85c0,3.81,0.09,8.16,0.35,11.08h-7l-0.35-7.45h-0.18c-2.39,4.79-7.62,8.42-14.63,8.42
					c-10.37,0-18.35-8.77-18.35-21.8c-0.09-14.27,8.78-23.05,19.23-23.05c6.56,0,10.99,3.1,12.94,6.56h0.18v-25.62H-817.39z
					 M-825.19,1897.5c0-0.97-0.09-2.3-0.35-3.28c-1.15-4.96-5.41-9.04-11.26-9.04c-8.07,0-12.85,7.09-12.85,16.58
					c0,8.69,4.25,15.87,12.68,15.87c5.23,0,10.02-3.46,11.43-9.31c0.27-1.06,0.35-2.13,0.35-3.37V1897.5z"/>
			</g>
			<g>
				<path class="st3" d="M-2431.14,1970.28c3.72-0.62,8.6-1.15,14.8-1.15c7.62,0,13.21,1.77,16.75,4.96
					c3.28,2.84,5.23,7.18,5.23,12.5c0,5.41-1.6,9.66-4.61,12.76c-4.08,4.34-10.73,6.56-18.26,6.56c-2.3,0-4.43-0.09-6.2-0.53v23.93
					h-7.71V1970.28z M-2423.42,1999.09c1.68,0.44,3.81,0.62,6.38,0.62c9.31,0,14.98-4.52,14.98-12.76c0-7.89-5.58-11.7-14.09-11.7
					c-3.37,0-5.94,0.27-7.27,0.62V1999.09z"/>
			</g>
			<g>
				<path class="st3" d="M-2384.69,1966.38h7.8v62.93h-7.8V1966.38z"/>
				<path class="st3" d="M-2359.42,2009.28c0.18,10.55,6.91,14.89,14.71,14.89c5.58,0,8.95-0.98,11.88-2.22l1.33,5.58
					c-2.75,1.24-7.45,2.66-14.27,2.66c-13.21,0-21.1-8.69-21.1-21.63c0-12.94,7.62-23.13,20.12-23.13c14,0,17.73,12.32,17.73,20.21
					c0,1.59-0.18,2.84-0.27,3.63H-2359.42z M-2336.55,2003.7c0.09-4.96-2.04-12.68-10.81-12.68c-7.89,0-11.35,7.27-11.97,12.68
					H-2336.55z"/>
				<path class="st3" d="M-2295.6,2029.31l-0.62-5.41h-0.27c-2.39,3.37-7,6.38-13.12,6.38c-8.69,0-13.12-6.12-13.12-12.32
					c0-10.37,9.22-16.04,25.79-15.96v-0.89c0-3.55-0.98-9.93-9.75-9.93c-3.99,0-8.15,1.24-11.17,3.19l-1.77-5.14
					c3.55-2.3,8.69-3.81,14.09-3.81c13.12,0,16.31,8.95,16.31,17.55v16.04c0,3.72,0.18,7.36,0.71,10.28H-2295.6z M-2296.75,2007.42
					c-8.51-0.18-18.17,1.33-18.17,9.66c0,5.05,3.37,7.45,7.36,7.45c5.58,0,9.13-3.55,10.37-7.18c0.27-0.8,0.44-1.68,0.44-2.48
					V2007.42z"/>
				<path class="st3" d="M-2277.69,2021.34c2.3,1.51,6.38,3.1,10.28,3.1c5.67,0,8.33-2.84,8.33-6.38c0-3.72-2.22-5.76-7.98-7.89
					c-7.71-2.75-11.35-7-11.35-12.14c0-6.91,5.58-12.59,14.8-12.59c4.34,0,8.15,1.24,10.55,2.66l-1.95,5.67
					c-1.68-1.06-4.79-2.48-8.77-2.48c-4.61,0-7.18,2.66-7.18,5.85c0,3.55,2.57,5.14,8.15,7.27c7.45,2.84,11.26,6.56,11.26,12.94
					c0,7.53-5.85,12.85-16.04,12.85c-4.7,0-9.04-1.15-12.05-2.93L-2277.69,2021.34z"/>
				<path class="st3" d="M-2237.18,2009.28c0.18,10.55,6.91,14.89,14.71,14.89c5.58,0,8.95-0.98,11.88-2.22l1.33,5.58
					c-2.75,1.24-7.45,2.66-14.27,2.66c-13.21,0-21.1-8.69-21.1-21.63c0-12.94,7.62-23.13,20.12-23.13c14,0,17.73,12.32,17.73,20.21
					c0,1.59-0.18,2.84-0.27,3.63H-2237.18z M-2214.32,2003.7c0.09-4.96-2.04-12.68-10.81-12.68c-7.89,0-11.35,7.27-11.97,12.68
					H-2214.32z"/>
				<path class="st3" d="M-2141.36,1986.41c-0.18,3.1-0.35,6.56-0.35,11.79v24.91c0,9.84-1.95,15.87-6.12,19.59
					c-4.17,3.9-10.19,5.14-15.6,5.14c-5.14,0-10.81-1.24-14.27-3.55l1.95-5.94c2.84,1.77,7.27,3.37,12.59,3.37
					c7.98,0,13.83-4.17,13.83-14.98v-4.79h-0.18c-2.39,3.99-7,7.18-13.65,7.18c-10.64,0-18.26-9.04-18.26-20.92
					c0-14.54,9.48-22.78,19.32-22.78c7.45,0,11.52,3.9,13.38,7.45h0.18l0.35-6.47H-2141.36z M-2149.43,2003.34
					c0-1.33-0.09-2.48-0.44-3.55c-1.42-4.52-5.23-8.24-10.9-8.24c-7.45,0-12.76,6.29-12.76,16.22c0,8.42,4.25,15.42,12.68,15.42
					c4.79,0,9.13-3.01,10.81-7.98c0.44-1.33,0.62-2.84,0.62-4.17V2003.34z"/>
				<path class="st3" d="M-2089.95,2007.51c0,15.87-10.99,22.78-21.36,22.78c-11.61,0-20.56-8.51-20.56-22.07
					c0-14.36,9.4-22.78,21.27-22.78C-2098.28,1985.44-2089.95,1994.39-2089.95,2007.51z M-2123.99,2007.95
					c0,9.4,5.41,16.49,13.03,16.49c7.45,0,13.03-7,13.03-16.66c0-7.27-3.63-16.49-12.85-16.49S-2123.99,1999.8-2123.99,2007.95z"/>
				<path class="st3" d="M-2061.67,2029.31c0.18-2.92,0.35-7.27,0.35-11.08v-51.85h7.71v26.95h0.18c2.75-4.79,7.71-7.89,14.62-7.89
					c10.64,0,18.17,8.86,18.08,21.89c0,15.33-9.66,22.96-19.23,22.96c-6.2,0-11.17-2.39-14.36-8.07h-0.27l-0.35,7.09H-2061.67z
					 M-2053.61,2012.12c0,0.98,0.18,1.95,0.35,2.84c1.51,5.41,6.03,9.13,11.7,9.13c8.15,0,13.03-6.65,13.03-16.49
					c0-8.6-4.43-15.95-12.76-15.95c-5.32,0-10.28,3.63-11.88,9.57c-0.18,0.89-0.44,1.95-0.44,3.19V2012.12z"/>
				<path class="st3" d="M-1987.12,2029.31l-0.62-5.41h-0.27c-2.39,3.37-7,6.38-13.12,6.38c-8.69,0-13.12-6.12-13.12-12.32
					c0-10.37,9.22-16.04,25.79-15.96v-0.89c0-3.55-0.98-9.93-9.75-9.93c-3.99,0-8.15,1.24-11.17,3.19l-1.77-5.14
					c3.55-2.3,8.69-3.81,14.09-3.81c13.12,0,16.31,8.95,16.31,17.55v16.04c0,3.72,0.18,7.36,0.71,10.28H-1987.12z M-1988.28,2007.42
					c-8.51-0.18-18.17,1.33-18.17,9.66c0,5.05,3.37,7.45,7.36,7.45c5.58,0,9.13-3.55,10.37-7.18c0.27-0.8,0.44-1.68,0.44-2.48
					V2007.42z"/>
				<path class="st3" d="M-1937.57,2027.72c-2.04,1.06-6.56,2.48-12.32,2.48c-12.94,0-21.36-8.78-21.36-21.89
					c0-13.21,9.04-22.78,23.05-22.78c4.61,0,8.69,1.15,10.81,2.22l-1.77,6.03c-1.86-1.06-4.79-2.04-9.04-2.04
					c-9.84,0-15.16,7.27-15.16,16.22c0,9.93,6.38,16.04,14.89,16.04c4.43,0,7.36-1.15,9.57-2.13L-1937.57,2027.72z"/>
				<path class="st3" d="M-1920.73,2006.09h0.18c1.06-1.51,2.57-3.37,3.81-4.88l12.59-14.8h9.4l-16.58,17.64l18.88,25.26h-9.48
					l-14.8-20.56l-3.99,4.43v16.13h-7.71v-62.93h7.71V2006.09z"/>
			</g>
			<g>
				<path class="st3" d="M-1858.68,1974.09v12.32h11.17v5.94h-11.17v23.13c0,5.32,1.51,8.33,5.85,8.33c2.04,0,3.55-0.27,4.52-0.53
					l0.35,5.85c-1.51,0.62-3.9,1.06-6.91,1.06c-3.63,0-6.56-1.15-8.42-3.28c-2.22-2.3-3.01-6.12-3.01-11.17v-23.4h-6.65v-5.94h6.65
					v-10.28L-1858.68,1974.09z"/>
			</g>
			<g>
				<path class="st3" d="M-1800.44,2007.51c0,15.87-10.99,22.78-21.36,22.78c-11.61,0-20.56-8.51-20.56-22.07
					c0-14.36,9.4-22.78,21.27-22.78C-1808.77,1985.44-1800.44,1994.39-1800.44,2007.51z M-1834.48,2007.95
					c0,9.4,5.41,16.49,13.03,16.49c7.45,0,13.03-7,13.03-16.66c0-7.27-3.63-16.49-12.85-16.49
					C-1830.49,1991.29-1834.48,1999.8-1834.48,2007.95z"/>
				<path class="st3" d="M-1762.41,1974.09v12.32h11.17v5.94h-11.17v23.13c0,5.32,1.51,8.33,5.85,8.33c2.04,0,3.55-0.27,4.52-0.53
					l0.35,5.85c-1.51,0.62-3.9,1.06-6.91,1.06c-3.63,0-6.56-1.15-8.42-3.28c-2.22-2.3-3.01-6.12-3.01-11.17v-23.4h-6.65v-5.94h6.65
					v-10.28L-1762.41,1974.09z"/>
				<path class="st3" d="M-1742.47,1966.38h7.8v26.77h0.18c1.24-2.22,3.19-4.17,5.58-5.5c2.3-1.33,5.05-2.22,7.98-2.22
					c5.76,0,14.98,3.55,14.98,18.35v25.53h-7.8v-24.64c0-6.91-2.57-12.76-9.93-12.76c-5.05,0-9.04,3.55-10.46,7.8
					c-0.44,1.06-0.53,2.22-0.53,3.72v25.88h-7.8V1966.38z"/>
				<path class="st3" d="M-1688.93,2009.28c0.18,10.55,6.91,14.89,14.71,14.89c5.58,0,8.95-0.98,11.88-2.22l1.33,5.58
					c-2.75,1.24-7.45,2.66-14.27,2.66c-13.21,0-21.1-8.69-21.1-21.63c0-12.94,7.62-23.13,20.12-23.13c14,0,17.73,12.32,17.73,20.21
					c0,1.59-0.18,2.84-0.27,3.63H-1688.93z M-1666.06,2003.7c0.09-4.96-2.04-12.68-10.81-12.68c-7.89,0-11.35,7.27-11.97,12.68
					H-1666.06z"/>
				<path class="st3" d="M-1630.07,1966.38h7.8v26.77h0.18c1.24-2.22,3.19-4.17,5.58-5.5c2.3-1.33,5.05-2.22,7.98-2.22
					c5.76,0,14.98,3.55,14.98,18.35v25.53h-7.8v-24.64c0-6.91-2.57-12.76-9.93-12.76c-5.05,0-9.04,3.55-10.46,7.8
					c-0.44,1.06-0.53,2.22-0.53,3.72v25.88h-7.8V1966.38z"/>
				<path class="st3" d="M-1542.05,2007.51c0,15.87-10.99,22.78-21.36,22.78c-11.61,0-20.56-8.51-20.56-22.07
					c0-14.36,9.4-22.78,21.27-22.78C-1550.38,1985.44-1542.05,1994.39-1542.05,2007.51z M-1576.09,2007.95
					c0,9.4,5.41,16.49,13.03,16.49c7.45,0,13.03-7,13.03-16.66c0-7.27-3.63-16.49-12.85-16.49S-1576.09,1999.8-1576.09,2007.95z"/>
				<path class="st3" d="M-1532.21,1998.03c0-4.43-0.09-8.07-0.35-11.61h6.83l0.35,6.91h0.27c2.39-4.08,6.38-7.89,13.47-7.89
					c5.85,0,10.28,3.55,12.14,8.6h0.18c1.33-2.39,3.01-4.25,4.79-5.58c2.57-1.95,5.41-3.01,9.48-3.01c5.67,0,14.09,3.72,14.09,18.61
					v25.26h-7.62v-24.29c0-8.24-3.01-13.21-9.31-13.21c-4.43,0-7.89,3.28-9.22,7.09c-0.35,1.06-0.62,2.48-0.62,3.9v26.5h-7.62
					v-25.71c0-6.83-3.01-11.79-8.95-11.79c-4.88,0-8.42,3.9-9.66,7.8c-0.44,1.15-0.62,2.48-0.62,3.81v25.88h-7.62V1998.03z"/>
				<path class="st3" d="M-1453.93,2009.28c0.18,10.55,6.91,14.89,14.71,14.89c5.58,0,8.95-0.98,11.88-2.22l1.33,5.58
					c-2.75,1.24-7.45,2.66-14.27,2.66c-13.21,0-21.1-8.69-21.1-21.63c0-12.94,7.62-23.13,20.12-23.13c14,0,17.73,12.32,17.73,20.21
					c0,1.59-0.18,2.84-0.27,3.63H-1453.93z M-1431.07,2003.7c0.09-4.96-2.04-12.68-10.81-12.68c-7.89,0-11.35,7.27-11.97,12.68
					H-1431.07z"/>
				<path class="st3" d="M-1413.87,2000.42c0-5.5-0.18-9.93-0.35-14h7l0.35,7.36h0.18c3.19-5.23,8.24-8.33,15.25-8.33
					c10.37,0,18.17,8.78,18.17,21.8c0,15.42-9.4,23.05-19.5,23.05c-5.67,0-10.64-2.48-13.21-6.74h-0.18v23.31h-7.71V2000.42z
					 M-1406.16,2011.85c0,1.15,0.18,2.22,0.35,3.19c1.42,5.41,6.12,9.13,11.7,9.13c8.24,0,13.03-6.74,13.03-16.58
					c0-8.6-4.52-15.95-12.76-15.95c-5.32,0-10.28,3.81-11.79,9.66c-0.27,0.97-0.53,2.13-0.53,3.19V2011.85z"/>
				<path class="st3" d="M-1339.67,2029.31l-0.62-5.41h-0.27c-2.39,3.37-7,6.38-13.12,6.38c-8.69,0-13.12-6.12-13.12-12.32
					c0-10.37,9.22-16.04,25.79-15.96v-0.89c0-3.55-0.98-9.93-9.75-9.93c-3.99,0-8.15,1.24-11.17,3.19l-1.77-5.14
					c3.55-2.3,8.69-3.81,14.09-3.81c13.12,0,16.31,8.95,16.31,17.55v16.04c0,3.72,0.18,7.36,0.71,10.28H-1339.67z M-1340.83,2007.42
					c-8.51-0.18-18.17,1.33-18.17,9.66c0,5.05,3.37,7.45,7.36,7.45c5.58,0,9.13-3.55,10.37-7.18c0.27-0.8,0.44-1.68,0.44-2.48
					V2007.42z"/>
				<path class="st3" d="M-1283.74,1986.41c-0.18,3.1-0.35,6.56-0.35,11.79v24.91c0,9.84-1.95,15.87-6.12,19.59
					c-4.17,3.9-10.19,5.14-15.6,5.14c-5.14,0-10.81-1.24-14.27-3.55l1.95-5.94c2.84,1.77,7.27,3.37,12.59,3.37
					c7.98,0,13.83-4.17,13.83-14.98v-4.79h-0.18c-2.39,3.99-7,7.18-13.65,7.18c-10.64,0-18.26-9.04-18.26-20.92
					c0-14.54,9.48-22.78,19.32-22.78c7.45,0,11.52,3.9,13.38,7.45h0.18l0.35-6.47H-1283.74z M-1291.81,2003.34
					c0-1.33-0.09-2.48-0.44-3.55c-1.42-4.52-5.23-8.24-10.9-8.24c-7.45,0-12.76,6.29-12.76,16.22c0,8.42,4.25,15.42,12.68,15.42
					c4.79,0,9.13-3.01,10.81-7.98c0.44-1.33,0.62-2.84,0.62-4.17V2003.34z"/>
				<path class="st3" d="M-1266.81,2009.28c0.18,10.55,6.91,14.89,14.71,14.89c5.58,0,8.95-0.98,11.88-2.22l1.33,5.58
					c-2.75,1.24-7.45,2.66-14.27,2.66c-13.21,0-21.1-8.69-21.1-21.63c0-12.94,7.62-23.13,20.12-23.13c14,0,17.73,12.32,17.73,20.21
					c0,1.59-0.18,2.84-0.27,3.63H-1266.81z M-1243.94,2003.7c0.09-4.96-2.04-12.68-10.81-12.68c-7.89,0-11.35,7.27-11.97,12.68
					H-1243.94z"/>
			</g>
		</g>
	</g>
	<g>
		<g>
			<path class="st1" d="M-1570.51,2366.9h-565c-57.16,0-103.5-46.34-103.5-103.5v0c0-57.16,46.34-103.5,103.5-103.5h565
				c57.16,0,103.5,46.34,103.5,103.5v0C-1467.01,2320.56-1513.34,2366.9-1570.51,2366.9z"/>
		</g>
		<g>
			<g>
				<g>
					<path class="st4" d="M-1989.27,2266.23v10.93c0,1.45-0.14,2.61-0.43,3.48c-0.29,0.87-0.81,1.65-1.57,2.35
						c-0.77,0.7-1.74,1.38-2.94,2.02c-3.45,1.87-6.77,3.23-9.96,4.08c-3.19,0.86-6.66,1.28-10.42,1.28c-4.38,0-8.37-0.67-11.98-2.02
						c-3.6-1.35-6.68-3.31-9.22-5.87c-2.54-2.57-4.49-5.68-5.85-9.33c-1.36-3.66-2.04-7.74-2.04-12.25c0-4.43,0.66-8.49,1.98-12.17
						s3.27-6.81,5.83-9.37c2.57-2.57,5.69-4.53,9.37-5.89c3.68-1.36,7.86-2.04,12.52-2.04c3.84,0,7.23,0.51,10.19,1.54
						s5.35,2.31,7.19,3.87s3.23,3.2,4.16,4.94c0.93,1.74,1.4,3.28,1.4,4.63c0,1.45-0.54,2.69-1.61,3.71
						c-1.08,1.02-2.37,1.54-3.87,1.54c-0.83,0-1.63-0.19-2.39-0.58c-0.77-0.39-1.41-0.93-1.93-1.63c-1.43-2.23-2.63-3.91-3.62-5.05
						s-2.31-2.1-3.99-2.88c-1.67-0.78-3.81-1.17-6.4-1.17c-2.67,0-5.06,0.46-7.16,1.38c-2.1,0.92-3.9,2.25-5.39,4
						c-1.49,1.75-2.63,3.9-3.42,6.44c-0.79,2.54-1.19,5.35-1.19,8.44c0,6.69,1.54,11.84,4.61,15.44c3.07,3.6,7.36,5.41,12.85,5.41
						c2.67,0,5.18-0.35,7.52-1.05c2.35-0.7,4.72-1.7,7.14-2.99v-9.25h-8.94c-2.15,0-3.78-0.32-4.88-0.97
						c-1.1-0.65-1.65-1.75-1.65-3.31c0-1.27,0.46-2.32,1.38-3.15c0.92-0.83,2.17-1.25,3.75-1.25h13.11c1.61,0,2.97,0.14,4.08,0.43
						c1.11,0.29,2.02,0.92,2.7,1.91C-1989.61,2262.78-1989.27,2264.26-1989.27,2266.23z"/>
					<path class="st4" d="M-2014.59,2291.38c-4.48,0-8.63-0.7-12.33-2.09c-3.72-1.39-6.94-3.45-9.58-6.11
						c-2.63-2.66-4.67-5.91-6.08-9.69c-1.4-3.75-2.1-7.99-2.1-12.6c0-4.53,0.69-8.74,2.04-12.51c1.37-3.8,3.41-7.08,6.07-9.74
						c2.66-2.66,5.93-4.72,9.73-6.12c3.77-1.4,8.1-2.1,12.87-2.1c3.93,0,7.47,0.54,10.52,1.59c3.06,1.06,5.59,2.42,7.51,4.05
						c1.93,1.63,3.41,3.39,4.4,5.23c1.01,1.88,1.52,3.59,1.52,5.1c0,1.73-0.65,3.22-1.92,4.44c-1.26,1.2-2.8,1.81-4.56,1.81
						c-0.99,0-1.94-0.23-2.84-0.69c-0.9-0.46-1.67-1.11-2.28-1.93c-1.43-2.23-2.62-3.9-3.57-5c-0.89-1.03-2.12-1.91-3.65-2.62
						c-1.53-0.71-3.54-1.07-5.98-1.07c-2.52,0-4.79,0.44-6.75,1.3c-1.95,0.85-3.64,2.11-5.03,3.74c-1.4,1.64-2.48,3.69-3.23,6.08
						c-0.76,2.43-1.14,5.17-1.14,8.14c0,6.41,1.47,11.39,4.37,14.79c2.9,3.4,6.85,5.05,12.09,5.05c2.56,0,5-0.34,7.24-1.01
						c2.1-0.63,4.26-1.51,6.42-2.64v-7.65h-7.94c-2.36,0-4.12-0.36-5.39-1.11c-0.98-0.57-2.15-1.76-2.15-4.17
						c0-1.56,0.58-2.87,1.71-3.89c1.1-1,2.59-1.5,4.42-1.5h13.11c1.68,0,3.14,0.15,4.33,0.46c1.35,0.35,2.45,1.12,3.28,2.3
						c0.81,1.17,1.21,2.81,1.21,5v10.93c0,1.57-0.16,2.81-0.48,3.79c-0.34,1.03-0.96,1.97-1.85,2.78c-0.82,0.75-1.88,1.48-3.13,2.16
						c-3.5,1.9-6.92,3.3-10.17,4.17C-2007.16,2290.94-2010.76,2291.38-2014.59,2291.38z M-2013.96,2232.42
						c-4.53,0-8.62,0.67-12.18,1.98c-3.53,1.3-6.56,3.21-9.01,5.66c-2.45,2.45-4.33,5.48-5.6,9c-1.28,3.56-1.92,7.54-1.92,11.83
						c0,4.37,0.67,8.37,1.98,11.9c1.31,3.5,3.2,6.53,5.63,8.98c2.43,2.45,5.41,4.35,8.86,5.64c3.48,1.3,7.39,1.96,11.63,1.96
						c3.66,0,7.07-0.42,10.16-1.25c3.1-0.83,6.38-2.18,9.74-4c1.11-0.61,2.03-1.24,2.74-1.88c0.64-0.59,1.07-1.22,1.3-1.93
						c0.25-0.76,0.38-1.83,0.38-3.17v-10.93c0-1.75-0.29-3.05-0.85-3.86c-0.55-0.79-1.25-1.28-2.13-1.51
						c-1.03-0.26-2.32-0.4-3.84-0.4h-13.11c-1.34,0-2.35,0.32-3.08,0.99c-0.71,0.64-1.05,1.42-1.05,2.41c0,1.58,0.66,2.15,1.16,2.44
						c0.94,0.55,2.41,0.84,4.37,0.84h9.94v10.85l-0.53,0.28c-2.46,1.32-4.92,2.36-7.32,3.07c-2.43,0.73-5.06,1.09-7.81,1.09
						c-5.78,0-10.36-1.94-13.61-5.76c-3.22-3.77-4.85-9.18-4.85-16.09c0-3.17,0.41-6.11,1.23-8.74c0.83-2.66,2.04-4.94,3.62-6.79
						c1.58-1.86,3.52-3.29,5.75-4.27c2.22-0.97,4.76-1.47,7.56-1.47c2.73,0,5.02,0.42,6.82,1.26c1.79,0.83,3.25,1.89,4.32,3.13
						c1.01,1.17,2.26,2.91,3.7,5.17c0.39,0.52,0.91,0.96,1.54,1.28c0.63,0.32,1.26,0.47,1.94,0.47c1.25,0,2.29-0.41,3.18-1.26
						c0.88-0.83,1.3-1.81,1.3-2.99c0-1.17-0.43-2.57-1.28-4.15c-0.87-1.62-2.19-3.18-3.93-4.65c-1.74-1.47-4.05-2.71-6.88-3.69
						C-2006.94,2232.92-2010.26,2232.42-2013.96,2232.42z"/>
				</g>
				<g>
					<path class="st4" d="M-1953.18,2231.42c5.91,0,10.99,1.2,15.23,3.6c4.24,2.4,7.45,5.81,9.62,10.23
						c2.18,4.42,3.27,9.61,3.27,15.57c0,4.41-0.6,8.41-1.79,12.02c-1.19,3.6-2.98,6.73-5.37,9.37c-2.39,2.64-5.31,4.67-8.79,6.07
						c-3.47,1.4-7.45,2.1-11.94,2.1c-4.46,0-8.45-0.72-11.98-2.16c-3.53-1.44-6.47-3.47-8.83-6.09c-2.36-2.62-4.14-5.77-5.35-9.45
						s-1.81-7.66-1.81-11.94c0-4.38,0.63-8.4,1.89-12.05c1.26-3.66,3.08-6.77,5.46-9.33c2.39-2.57,5.29-4.53,8.71-5.89
						C-1961.43,2232.11-1957.54,2231.42-1953.18,2231.42z M-1936.77,2260.75c0-4.17-0.67-7.79-2.02-10.85
						c-1.35-3.06-3.27-5.37-5.77-6.94c-2.5-1.57-5.37-2.35-8.61-2.35c-2.31,0-4.44,0.43-6.4,1.3c-1.96,0.87-3.64,2.13-5.06,3.79
						c-1.41,1.66-2.53,3.78-3.34,6.36c-0.82,2.58-1.23,5.48-1.23,8.69c0,3.24,0.41,6.17,1.23,8.79c0.82,2.62,1.97,4.79,3.46,6.51
						c1.49,1.72,3.2,3.01,5.13,3.87c1.93,0.86,4.05,1.28,6.36,1.28c2.96,0,5.67-0.74,8.15-2.22c2.48-1.48,4.45-3.76,5.91-6.84
						C-1937.5,2269.06-1936.77,2265.26-1936.77,2260.75z"/>
					<path class="st4" d="M-1952.95,2291.38c-4.57,0-8.73-0.75-12.36-2.23c-3.65-1.49-6.74-3.62-9.19-6.34
						c-2.44-2.71-4.31-6.01-5.55-9.81c-1.23-3.76-1.86-7.89-1.86-12.25c0-4.47,0.65-8.64,1.94-12.38c1.3-3.77,3.21-7.03,5.68-9.69
						c2.48-2.67,5.53-4.73,9.07-6.14c3.52-1.4,7.57-2.11,12.04-2.11c6.06,0,11.35,1.25,15.72,3.73c4.4,2.49,7.77,6.07,10.03,10.66
						c2.24,4.54,3.37,9.93,3.37,16.02c0,4.49-0.62,8.64-1.84,12.33c-1.23,3.72-3.11,6.99-5.57,9.73c-2.48,2.75-5.56,4.87-9.16,6.32
						C-1944.21,2290.65-1948.36,2291.38-1952.95,2291.38z M-1953.18,2232.42c-4.21,0-8.01,0.66-11.3,1.97
						c-3.27,1.3-6.08,3.2-8.35,5.64c-2.28,2.45-4.05,5.47-5.25,8.98c-1.22,3.53-1.83,7.48-1.83,11.73c0,4.15,0.59,8.06,1.76,11.63
						c1.16,3.53,2.89,6.59,5.14,9.09c2.25,2.49,5.09,4.46,8.46,5.83c3.39,1.38,7.29,2.08,11.6,2.08c4.33,0,8.23-0.68,11.56-2.03
						c3.31-1.34,6.15-3.29,8.42-5.81c2.28-2.53,4.02-5.56,5.16-9.02c1.15-3.49,1.74-7.42,1.74-11.7c0-5.78-1.06-10.87-3.16-15.13
						c-2.08-4.22-5.18-7.51-9.22-9.8C-1942.52,2233.59-1947.47,2232.42-1953.18,2232.42z M-1953.03,2282.2
						c-2.44,0-4.71-0.46-6.76-1.37c-2.06-0.91-3.91-2.3-5.48-4.13c-1.57-1.82-2.8-4.13-3.66-6.87c-0.84-2.7-1.27-5.76-1.27-9.09
						c0-3.3,0.43-6.33,1.27-8.99c0.85-2.7,2.04-4.95,3.54-6.71c1.51-1.77,3.33-3.13,5.41-4.06c2.08-0.92,4.37-1.39,6.8-1.39
						c3.42,0,6.49,0.84,9.15,2.5c2.66,1.67,4.73,4.16,6.16,7.39c1.4,3.17,2.11,6.96,2.11,11.25c0,4.64-0.77,8.62-2.29,11.82
						c-1.54,3.25-3.66,5.7-6.3,7.27C-1946.99,2281.41-1949.9,2282.2-1953.03,2282.2z M-1953.18,2241.6c-2.16,0-4.17,0.41-5.99,1.22
						c-1.81,0.8-3.39,1.99-4.7,3.53c-1.32,1.55-2.38,3.57-3.15,6.01c-0.78,2.47-1.18,5.29-1.18,8.39c0,3.12,0.4,5.98,1.18,8.49
						c0.77,2.48,1.87,4.55,3.26,6.16c1.39,1.6,2.99,2.82,4.78,3.61c1.79,0.79,3.8,1.2,5.95,1.2c2.76,0,5.33-0.7,7.63-2.08
						c2.29-1.37,4.15-3.53,5.52-6.42c1.39-2.94,2.1-6.63,2.1-10.97c0-4.01-0.65-7.53-1.94-10.45c-1.26-2.86-3.07-5.04-5.39-6.5
						C-1947.43,2242.34-1950.15,2241.6-1953.18,2241.6z"/>
				</g>
				<g>
					<path class="st4" d="M-1883.65,2238.42v16.33h24.93v-16.33c0-2.33,0.52-4.08,1.57-5.25c1.05-1.17,2.43-1.75,4.14-1.75
						c1.74,0,3.14,0.58,4.22,1.73c1.08,1.15,1.61,2.91,1.61,5.27v44.92c0,2.36-0.54,4.12-1.63,5.29c-1.09,1.17-2.49,1.75-4.2,1.75
						c-1.74,0-3.12-0.59-4.16-1.77c-1.04-1.18-1.56-2.94-1.56-5.27v-19.17h-24.93v19.17c0,2.36-0.54,4.12-1.63,5.29
						c-1.09,1.17-2.49,1.75-4.2,1.75c-1.74,0-3.12-0.59-4.16-1.77c-1.04-1.18-1.56-2.94-1.56-5.27v-44.92
						c0-2.33,0.51-4.08,1.54-5.25c1.02-1.17,2.42-1.75,4.18-1.75c1.74,0,3.14,0.58,4.22,1.73
						C-1884.19,2234.31-1883.65,2236.07-1883.65,2238.42z"/>
					<path class="st4" d="M-1853.01,2291.38c-2.03,0-3.68-0.71-4.91-2.11c-1.2-1.36-1.8-3.36-1.8-5.93v-18.17h-22.93v18.17
						c0,2.61-0.64,4.62-1.9,5.97c-1.28,1.37-2.94,2.07-4.93,2.07c-2.03,0-3.68-0.71-4.91-2.11c-1.2-1.36-1.8-3.36-1.8-5.93v-44.92
						c0-2.57,0.6-4.56,1.78-5.91c1.22-1.39,2.88-2.09,4.93-2.09c2.02,0,3.68,0.69,4.95,2.05c1.25,1.34,1.88,3.34,1.88,5.95v15.33
						h22.93v-15.33c0-2.58,0.62-4.57,1.83-5.92c1.24-1.38,2.89-2.08,4.89-2.08c2.02,0,3.68,0.69,4.95,2.05
						c1.25,1.34,1.88,3.34,1.88,5.95v44.92c0,2.61-0.64,4.62-1.9,5.97C-1849.36,2290.68-1851.02,2291.38-1853.01,2291.38z
						 M-1884.65,2263.17h26.93v20.17c0,2.07,0.44,3.62,1.31,4.61c0.85,0.96,1.96,1.43,3.41,1.43c1.43,0,2.57-0.47,3.47-1.43
						c0.91-0.97,1.36-2.52,1.36-4.61v-44.92c0-2.09-0.45-3.63-1.35-4.59c-0.89-0.95-2.03-1.41-3.49-1.41c-1.43,0-2.54,0.46-3.4,1.42
						c-0.87,0.97-1.32,2.51-1.32,4.58v17.33h-26.93v-17.33c0-2.09-0.45-3.63-1.35-4.59c-0.89-0.95-2.03-1.41-3.49-1.41
						c-1.48,0-2.6,0.46-3.43,1.41c-0.85,0.97-1.29,2.52-1.29,4.59v44.92c0,2.07,0.44,3.62,1.31,4.61c0.85,0.96,1.96,1.43,3.41,1.43
						c1.43,0,2.57-0.47,3.47-1.43c0.91-0.97,1.36-2.52,1.36-4.61V2263.17z"/>
				</g>
				<g>
					<path class="st4" d="M-1809.68,2231.42c5.91,0,10.99,1.2,15.22,3.6c4.24,2.4,7.45,5.81,9.62,10.23s3.27,9.61,3.27,15.57
						c0,4.41-0.6,8.41-1.79,12.02c-1.19,3.6-2.98,6.73-5.37,9.37c-2.39,2.64-5.31,4.67-8.79,6.07c-3.47,1.4-7.45,2.1-11.94,2.1
						c-4.46,0-8.45-0.72-11.98-2.16c-3.53-1.44-6.47-3.47-8.83-6.09c-2.36-2.62-4.14-5.77-5.35-9.45s-1.81-7.66-1.81-11.94
						c0-4.38,0.63-8.4,1.89-12.05c1.26-3.66,3.08-6.77,5.46-9.33c2.38-2.57,5.29-4.53,8.71-5.89
						C-1817.93,2232.11-1814.04,2231.42-1809.68,2231.42z M-1793.27,2260.75c0-4.17-0.67-7.79-2.02-10.85
						c-1.35-3.06-3.27-5.37-5.77-6.94c-2.5-1.57-5.37-2.35-8.61-2.35c-2.31,0-4.44,0.43-6.4,1.3c-1.96,0.87-3.64,2.13-5.06,3.79
						c-1.41,1.66-2.53,3.78-3.34,6.36c-0.82,2.58-1.22,5.48-1.22,8.69c0,3.24,0.41,6.17,1.22,8.79c0.82,2.62,1.97,4.79,3.46,6.51
						c1.49,1.72,3.2,3.01,5.13,3.87c1.93,0.86,4.05,1.28,6.36,1.28c2.96,0,5.67-0.74,8.15-2.22c2.48-1.48,4.45-3.76,5.91-6.84
						C-1794.01,2269.06-1793.27,2265.26-1793.27,2260.75z"/>
					<path class="st4" d="M-1809.45,2291.38c-4.57,0-8.73-0.75-12.36-2.23c-3.65-1.49-6.74-3.62-9.19-6.34
						c-2.44-2.71-4.31-6.01-5.55-9.81c-1.23-3.77-1.86-7.89-1.86-12.25c0-4.47,0.65-8.64,1.94-12.38c1.3-3.77,3.21-7.03,5.68-9.69
						c2.48-2.67,5.53-4.73,9.07-6.14c3.52-1.4,7.57-2.11,12.04-2.11c6.06,0,11.35,1.25,15.72,3.73c4.4,2.49,7.77,6.07,10.03,10.66
						c2.24,4.54,3.37,9.93,3.37,16.02c0,4.49-0.62,8.64-1.84,12.33c-1.23,3.72-3.11,6.99-5.57,9.73c-2.48,2.75-5.56,4.87-9.16,6.32
						C-1800.72,2290.65-1804.86,2291.38-1809.45,2291.38z M-1809.68,2232.42c-4.21,0-8.01,0.66-11.3,1.97
						c-3.27,1.3-6.08,3.2-8.35,5.64c-2.28,2.45-4.05,5.47-5.25,8.98c-1.22,3.53-1.83,7.48-1.83,11.73c0,4.15,0.59,8.06,1.76,11.63
						c1.16,3.53,2.89,6.59,5.14,9.09c2.25,2.49,5.09,4.46,8.46,5.83c3.39,1.38,7.29,2.08,11.6,2.08c4.33,0,8.23-0.68,11.56-2.03
						c3.31-1.34,6.15-3.29,8.42-5.81c2.28-2.53,4.02-5.56,5.16-9.02c1.15-3.49,1.74-7.42,1.74-11.7c0-5.78-1.06-10.87-3.16-15.13
						c-2.08-4.22-5.18-7.51-9.22-9.8C-1799.02,2233.59-1803.98,2232.42-1809.68,2232.42z M-1809.53,2282.2
						c-2.44,0-4.71-0.46-6.76-1.37c-2.06-0.91-3.91-2.3-5.48-4.13c-1.57-1.82-2.81-4.13-3.66-6.87c-0.84-2.7-1.27-5.76-1.27-9.09
						c0-3.3,0.43-6.33,1.27-8.99c0.85-2.69,2.04-4.95,3.54-6.71c1.5-1.77,3.33-3.13,5.41-4.06c2.08-0.92,4.37-1.39,6.8-1.39
						c3.42,0,6.49,0.84,9.15,2.5c2.66,1.67,4.73,4.16,6.16,7.39c1.4,3.17,2.11,6.96,2.11,11.25c0,4.64-0.77,8.62-2.29,11.82
						c-1.54,3.25-3.67,5.7-6.3,7.27C-1803.49,2281.41-1806.4,2282.2-1809.53,2282.2z M-1809.68,2241.6c-2.16,0-4.17,0.41-5.99,1.22
						c-1.81,0.8-3.39,1.99-4.7,3.53c-1.32,1.55-2.38,3.57-3.15,6.01c-0.78,2.47-1.18,5.29-1.18,8.39c0,3.12,0.4,5.98,1.18,8.49
						c0.77,2.48,1.87,4.55,3.26,6.16c1.39,1.6,2.99,2.82,4.78,3.61c1.79,0.79,3.8,1.2,5.95,1.2c2.76,0,5.33-0.7,7.63-2.08
						c2.29-1.37,4.15-3.53,5.52-6.42c1.39-2.94,2.1-6.63,2.1-10.97c0-4.01-0.65-7.53-1.94-10.45c-1.26-2.86-3.07-5.04-5.39-6.5
						C-1803.93,2242.34-1806.65,2241.6-1809.68,2241.6z"/>
				</g>
				<g>
					<path class="st4" d="M-1752.44,2280.81l-9.14-36.32v39.36c0,2.18-0.49,3.81-1.46,4.9s-2.26,1.63-3.87,1.63
						c-1.56,0-2.83-0.54-3.81-1.61c-0.99-1.08-1.48-2.72-1.48-4.92v-45.11c0-2.49,0.65-4.17,1.94-5.04c1.3-0.87,3.05-1.3,5.25-1.3
						h3.58c2.15,0,3.71,0.2,4.69,0.58c0.97,0.39,1.69,1.09,2.16,2.1c0.47,1.01,1,2.66,1.59,4.94l8.28,31.23l8.28-31.23
						c0.6-2.28,1.13-3.93,1.59-4.94c0.47-1.01,1.19-1.71,2.16-2.1c0.97-0.39,2.53-0.58,4.69-0.58h3.58c2.2,0,3.95,0.43,5.25,1.3
						c1.3,0.87,1.94,2.55,1.94,5.04v45.11c0,2.18-0.49,3.81-1.46,4.9s-2.27,1.63-3.91,1.63c-1.53,0-2.79-0.54-3.77-1.63
						c-0.99-1.09-1.48-2.72-1.48-4.9v-39.36l-9.14,36.32c-0.6,2.36-1.08,4.09-1.46,5.19c-0.38,1.1-1.07,2.11-2.08,3.01
						c-1.01,0.91-2.41,1.36-4.2,1.36c-1.35,0-2.49-0.29-3.42-0.88c-0.93-0.58-1.66-1.33-2.18-2.24s-0.93-1.91-1.22-3.01
						C-1751.83,2283.15-1752.13,2282.01-1752.44,2280.81z"/>
					<path class="st4" d="M-1722.57,2291.38c-1.82,0-3.34-0.66-4.51-1.96c-1.15-1.27-1.74-3.15-1.74-5.57v-31.28l-7.17,28.49
						c-0.6,2.38-1.1,4.15-1.48,5.27c-0.43,1.26-1.22,2.42-2.36,3.44c-1.2,1.07-2.83,1.62-4.87,1.62c-1.53,0-2.86-0.35-3.95-1.03
						c-1.07-0.67-1.92-1.54-2.52-2.59c-0.56-0.98-1-2.07-1.32-3.25c-0.3-1.1-0.6-2.25-0.92-3.45l-7.17-28.5v31.28
						c0,2.42-0.58,4.29-1.71,5.57c-1.17,1.31-2.72,1.97-4.62,1.97c-1.84,0-3.37-0.65-4.55-1.94c-1.15-1.26-1.74-3.14-1.74-5.59
						v-45.11c0-2.83,0.8-4.8,2.39-5.87c1.46-0.98,3.41-1.47,5.81-1.47h3.58c2.3,0,3.95,0.22,5.06,0.66c1.21,0.48,2.12,1.36,2.7,2.61
						c0.5,1.07,1.04,2.74,1.65,5.11l7.32,27.58l7.32-27.58c0.62-2.35,1.16-4.02,1.65-5.1c0.58-1.25,1.48-2.12,2.7-2.61
						c1.1-0.44,2.76-0.66,5.06-0.66h3.58c2.39,0,4.35,0.5,5.81,1.47c1.58,1.06,2.39,3.04,2.39,5.87v45.11
						c0,2.42-0.58,4.29-1.71,5.57C-1719.09,2290.72-1720.65,2291.38-1722.57,2291.38z M-1726.82,2236.42v47.43
						c0,1.91,0.41,3.34,1.22,4.23c0.79,0.88,1.79,1.3,3.03,1.3c1.35,0,2.38-0.42,3.16-1.3c0.8-0.9,1.2-2.32,1.2-4.23v-45.11
						c0-2.12-0.5-3.54-1.5-4.21c-1.12-0.75-2.7-1.13-4.69-1.13h-3.58c-2.51,0-3.73,0.28-4.31,0.51c-0.73,0.29-1.26,0.81-1.62,1.59
						c-0.44,0.95-0.96,2.56-1.53,4.77l-9.25,34.87l-9.25-34.87c-0.58-2.22-1.1-3.83-1.54-4.78c-0.36-0.78-0.89-1.3-1.62-1.59
						c-0.58-0.23-1.81-0.51-4.31-0.51h-3.58c-1.99,0-3.57,0.38-4.69,1.13c-1,0.67-1.5,2.08-1.5,4.21v45.11
						c0,1.94,0.41,3.36,1.22,4.24c0.79,0.87,1.8,1.29,3.07,1.29c1.32,0,2.34-0.42,3.12-1.3c0.8-0.9,1.2-2.32,1.2-4.23v-47.43
						l11.11,44.15c0.31,1.19,0.61,2.33,0.91,3.43c0.27,1.01,0.65,1.95,1.13,2.78c0.44,0.77,1.04,1.38,1.84,1.88
						c0.77,0.48,1.74,0.72,2.89,0.72c1.53,0,2.71-0.37,3.53-1.11c0.88-0.79,1.48-1.66,1.8-2.59c0.36-1.07,0.85-2.79,1.44-5.11
						L-1726.82,2236.42z"/>
				</g>
				<g>
					<path class="st4" d="M-1667.78,2241.3h-26.02v14h23.96c1.76,0,3.08,0.4,3.95,1.19s1.3,1.83,1.3,3.13c0,1.3-0.43,2.35-1.28,3.17
						s-2.18,1.22-3.97,1.22h-23.96v16.22h26.91c1.81,0,3.18,0.42,4.1,1.26c0.92,0.84,1.38,1.96,1.38,3.36
						c0,1.35-0.46,2.44-1.38,3.29c-0.92,0.84-2.29,1.26-4.1,1.26h-31.38c-2.52,0-4.32-0.56-5.42-1.67c-1.1-1.11-1.65-2.92-1.65-5.41
						v-42.85c0-1.66,0.25-3.01,0.74-4.06c0.49-1.05,1.26-1.81,2.31-2.29c1.05-0.48,2.39-0.72,4.02-0.72h30.49
						c1.84,0,3.21,0.41,4.1,1.23s1.34,1.89,1.34,3.21c0,1.35-0.45,2.43-1.34,3.25S-1665.94,2241.3-1667.78,2241.3z"/>
					<path class="st4" d="M-1666.89,2290.41h-31.38c-2.78,0-4.84-0.66-6.14-1.97c-1.29-1.3-1.94-3.36-1.94-6.11v-42.85
						c0-1.8,0.28-3.31,0.83-4.49c0.59-1.26,1.54-2.2,2.8-2.78c1.18-0.54,2.67-0.81,4.44-0.81h30.49c2.09,0,3.7,0.5,4.78,1.49
						c1.11,1.01,1.67,2.34,1.67,3.95c0,1.64-0.56,2.98-1.67,3.99c-1.08,0.99-2.69,1.49-4.78,1.49h-25.02v12h22.96
						c2.01,0,3.57,0.49,4.62,1.45c1.08,0.98,1.63,2.29,1.63,3.87c0,1.57-0.54,2.88-1.59,3.89c-1.04,1-2.61,1.5-4.66,1.5h-22.96
						v14.22h25.91c2.06,0,3.67,0.51,4.78,1.53c1.13,1.04,1.71,2.42,1.71,4.1c0,1.63-0.57,2.99-1.71,4.02
						C-1663.21,2289.89-1664.82,2290.41-1666.89,2290.41z M-1698.27,2233.4c-1.48,0-2.7,0.21-3.61,0.63
						c-0.84,0.38-1.43,0.97-1.82,1.81c-0.43,0.91-0.64,2.14-0.64,3.64v42.85c0,2.21,0.46,3.79,1.36,4.7
						c0.9,0.91,2.49,1.38,4.71,1.38h31.38c1.55,0,2.7-0.34,3.43-1c0.71-0.65,1.06-1.48,1.06-2.55c0-1.12-0.35-1.98-1.06-2.63
						c-0.73-0.66-1.88-1-3.43-1h-27.91v-18.22h24.96c1.51,0,2.62-0.32,3.28-0.95c0.66-0.62,0.97-1.42,0.97-2.45
						c0-1.01-0.32-1.79-0.98-2.39c-0.67-0.61-1.78-0.93-3.27-0.93h-24.96v-16h27.02c1.57,0,2.73-0.32,3.43-0.96
						c0.68-0.62,1.02-1.44,1.02-2.51c0-1.04-0.33-1.85-1.02-2.47c-0.7-0.64-1.85-0.96-3.43-0.96H-1698.27z"/>
				</g>
			</g>
		</g>
	</g>
</g>
<g>
	<g>
		<path class="st5" d="M3630.16,2045.34v517.37c0,89.43-72.76,162.19-162.18,162.19h-783.23c-66.49,0-120.57,54.08-120.57,120.57
			V3200h-41.61v-354.53c0-89.43,72.75-162.18,162.18-162.18h783.23c66.47,0,120.56-54.1,120.56-120.58v-517.37H3630.16z"/>
		<g>
			<path class="st6" d="M3676.97,2173.61v82.91c0,19.8-16.05,35.84-35.84,35.84h-63.56c-10.92,0-20.7-4.89-27.27-12.59v-0.01
				c-5.34-6.25-8.56-14.37-8.56-23.24v-82.91H3676.97z"/>
			<g>
				<g>
					<path class="st7" d="M3747.61,1980.34v165.62c0,25.57-20.74,46.31-46.32,46.31h-183.9c-25.57,0-46.31-20.74-46.31-46.31
						v-165.62H3747.61z"/>
					<path class="st8" d="M3454.62,1943.87h309.46c3.36,0,6.08,2.72,6.08,6.08v24.3c0,3.36-2.72,6.08-6.08,6.08h-309.46
						c-3.36,0-6.08-2.72-6.08-6.08v-24.3C3448.54,1946.6,3451.26,1943.87,3454.62,1943.87z"/>
				</g>
				<path class="st9" d="M3567.85,1943.87h-47.13v-112.71c0-13.01,10.55-23.56,23.56-23.56l0,0c13.01,0,23.56,10.55,23.56,23.56
					V1943.87z"/>
				<path class="st9" d="M3697.98,1943.87h-47.13v-112.71c0-13.01,10.55-23.56,23.56-23.56h0c13.01,0,23.56,10.55,23.56,23.56
					V1943.87z"/>
			</g>
			<path class="st8" d="M3747.61,1980.34v165.62c0,25.57-20.74,46.31-46.32,46.31h-183.9c-25.57,0-46.31-20.74-46.31-46.31
				c198.57-13.8,216.81-165.62,216.81-165.62H3747.61z"/>
			<rect x="3471.09" y="1980.34" class="st6" width="276.53" height="13.35"/>
			<path class="st6" d="M3747.61,2050.34v95.62c0,25.57-20.74,46.31-46.32,46.31h-129.1
				C3702.56,2192.26,3747.61,2050.34,3747.61,2050.34z"/>
			<rect x="3541.73" y="2192.26" class="st9" width="135.23" height="8.66"/>
			<rect x="3520.72" y="1927.37" class="st10" width="47.13" height="16.5"/>
			<rect x="3650.85" y="1927.37" class="st10" width="47.13" height="16.5"/>
			<path class="st9" d="M3676.97,2192.26v64.26c0,19.8-16.05,35.84-35.84,35.84h-63.56c-10.92,0-20.7-4.89-27.27-12.59v-0.01
				c99.07,12.15,114.2-87.5,114.2-87.5H3676.97z"/>
		</g>
	</g>
	<g>
		<path class="st5" d="M5000,552.47v41.61H3750.73c-66.49,0-120.57,54.08-120.57,120.57v546.76h-41.62V714.65
			c0-89.43,72.76-162.18,162.19-162.18H5000z"/>
		<g>
			<path class="st6" d="M3676.97,1214.59v-82.91c0-19.8-16.05-35.84-35.84-35.84h-63.56c-10.92,0-20.7,4.89-27.27,12.59v0.01
				c-5.34,6.25-8.56,14.37-8.56,23.24v82.91H3676.97z"/>
			<g>
				<g>
					<path class="st7" d="M3747.61,1407.86v-165.62c0-25.57-20.74-46.31-46.32-46.31h-183.9c-25.57,0-46.31,20.74-46.31,46.31
						v165.62H3747.61z"/>
					<path class="st8" d="M3454.62,1444.32h309.46c3.36,0,6.08-2.72,6.08-6.08v-24.3c0-3.36-2.72-6.08-6.08-6.08h-309.46
						c-3.36,0-6.08,2.72-6.08,6.08v24.3C3448.54,1441.6,3451.26,1444.32,3454.62,1444.32z"/>
				</g>
			</g>
			<path class="st8" d="M3747.61,1407.86v-165.62c0-25.57-20.74-46.31-46.32-46.31h-183.9c-25.57,0-46.31,20.74-46.31,46.31
				c198.57,13.8,216.81,165.62,216.81,165.62H3747.61z"/>
			<rect x="3471.09" y="1394.5" class="st6" width="276.53" height="13.35"/>
			<path class="st6" d="M3747.61,1337.86v-95.62c0-25.57-20.74-46.31-46.32-46.31h-129.1
				C3702.56,1195.93,3747.61,1337.86,3747.61,1337.86z"/>
			<rect x="3541.73" y="1187.28" class="st9" width="135.23" height="8.66"/>
			<path class="st9" d="M3676.97,1195.93v-64.26c0-19.8-16.05-35.84-35.84-35.84h-63.56c-10.92,0-20.7,4.89-27.27,12.59v0.01
				c99.07-12.15,114.2,87.5,114.2,87.5H3676.97z"/>
		</g>
	</g>
	<g>
		<g>
			<g>
				<path class="st7" d="M3246.64,1588.93h-85.62c-6.51,0-11.79-5.28-11.79-11.79s5.28-11.79,11.79-11.79l85.62,0
					c6.51,0,11.79,5.28,11.79,11.79S3253.15,1588.93,3246.64,1588.93z"/>
			</g>
			<g>
				<path class="st7" d="M3355.31,1480.26c-6.51,0-11.79-5.28-11.79-11.79v-85.62c0-6.51,5.28-11.79,11.79-11.79
					c6.51,0,11.79,5.28,11.79,11.79v85.62C3367.1,1474.98,3361.82,1480.26,3355.31,1480.26z"/>
			</g>
			<g>
				<path class="st7" d="M3276.74,1510.36c-3.02,0-6.03-1.15-8.33-3.45l-58.82-58.82c-4.6-4.6-4.6-12.07,0-16.67
					c4.6-4.6,12.07-4.6,16.67,0l58.82,58.82c4.6,4.6,4.6,12.07,0,16.67C3282.78,1509.21,3279.76,1510.36,3276.74,1510.36z"/>
			</g>
		</g>
		<g>
			<g>
				<path class="st7" d="M3972.06,1854.11h85.62c6.51,0,11.79,5.28,11.79,11.79s-5.28,11.79-11.79,11.79h-85.62
					c-6.51,0-11.79-5.28-11.79-11.79S3965.55,1854.11,3972.06,1854.11z"/>
			</g>
			<g>
				<path class="st7" d="M3863.38,1962.78c6.51,0,11.79,5.28,11.79,11.79v85.62c0,6.51-5.28,11.79-11.79,11.79
					s-11.79-5.28-11.79-11.79v-85.62C3851.6,1968.06,3856.87,1962.78,3863.38,1962.78z"/>
			</g>
			<g>
				<path class="st7" d="M3941.95,1932.68c3.02,0,6.03,1.15,8.33,3.45l58.82,58.82c4.6,4.6,4.6,12.07,0,16.67
					c-4.6,4.6-12.07,4.6-16.67,0l-58.82-58.82c-4.6-4.6-4.6-12.07,0-16.67C3935.92,1933.83,3938.94,1932.68,3941.95,1932.68z"/>
			</g>
		</g>
	</g>
</g>
</svg>
