<svg xmlns="http://www.w3.org/2000/svg" xmlns:xlink="http://www.w3.org/1999/xlink" width="40.323" height="40.323" viewBox="0 0 40.323 40.323"><defs><style>.a{fill:none;}.b{opacity:0;}.c{fill:#0e0c28;}.d{clip-path:url(#a);}.e{fill:#1eb6db;}.f{fill:#2e435e;}.g{fill:#efeff6;}</style><clipPath id="a"><path class="a" d="M101.388,159.688a20.162,20.162,0,1,0,20.162-20.162,20.154,20.154,0,0,0-20.162,20.162h0" transform="translate(-101.388 -139.527)"/></clipPath></defs><g transform="translate(-51 -17)"><g transform="translate(51 17)"><g class="b" transform="translate(11.616 7.295)"><g transform="translate(7.856 19.957)"><path class="c" d="M1980.973,537.827c.129.022.3.075.474.1a1.343,1.343,0,0,1,.527.2,1.12,1.12,0,0,1,.4.377,1.219,1.219,0,0,1,.172.581,1.018,1.018,0,0,1-.431.861,2.061,2.061,0,0,1-1.206.3,2.931,2.931,0,0,1-.527-.054,1.565,1.565,0,0,1-.452-.172,2.078,2.078,0,0,1-.355-.248,1.094,1.094,0,0,1-.226-.323l.581-.2a.922.922,0,0,0,.377.248,1.51,1.51,0,0,0,.6.1,1.38,1.38,0,0,0,.28-.021,1.037,1.037,0,0,0,.3-.075.728.728,0,0,0,.248-.151.373.373,0,0,0,.1-.28.365.365,0,0,0-.022-.151.591.591,0,0,0-.1-.151,1.133,1.133,0,0,0-.3-.151,4.163,4.163,0,0,0-.581-.151,4.126,4.126,0,0,1-.527-.129,1.356,1.356,0,0,1-.452-.172.869.869,0,0,1-.323-.3.829.829,0,0,1-.129-.474,1.047,1.047,0,0,1,.377-.807,1.6,1.6,0,0,1,1.055-.3,2.794,2.794,0,0,1,.506.054,1.559,1.559,0,0,1,.452.172,2.086,2.086,0,0,1,.355.248,1.092,1.092,0,0,1,.226.323l-.6.172a.639.639,0,0,0-.323-.248,1.307,1.307,0,0,0-.527-.1.977.977,0,0,0-.6.129.389.389,0,0,0-.226.323.3.3,0,0,0,.021.129c.022.054.054.1.1.1a.478.478,0,0,0,.248.1A3.129,3.129,0,0,0,1980.973,537.827Z" transform="translate(-1979.348 -536.274)"/></g><g transform="translate(11.882 19.957)"><path class="c" d="M2039.584,537.827c.129.022.3.075.474.1a1.341,1.341,0,0,1,.527.2,1.12,1.12,0,0,1,.4.377,1.219,1.219,0,0,1,.172.581,1.018,1.018,0,0,1-.43.861,2.061,2.061,0,0,1-1.206.3,2.927,2.927,0,0,1-.527-.054,1.564,1.564,0,0,1-.452-.172,2.1,2.1,0,0,1-.355-.248,1.1,1.1,0,0,1-.226-.323l.6-.2a.924.924,0,0,0,.377.248,1.51,1.51,0,0,0,.6.1,1.379,1.379,0,0,0,.28-.021,1.036,1.036,0,0,0,.3-.075.729.729,0,0,0,.248-.151.373.373,0,0,0,.1-.28.365.365,0,0,0-.022-.151.591.591,0,0,0-.1-.151,1.133,1.133,0,0,0-.3-.151,4.165,4.165,0,0,0-.581-.151,4.122,4.122,0,0,1-.528-.129,1.354,1.354,0,0,1-.452-.172.87.87,0,0,1-.323-.3.83.83,0,0,1-.129-.474,1.047,1.047,0,0,1,.377-.807,1.6,1.6,0,0,1,1.055-.3,2.792,2.792,0,0,1,.506.054,1.557,1.557,0,0,1,.452.172,2.082,2.082,0,0,1,.355.248,1.241,1.241,0,0,1,.2.3l-.6.2a.638.638,0,0,0-.323-.248,1.307,1.307,0,0,0-.527-.1.977.977,0,0,0-.6.129.4.4,0,0,0-.226.355.3.3,0,0,0,.022.129c.021.054.054.1.1.1a.479.479,0,0,0,.248.1A4.778,4.778,0,0,1,2039.584,537.827Z" transform="translate(-2037.959 -536.274)"/></g><g transform="translate(16.23 18.313)"><path class="c" d="M2101.27,517.808V512.34h.657v5.468Z" transform="translate(-2101.27 -512.34)"/></g><g transform="translate(4.088 20.918)"><ellipse class="c" cx="1.033" cy="1.055" rx="1.033" ry="1.055" transform="translate(0)"/></g><g transform="translate(6.801 18.335)"><path class="c" d="M1474.423,515.507a.367.367,0,0,1,.021.151V518.1h-.657v-2.2c0-.1-.021-.2-.021-.3a1.044,1.044,0,0,0-.1-.323,1.377,1.377,0,0,0-.28-.28.62.62,0,0,0-.474-.1,1.683,1.683,0,0,0-.6.1.767.767,0,0,0-.474.6,1.416,1.416,0,0,1-.054.248v2.271h-.657v-5.468h.657v2.067c.021-.022.021-.054.075-.075.075-.054.129-.1.226-.172a1.211,1.211,0,0,1,.355-.172,1.6,1.6,0,0,1,.506-.075,1.632,1.632,0,0,1,.711.129,1.752,1.752,0,0,1,.452.3,1,1,0,0,1,.248.4C1474.369,515.227,1474.423,515.356,1474.423,515.507Z" transform="translate(-1471.129 -512.654)"/></g><g transform="translate(7.3 19.903)"><path class="c" d="M1542.577,539.523a2.308,2.308,0,0,1-.786-.151,1.847,1.847,0,0,1-.635-.431,2.742,2.742,0,0,1-.43-.635,2.243,2.243,0,0,1-.172-.786,1.92,1.92,0,0,1,.172-.786,2.168,2.168,0,0,1,.43-.657,1.946,1.946,0,0,1,.635-.431,2.006,2.006,0,0,1,1.539,0,1.845,1.845,0,0,1,.635.431,2.394,2.394,0,0,1,.431.657,1.823,1.823,0,0,1,.151.786,2.169,2.169,0,0,1-.151.786,1.847,1.847,0,0,1-.431.635,1.9,1.9,0,0,1-.635.431A1.809,1.809,0,0,1,1542.577,539.523Zm0-3.38a1.307,1.307,0,0,0-.527.1,1.352,1.352,0,0,0-.431.3,1.851,1.851,0,0,0-.28.431,1.4,1.4,0,0,0,.28,1.485,1,1,0,0,0,.431.3,1.243,1.243,0,0,0,.527.1,1.307,1.307,0,0,0,.527-.1,1.645,1.645,0,0,0,.431-.3,1.185,1.185,0,0,0,.28-.431,1.483,1.483,0,0,0,0-1.055,2.424,2.424,0,0,0-.28-.452,1,1,0,0,0-.431-.3,3.652,3.652,0,0,0-.527-.075Z" transform="translate(-1540.553 -535.495)"/></g><g transform="translate(8.591 20.011)"><path class="c" d="M1620.221,538.558c.129.022.3.075.474.1a1.342,1.342,0,0,1,.527.2,1.118,1.118,0,0,1,.4.377,1.219,1.219,0,0,1,.172.581,1.018,1.018,0,0,1-.431.861,2.06,2.06,0,0,1-1.205.3,2.929,2.929,0,0,1-.527-.054,1.563,1.563,0,0,1-.452-.172,2.088,2.088,0,0,1-.355-.248,1.376,1.376,0,0,1-.226-.3l.581-.2a.924.924,0,0,0,.377.248,1.51,1.51,0,0,0,.6.1,1.376,1.376,0,0,0,.28-.022,1.03,1.03,0,0,0,.3-.075.728.728,0,0,0,.247-.151.373.373,0,0,0,.1-.28.367.367,0,0,0-.021-.151.594.594,0,0,0-.1-.151,1.127,1.127,0,0,0-.3-.151,4.137,4.137,0,0,0-.581-.151c-.172-.022-.323-.075-.527-.1a1.356,1.356,0,0,1-.452-.172.87.87,0,0,1-.323-.3.83.83,0,0,1-.129-.474,1.047,1.047,0,0,1,.377-.807,1.6,1.6,0,0,1,1.055-.3,2.783,2.783,0,0,1,.506.054,1.556,1.556,0,0,1,.452.172,2.1,2.1,0,0,1,.355.248.891.891,0,0,1,.226.3l-.581.2a.638.638,0,0,0-.323-.248,1.307,1.307,0,0,0-.528-.1.976.976,0,0,0-.6.129.4.4,0,0,0-.226.355.294.294,0,0,0,.022.129c.021.054.054.1.1.1a.478.478,0,0,0,.247.1A2.106,2.106,0,0,1,1620.221,538.558Z" transform="translate(-1618.596 -537.058)"/></g><g transform="translate(10.014 18.291)"><path class="c" d="M1687.244,517.571l-.129.021a.962.962,0,0,1-.248.022,1.624,1.624,0,0,1-.323-.022.865.865,0,0,1-.355-.151,1.537,1.537,0,0,1-.527-1.313v-1.744h-.463v-.646h.452v-1.711h.635v1.711h.732v.657h-.732v1.744a1.02,1.02,0,0,0,.226.786.276.276,0,0,0,.151.054h.151c.054,0,.1-.022.172-.022Z" transform="translate(-1685.199 -512.027)"/></g><g transform="translate(11.298 18.561)"><path class="c" d="M1734.484,516.376a.353.353,0,0,1-.129.3.412.412,0,0,1-.3.129.353.353,0,0,1-.3-.129.413.413,0,0,1-.129-.3.353.353,0,0,1,.129-.3.412.412,0,0,1,.3-.129.353.353,0,0,1,.3.129A.358.358,0,0,1,1734.484,516.376Zm-.075,4.79h-.657V517.43h.657Z" transform="translate(-1733.623 -515.945)"/></g><g transform="translate(10.31 19.874)"><path class="c" d="M1775.187,536.377c0,.054.021.1.021.151V539h-.657v-2.2c0-.1-.022-.2-.022-.3a1.715,1.715,0,0,0-.1-.355,1.373,1.373,0,0,0-.28-.28.67.67,0,0,0-.506-.1,1.684,1.684,0,0,0-.6.1.678.678,0,0,0-.323.28.794.794,0,0,0-.151.3,2.019,2.019,0,0,1-.054.247v2.271h-.657v-3.735h.657v.323l.075-.075c.054-.054.129-.1.226-.172.1-.054.226-.1.355-.172a1.366,1.366,0,0,1,.474-.075,1.632,1.632,0,0,1,.71.129,1.449,1.449,0,0,1,.452.3,1,1,0,0,1,.248.4C1775.112,536.1,1775.155,536.227,1775.187,536.377Z" transform="translate(-1771.861 -535.064)"/></g><g transform="translate(10.888 19.947)"><path class="c" d="M1846.732,536.232v3.531a2.44,2.44,0,0,1-.129.883,1.919,1.919,0,0,1-.377.678,2.089,2.089,0,0,1-.581.431,1.683,1.683,0,0,1-.732.151,1.528,1.528,0,0,1-.732-.172,3.6,3.6,0,0,1-.527-.377,1.676,1.676,0,0,1-.3-.4l-.1-.2.581-.248.075.129c.054.1.129.172.2.28a1,1,0,0,0,.323.248,1.011,1.011,0,0,0,.473.1,1.072,1.072,0,0,0,.937-.474,1.324,1.324,0,0,0,.2-.474,2.941,2.941,0,0,0,.054-.528v-.247a3.253,3.253,0,0,1-.581.43,1.747,1.747,0,0,1-1.432,0,1.55,1.55,0,0,1-.581-.43,1.582,1.582,0,0,1-.377-.635,2.418,2.418,0,0,1,0-1.561,2.3,2.3,0,0,1,.377-.635,2.461,2.461,0,0,1,.581-.431,1.747,1.747,0,0,1,1.432,0,1.551,1.551,0,0,1,.581.431v-.431Zm-1.884,3.218a1.013,1.013,0,0,0,.474-.1,1.039,1.039,0,0,0,.377-.3,2.957,2.957,0,0,0,.28-.431,1.485,1.485,0,0,0,0-1.055,1.029,1.029,0,0,0-.28-.43,1.257,1.257,0,0,0-.377-.3,1.072,1.072,0,0,0-.958,0,1.038,1.038,0,0,0-.377.3,1.442,1.442,0,0,0-.248.43,1.485,1.485,0,0,0,0,1.055,1.41,1.41,0,0,0,.248.431,1.259,1.259,0,0,0,.377.3.976.976,0,0,0,.484.1Z" transform="translate(-1843.008 -536.122)"/></g><g transform="translate(6.544 20.918)"><ellipse class="c" cx="1.033" cy="1.055" rx="1.033" ry="1.055"/></g><g transform="translate(0.021 18.313)"><path class="c" d="M895.731,512.34v5.468h-.657v-.431a3.251,3.251,0,0,1-.581.431,1.778,1.778,0,0,1-.732.151,1.9,1.9,0,0,1-.732-.151,1.551,1.551,0,0,1-.581-.431,2.048,2.048,0,0,1-.527-1.432,2.377,2.377,0,0,1,.151-.807,2.307,2.307,0,0,1,.377-.635,2.464,2.464,0,0,1,.581-.431,1.748,1.748,0,0,1,1.432,0,1.552,1.552,0,0,1,.581.431V512.34Zm-1.895,4.962a1.012,1.012,0,0,0,.474-.1,1.039,1.039,0,0,0,.377-.3,2.952,2.952,0,0,0,.28-.431,1.485,1.485,0,0,0,0-1.055,1.492,1.492,0,0,0-.657-.754,1.071,1.071,0,0,0-.958,0,1.04,1.04,0,0,0-.377.3,1.317,1.317,0,0,0-.248.452,1.484,1.484,0,0,0,0,1.055,1.408,1.408,0,0,0,.248.431,1.257,1.257,0,0,0,.377.3A1,1,0,0,0,893.836,517.3Z" transform="translate(-891.92 -512.34)"/></g><g transform="translate(5.358 19.877)"><path class="c" d="M971.615,539.158a2.307,2.307,0,0,1-.786-.151,1.844,1.844,0,0,1-.635-.431,2.06,2.06,0,0,1-.431-2.217,2.166,2.166,0,0,1,.431-.657,1.945,1.945,0,0,1,.635-.431A1.975,1.975,0,0,1,973,535.7a2.06,2.06,0,0,1,.431,2.217,2.166,2.166,0,0,1-.431.657,1.944,1.944,0,0,1-.635.431A2,2,0,0,1,971.615,539.158Zm0-3.38a1.308,1.308,0,0,0-.528.1,1.353,1.353,0,0,0-.43.3,1.6,1.6,0,0,0-.28.452,1.444,1.444,0,0,0,.28,1.507,1,1,0,0,0,.43.3,1.215,1.215,0,0,0,.528.1,1.308,1.308,0,0,0,.527-.1,1.286,1.286,0,0,0,.71-.732,1.485,1.485,0,0,0,0-1.055,2.438,2.438,0,0,0-.28-.452,1,1,0,0,0-.43-.3A1.614,1.614,0,0,0,971.615,535.778Z" transform="translate(-969.611 -535.103)"/></g><g transform="translate(10.893 19.908)"><path class="c" d="M1053.72,535.581a1.551,1.551,0,0,1,.678.1.547.547,0,0,1,.248.172.821.821,0,0,1,.226.248,1.342,1.342,0,0,1,.172.377,3.78,3.78,0,0,1,.054.527v2.465h-.657V537a1.133,1.133,0,0,0-.075-.431.4.4,0,0,0-.172-.226c-.075-.021-.151-.075-.248-.1a.8.8,0,0,0-.226-.022.773.773,0,0,0-.754.753v2.465h-.657V536.98a1.133,1.133,0,0,0-.075-.431.4.4,0,0,0-.172-.226c-.075-.022-.151-.075-.248-.1a.808.808,0,0,0-.226-.021.717.717,0,0,0-.527.226.626.626,0,0,0-.2.527v2.465h-.657v-3.735h.657v.3a.774.774,0,0,1,.248-.248c.054-.022.1-.075.172-.1a.406.406,0,0,1,.172-.054.367.367,0,0,1,.151-.021,1.412,1.412,0,0,1,.431.021,1.105,1.105,0,0,1,.377.151.921.921,0,0,1,.355.323l.022.022a.021.021,0,0,0,.021.022,1.6,1.6,0,0,1,.172-.226,1.051,1.051,0,0,1,.226-.172c.075-.021.172-.075.248-.1A.768.768,0,0,1,1053.72,535.581Z" transform="translate(-1050.2 -535.561)"/></g><g transform="translate(2.862 19.885)"><path class="c" d="M1146.737,535.393v3.735h-.678v-.452a2.628,2.628,0,0,1-.581.431,1.747,1.747,0,0,1-1.432,0,1.551,1.551,0,0,1-.581-.431,1.585,1.585,0,0,1-.377-.635,2.061,2.061,0,0,1,0-1.561,2.826,2.826,0,0,1,.377-.657,2.469,2.469,0,0,1,.581-.43,1.785,1.785,0,0,1,.732-.172,2.023,2.023,0,0,1,.732.151,1.857,1.857,0,0,1,.581.43v-.463Zm-1.884,3.219a1.013,1.013,0,0,0,.474-.1,1.041,1.041,0,0,0,.377-.3,1.446,1.446,0,0,0,.248-.431,1.485,1.485,0,0,0,0-1.055,1.412,1.412,0,0,0-.248-.431,1.261,1.261,0,0,0-.377-.3,1.071,1.071,0,0,0-.958,0,1.042,1.042,0,0,0-.377.3,2.972,2.972,0,0,0-.28.431,1.485,1.485,0,0,0,0,1.055,1.032,1.032,0,0,0,.28.431,1.263,1.263,0,0,0,.377.3,1.029,1.029,0,0,0,.484.1Z" transform="translate(-1142.934 -535.221)"/></g><g transform="translate(4.453 18.561)"><path class="c" d="M1224.385,516.376a.353.353,0,0,1-.129.3.412.412,0,0,1-.3.129.321.321,0,0,1-.3-.129.413.413,0,0,1-.129-.3.353.353,0,0,1,.129-.3.413.413,0,0,1,.3-.129.321.321,0,0,1,.3.129A.331.331,0,0,1,1224.385,516.376Zm-.075,4.812h-.657V517.43h.657Z" transform="translate(-1223.524 -515.945)"/></g><g transform="translate(4.34 19.928)"><path class="c" d="M1265.233,537.106c0,.054.021.1.021.151v2.476h-.656v-2.2c0-.1-.022-.2-.022-.3a1.044,1.044,0,0,0-.1-.323,1.378,1.378,0,0,0-.28-.28.62.62,0,0,0-.474-.1,1.682,1.682,0,0,0-.6.1.677.677,0,0,0-.323.28,1.439,1.439,0,0,0-.172.3,2.021,2.021,0,0,1-.054.248v2.293h-.657v-3.735h.657v.323l.075-.075c.075-.054.129-.1.226-.172a3.686,3.686,0,0,1,.355-.172,1.369,1.369,0,0,1,.474-.075,1.633,1.633,0,0,1,.711.129,1.447,1.447,0,0,1,.452.3,1,1,0,0,1,.248.4A3.231,3.231,0,0,1,1265.233,537.106Z" transform="translate(-1261.918 -535.847)"/></g><g transform="translate(5.222 19.957)"><path class="c" d="M1335.161,537.827c.129.022.3.075.474.1a2.133,2.133,0,0,1,.527.2,1.118,1.118,0,0,1,.4.377,1.219,1.219,0,0,1,.172.581,1.018,1.018,0,0,1-.431.861,2.06,2.06,0,0,1-1.206.3,2.93,2.93,0,0,1-.528-.054,1.564,1.564,0,0,1-.452-.172,2.088,2.088,0,0,1-.355-.248,1.094,1.094,0,0,1-.226-.323l.581-.2a.922.922,0,0,0,.377.248,1.51,1.51,0,0,0,.6.1,1.378,1.378,0,0,0,.28-.021,1.036,1.036,0,0,0,.3-.075.728.728,0,0,0,.248-.151.373.373,0,0,0,.1-.28.367.367,0,0,0-.021-.151.6.6,0,0,0-.1-.151,1.13,1.13,0,0,0-.3-.151,4.158,4.158,0,0,0-.581-.151,4.126,4.126,0,0,1-.527-.129,1.356,1.356,0,0,1-.452-.172.869.869,0,0,1-.323-.3.829.829,0,0,1-.129-.474,1.047,1.047,0,0,1,.377-.807,1.6,1.6,0,0,1,1.055-.3,2.792,2.792,0,0,1,.506.054,1.559,1.559,0,0,1,.452.172,2.1,2.1,0,0,1,.355.248,1.094,1.094,0,0,1,.226.323l-.581.2a.639.639,0,0,0-.323-.248,1.306,1.306,0,0,0-.527-.1.977.977,0,0,0-.6.129.389.389,0,0,0-.226.323.3.3,0,0,0,.022.129c.021.054.054.1.1.1a.559.559,0,0,0,.248.1A1.661,1.661,0,0,0,1335.161,537.827Z" transform="translate(-1333.536 -536.274)"/></g><g transform="translate(0 0.423)"><path class="c" d="M895.837,251.884a6.97,6.97,0,0,1,2.874.581,7.41,7.41,0,0,1,3.929,3.961,7.3,7.3,0,0,1,0,5.748,7.409,7.409,0,0,1-3.929,3.961,7.037,7.037,0,0,1-2.874.581h-4.23V251.906l4.23-.022Zm0,12.853a5.293,5.293,0,0,0,2.088-.431,5.454,5.454,0,0,0,2.874-7.126,5.37,5.37,0,0,0-2.874-2.9,4.633,4.633,0,0,0-2.088-.431H893.6v10.883Z" transform="translate(-891.607 -251.884)"/></g><g transform="translate(1.15 0.423)"><path class="c" d="M1114.515,251.884v14.79h-1.97l-7.384-11.216v11.216h-1.991v-14.79h1.97l7.384,11.195V251.884Z" transform="translate(-1103.169 -251.884)"/></g><g transform="translate(2.386 0.423)"><path class="c" d="M1338.089,251.884v14.79H1336.1v-6.4h-7.309v6.4H1326.8v-14.79h1.991v6.426h7.309v-6.426Z" transform="translate(-1326.797 -251.884)"/></g><g transform="translate(1 0.043)"><path class="c" d="M1545.143,246.358a7.766,7.766,0,1,1-3.025,14.919,7.3,7.3,0,0,1-2.465-1.669,8.313,8.313,0,0,1-1.669-2.465,7.859,7.859,0,0,1,0-6.05,7.3,7.3,0,0,1,1.669-2.465,7.681,7.681,0,0,1,2.465-1.669A7.072,7.072,0,0,1,1545.143,246.358Zm0,13.585a5.624,5.624,0,0,0,2.239-.452,7,7,0,0,0,1.841-1.238,6.086,6.086,0,0,0,1.238-1.841,5.931,5.931,0,0,0,0-4.543,5.991,5.991,0,0,0-3.046-3.1,5.85,5.85,0,0,0-4.51,0,6.154,6.154,0,0,0-1.841,1.259,6.087,6.087,0,0,0-1.238,1.841,5.9,5.9,0,0,0-.452,2.271,5.817,5.817,0,0,0,.452,2.271,6.088,6.088,0,0,0,1.238,1.841,5.719,5.719,0,0,0,1.841,1.238A4.97,4.97,0,0,0,1545.143,259.942Z" transform="translate(-1537.38 -246.355)"/></g><g transform="translate(0)"><path class="c" d="M1793.735,252.224a10.905,10.905,0,0,1,2.616.958,5.72,5.72,0,0,1,1.561,1.206,3.845,3.845,0,0,1,.786,1.281,3.976,3.976,0,0,1,.2,1.238,3.638,3.638,0,0,1-.43,1.712,4.362,4.362,0,0,1-1.163,1.389,5.9,5.9,0,0,1-1.712.936,6,6,0,0,1-2.088.355,6.48,6.48,0,0,1-1.97-.3,4.7,4.7,0,0,1-1.636-.829,4.4,4.4,0,0,1-1.163-1.238,3.663,3.663,0,0,1-.581-1.539l1.765-.355a3.116,3.116,0,0,0,1.259,1.636,4.056,4.056,0,0,0,2.347.657,4.886,4.886,0,0,0,1.313-.172,3.63,3.63,0,0,0,1.087-.527,2.448,2.448,0,0,0,.732-.786,1.77,1.77,0,0,0,.248-.937c0-1.281-1.206-2.239-3.628-2.852-.581-.151-1.162-.3-1.765-.474a5.869,5.869,0,0,1-1.582-.732,3.865,3.865,0,0,1-1.163-1.163,3.236,3.236,0,0,1-.452-1.787,3.665,3.665,0,0,1,.355-1.668,3.71,3.71,0,0,1,1.012-1.313,5.461,5.461,0,0,1,1.561-.883,6.78,6.78,0,0,1,3.929-.022,4.632,4.632,0,0,1,1.507.807,3.917,3.917,0,0,1,1.055,1.238,4.194,4.194,0,0,1,.527,1.561L1796.5,250a2.967,2.967,0,0,0-1.055-1.668,3.264,3.264,0,0,0-2.142-.657,3.338,3.338,0,0,0-2.2.635,2.019,2.019,0,0,0-.807,1.615,1.468,1.468,0,0,0,.129.678,1.337,1.337,0,0,0,.506.56,4.394,4.394,0,0,0,1.033.506C1792.454,251.847,1793.035,252.02,1793.735,252.224Z" transform="translate(-1788.159 -245.73)"/></g><g transform="translate(6.338 0.412)"><path class="c" d="M1968.005,251.739v1.895h-4.381V266.54h-1.991V253.622h-4.381v-1.894h10.754Z" transform="translate(-1957.252 -251.728)"/></g></g><g transform="translate(0)"><g transform="translate(0)"><g class="d"><g transform="translate(0 0)"><path class="e" d="M141.711,159.69a20.162,20.162,0,1,1-20.162-20.162h0a20.154,20.154,0,0,1,20.162,20.162" transform="translate(-101.388 -139.528)"/><g transform="translate(2.885 2.874)"><path class="f" d="M177.962,198.657a17.287,17.287,0,1,1-17.288-17.287h0a17.287,17.287,0,0,1,17.288,17.287" transform="translate(-143.387 -181.37)"/></g><g transform="translate(21.536 2.838)"><path class="g" d="M416.492,208.547a1.425,1.425,0,0,1-.786-.226,1.593,1.593,0,0,1-.581-2.164l14.263-24.521a1.584,1.584,0,1,1,2.745,1.582L417.88,207.75A1.617,1.617,0,0,1,416.492,208.547Z" transform="translate(-414.917 -180.847)"/></g><g transform="translate(13.452 9.717)"><path class="g" d="M298.8,301.808a1.425,1.425,0,0,1-.786-.226,1.593,1.593,0,0,1-.581-2.164l10.258-17.643a1.584,1.584,0,0,1,2.745,1.582L300.178,301A1.54,1.54,0,0,1,298.8,301.808Z" transform="translate(-297.225 -280.986)"/></g><g transform="translate(1.503 9.749)"><path class="g" d="M124.85,308.93a1.425,1.425,0,0,1-.786-.226,1.593,1.593,0,0,1-.581-2.164l14.134-24.3a1.584,1.584,0,1,1,2.745,1.582l-14.123,24.3A1.577,1.577,0,0,1,124.85,308.93Z" transform="translate(-123.275 -281.456)"/></g></g></g></g></g></g></g></svg>