<svg xmlns="http://www.w3.org/2000/svg" xmlns:xlink="http://www.w3.org/1999/xlink" width="74.546" height="144.725" viewBox="0 0 74.546 144.725"><defs><style>.a{fill:none;}.b{fill:#0e0c28;}.c{fill:#f8f8fb;}.d{clip-path:url(#a);}.e{fill:#1eb6db;}.f{fill:#2e435e;}.g{fill:#fff;}</style><clipPath id="a"><path class="a" d="M101.388,165.105a25.578,25.578,0,1,0,25.578-25.578,25.568,25.568,0,0,0-25.578,25.578h0" transform="translate(-101.388 -139.527)"/></clipPath></defs><path class="b" d="M74.546,72.333c0-20.6-17.535-38.165-42.148-44.945h0q-1.941-.4-3.817-.951h0C14.384,22.265,0,12,0,0H0V144.725H0c0-12.337,14.954-22.838,29.776-26.771l.012,0q.681-.18,1.374-.342l.008,0C56.425,111.079,73.346,96.424,74.546,72.333Z"/><g transform="translate(29.236 62.954)"><path class="c" d="M18.073,8.2,10.365.491a1.557,1.557,0,1,0-2.2,2.2L14.769,9.3,8.163,15.9a1.557,1.557,0,1,0,2.2,2.2L18.073,10.4A1.555,1.555,0,0,0,18.073,8.2ZM8.805,7.732,2.686,1.282a1.518,1.518,0,0,0-2.226,0,1.721,1.721,0,0,0,0,2.345L5.467,8.9.46,14.181a1.721,1.721,0,0,0,0,2.345,1.518,1.518,0,0,0,2.226,0l6.119-6.449A1.721,1.721,0,0,0,8.805,7.732Z" transform="translate(0.001 -0.035)"/></g><g transform="translate(10.695 46.784)"><g class="d"><g transform="translate(0 0)"><path class="e" d="M152.545,165.106a25.578,25.578,0,1,1-25.578-25.578h0a25.568,25.568,0,0,1,25.578,25.578" transform="translate(-101.388 -139.528)"/><g transform="translate(3.66 3.646)"><path class="f" d="M187.251,203.3a21.932,21.932,0,1,1-21.932-21.932h0A21.932,21.932,0,0,1,187.251,203.3" transform="translate(-143.387 -181.37)"/></g><g transform="translate(27.322 3.601)"><path class="g" d="M416.915,215.989a1.808,1.808,0,0,1-1-.287,2.021,2.021,0,0,1-.737-2.745l18.095-31.109a2.01,2.01,0,1,1,3.482,2.008l-18.081,31.123A2.051,2.051,0,0,1,416.915,215.989Z" transform="translate(-414.917 -180.847)"/></g><g transform="translate(17.066 12.327)"><path class="g" d="M299.224,307.4a1.808,1.808,0,0,1-1-.287,2.021,2.021,0,0,1-.737-2.745L310.5,281.987A2.01,2.01,0,0,1,313.986,284l-13.015,22.383A1.953,1.953,0,0,1,299.224,307.4Z" transform="translate(-297.225 -280.986)"/></g><g transform="translate(1.907 12.368)"><path class="g" d="M125.273,316.312a1.808,1.808,0,0,1-1-.287,2.021,2.021,0,0,1-.737-2.745l17.931-30.822a2.01,2.01,0,0,1,3.482,2.008l-17.917,30.823A2,2,0,0,1,125.273,316.312Z" transform="translate(-123.275 -281.456)"/></g></g></g></g></svg>