<svg xmlns="http://www.w3.org/2000/svg" width="456.73" height="456.73" viewBox="0 0 456.73 456.73"><defs><style>.cls-1{fill:#1eb6db;}.cls-2{fill:#2e435e;}.cls-3{fill:#fff;}</style></defs><title>Asset 1</title><g id="Layer_2" data-name="Layer 2"><g id="Layer_1-2" data-name="Layer 1"><path class="cls-1" d="M261.55,341.24a13,13,0,0,1-11.22-19.54l145-249.1A227.77,227.77,0,0,0,228.37,0C102.24,0,0,102.24,0,228.37A227.35,227.35,0,0,0,43.73,362.76L183.92,122A13,13,0,0,1,206.39,135l-145,249.08a227.74,227.74,0,0,0,167,72.61c126.12,0,228.36-102.24,228.36-228.36A227.36,227.36,0,0,0,413,94L272.8,334.78A13,13,0,0,1,261.55,341.24Zm-80.1-6.46A13,13,0,0,1,159,321.7L275.27,122A13,13,0,0,1,297.74,135Z"/><path class="cls-2" d="M424.11,228.37c0,108.1-87.64,195.74-195.74,195.74S32.62,336.47,32.62,228.37,120.26,32.63,228.37,32.63s195.74,87.63,195.74,195.74"/><path class="cls-3" d="M293,117.26A13,13,0,0,0,275.27,122L159,321.7a13,13,0,1,0,22.47,13.08L297.74,135A13,13,0,0,0,293,117.26Z"/><path class="cls-3" d="M250.33,321.7a13,13,0,1,0,22.47,13.08L413,94A230.37,230.37,0,0,0,395.35,72.6Z"/><path class="cls-3" d="M201.7,117.26A13,13,0,0,0,183.92,122L43.73,362.76a230.25,230.25,0,0,0,17.65,21.36L206.39,135A13,13,0,0,0,201.7,117.26Z"/></g></g></svg>