<svg xmlns="http://www.w3.org/2000/svg" width="20" height="11.814" viewBox="0 0 20 11.814"><defs><style>.a{fill:#0e0c28;}</style></defs><g transform="translate(0 0)"><g transform="translate(0 0)"><path class="a" d="M19,1.994H1A1,1,0,0,1,1,0H19a1,1,0,0,1,0,1.994Z" transform="translate(0 0)"/></g><g transform="translate(0 4.909)"><path class="a" d="M19,135.248H1a1,1,0,0,1,0-1.994H19a1,1,0,0,1,0,1.994Z" transform="translate(0 -133.254)"/></g><g transform="translate(0 9.82)"><path class="a" d="M19,268.543H1a1,1,0,0,1,0-1.994H19a1,1,0,0,1,0,1.994Z" transform="translate(0 -266.549)"/></g></g></svg>